<?xml version="1.0"?>
<svg xmlns="http://www.w3.org/2000/svg" xmlns:xlink="http://www.w3.org/1999/xlink" xmlns:svgjs="http://svgjs.com/svgjs" version="1.1" width="512" height="512" x="0" y="0" viewBox="0 0 384 384" style="enable-background:new 0 0 512 512" xml:space="preserve" class=""><circle r="192" cx="192" cy="192" fill="#1d415e" shape="circle" transform="matrix(1,0,0,1,0,0)"/><g transform="matrix(0.7,0,0,0.7,57.60000000000011,57.60000000000011)"><path xmlns="http://www.w3.org/2000/svg" d="m208 96s-24 32-24 96 24 96 24 96h136s24-32 24-96-24-96-24-96zm0 0" fill="#174850" data-original="#cce4ff" style="" class=""/><g xmlns="http://www.w3.org/2000/svg" fill="#007aff"><path d="m192 32v-32c-44.832031 0-83.167969 32.007812-91.183594 76.113281l-18.167968 99.886719h-42.648438v32h36.832031l-17.128906 94.167969c-5.246094 28.878906-30.351563 49.832031-59.703125 49.832031v32c44.832031 0 83.167969-32.007812 91.183594-76.113281l18.167968-99.886719h34.648438v-32h-28.832031l17.128906-94.167969c5.246094-28.878906 30.351563-49.832031 59.703125-49.832031zm0 0" fill="#4ef910" data-original="#007aff" style="" class=""/><path d="m208 96-12.800781-9.601562c-1.109375 1.480468-27.199219 37.058593-27.199219 105.601562s26.089844 104.121094 27.199219 105.601562l25.59375-19.203124c-.199219-.269532-20.792969-29.328126-20.792969-86.398438 0-57.054688 20.664062-86.207031 20.871094-86.503906zm0 0" fill="#4ef910" data-original="#007aff" style="" class=""/><path d="m331.199219 105.601562c.207031.269532 20.800781 29.328126 20.800781 86.398438 0 57.054688-20.664062 86.207031-20.871094 86.503906l12.871094 9.496094 12.800781 9.601562c1.121094-1.488281 27.199219-37.058593 27.199219-105.601562s-26.089844-104.121094-27.199219-105.601562zm0 0" fill="#4ef910" data-original="#007aff" style="" class=""/><path d="m291.0625 142.585938-19.0625 26.214843-19.0625-26.214843-25.875 18.828124 25.152344 34.585938-25.152344 34.585938 25.875 18.828124 19.0625-26.214843 19.0625 26.214843 25.875-18.828124-25.152344-34.585938 25.152344-34.585938zm0 0" fill="#4ef910" data-original="#007aff" style="" class=""/></g></g></svg>
