<svg height="512pt" viewBox="-17 0 512 512" width="512pt" xmlns="http://www.w3.org/2000/svg"><path d="m222.253906 30c0-11.046875-8.953125-20-20-20h-120.253906c-11.046875 0-20 8.953125-20 20s8.953125 20 20 20h120.253906c11.046875 0 20-8.953125 20-20zm0 0" fill="#c9f3ff"/><path d="m78.792969 54v146.070312c8.4375-14.011718 18.996093-26.597656 31.238281-37.316406 27.507812 28.257813 44.472656 66.828125 44.472656 109.382813 0 47.085937-20.769531 89.289062-53.613281 118.050781-8.417969-8.648438-15.839844-18.261719-22.097656-28.65625v58.46875c0 36.535156 22.796875 67.730469 54.933593 80.191406 39.054688-8.125 68.402344-42.726562 68.402344-84.191406v-362zm0 0" fill="#c9f3ff"/><path d="m80.417969 278.800781c0 42.554688 16.964843 81.125 44.472656 109.386719 32.839844-28.761719 53.609375-70.964844 53.609375-118.050781 0-42.554688-16.964844-81.121094-44.472656-109.382813-32.839844 28.757813-53.609375 70.960938-53.609375 118.046875zm0 0" fill="#36d28f"/><path d="m449.988281 259.214844 26.796875-46.414063c1.789063-3.097656 1.789063-6.90625 0-10l-29.683594-51.417969c-1.785156-3.09375-5.085937-5-8.660156-5h-54.933594l-26.796874-46.414062c-1.785157-3.09375-5.089844-5-8.660157-5h-59.367187c-3.574219 0-6.875 1.90625-8.660156 5l-26.796876 46.414062h-41.101562v-88.058593c11.707031-4.09375 20.128906-15.238281 20.128906-28.324219 0-16.542969-13.457031-30-30-30h-172.253906c-16.542969 0-30 13.457031-30 30 0 13.082031 8.421875 24.230469 20.128906 28.324219v357.675781c0 52.933594 43.0625 96 96 96 52.933594 0 96-43.066406 96-96v-249.617188h41.097656l26.796876 46.417969c1.785156 3.09375 5.089843 5 8.660156 5h59.367187c3.574219 0 6.875-1.90625 8.660157-5l26.800781-46.417969h49.15625l23.910156 41.417969-23.910156 41.414063h-53.59375c-3.570313 0-6.875 1.90625-8.660157 5l-26.796874 46.414062h-47.824219l-22.476563-38.929687c-2.761718-4.785157-8.875-6.421875-13.660156-3.660157-4.78125 2.761719-6.421875 8.875-3.660156 13.660157l21.808594 37.773437-27.464844 47.570313c-1.785156 3.09375-1.785156 6.90625 0 10l29.683594 51.414062c1.785156 3.09375 5.089843 5 8.660156 5h59.367187c3.574219 0 6.875-1.90625 8.660157-5l26.800781-46.414062h54.929687c3.574219 0 6.875-1.90625 8.660156-5l29.6875-51.414063c1.785157-3.09375 1.785157-6.90625 0-10zm-343.859375 11.625v50.988281l-46.367187-46.363281c.070312-15.105469 2.480469-29.925782 6.992187-44zm20 50.988281v-50.988281l39.375-39.375c4.507813 14.074218 6.917969 28.894531 6.988282 43.996094zm0-79.273437v-73.480469c12.9375 12.175781 23.488282 26.519531 31.234375 42.246093zm-20 0-31.238281-31.234376c7.75-15.726562 18.296875-30.070312 31.238281-42.246093zm0 107.558593v33.082031c-21.777344-20.484374-36.765625-47.109374-43.050781-76.132812zm20 0 43.046875-43.050781c-6.285156 29.023438-21.273437 55.648438-43.046875 76.132812zm-4.222656-210.273437c-3.464844-2.453125-8.097656-2.453125-11.558594 0-41.199218 29.171875-66.910156 75.410156-70.222656 125.3125v-205.152344h152v205.152344c-3.308594-49.898438-29.023438-96.140625-70.21875-125.3125zm-91.90625-119.839844h172.253906c5.515625 0 10 4.484375 10 10s-4.484375 10-10 10h-172.253906c-5.515625 0-10-4.484375-10-10s4.484375-10 10-10zm86.128906 472c-41.90625 0-76-34.09375-76-76v-128.882812c3.308594 49.902343 29.023438 96.140624 70.21875 125.316406 1.730469 1.222656 3.757813 1.835937 5.78125 1.835937 2.019532 0 4.046875-.613281 5.777344-1.835937 41.195312-29.171875 66.910156-75.414063 70.222656-125.316406v128.882812c0 41.90625-34.097656 76-76 76zm226.148438-294.199219h-47.820313l-23.910156-41.417969 23.910156-41.414062h47.820313l23.910156 41.414062zm0 205.65625h-47.820313l-23.910156-41.414062 23.910156-41.414063h47.820313l23.910156 41.414063zm90.390625-51.414062h-47.820313l-23.910156-41.414063 23.910156-41.414062h47.820313l23.910156 41.414062zm0 0"/><path d="m255.492188 233.511719c0-2.640625-1.070313-5.210938-2.929688-7.070313-1.859375-1.871094-4.441406-2.929687-7.070312-2.929687-2.628907 0-5.210938 1.058593-7.070313 2.929687-1.859375 1.859375-2.929687 4.429688-2.929687 7.070313 0 2.628906 1.070312 5.207031 2.929687 7.066406 1.859375 1.863281 4.441406 2.933594 7.070313 2.933594 2.628906 0 5.210937-1.070313 7.070312-2.933594 1.859375-1.859375 2.929688-4.4375 2.929688-7.066406zm0 0"/></svg>