<svg id="Layer_1_1_" enable-background="new 0 0 64 64" height="512" viewBox="0 0 64 64" width="512" xmlns="http://www.w3.org/2000/svg"><path d="m42.081 26c-2.655-8.451-10.766-14.486-20.205-13.969-8.029.439-14.831 5.764-17.57 12.969-.78 2.052-1.249 4.249-1.301 6.539-.118 5.252 1.789 10.058 4.995 13.69v7.771c0 1.105.895 2 2 2s2-.896 2-2v-1c0-1.105.895-2 2-2s2 .895 2 2v6c0 1.105.895 2 2 2s2-.895 2-2v-8c0-1.105.895-2 2-2s2 .895 2 2v9c0 1.105.895 2 2 2s2-.895 2-2v-14c0-1.105.895-2 2-2s2 .895 2 2v6c0 1.105.895 2 2 2s2-.895 2-2v-3l1.283-2c3.536-3.607 5.717-8.549 5.717-14 0-2.091-.324-4.106-.919-6z" fill="#23a2e0"/><path d="m29.025 28.5c0 1.381 1.119 2.5 2.5 2.5h11.425c-.086-1.732-.369-3.411-.868-5h-10.557c-1.38 0-2.5 1.119-2.5 2.5z" fill="#84c757"/><path d="m38.973 20c-3.649-4.85-9.436-8-15.973-8-.918 0-1.815.083-2.7.203-.178.567-.274 1.171-.274 1.797 0 3.314 2.686 6 6 6z" fill="#84c757"/><g fill="#1a76a3"><path d="m24 48c0-1.105-.895-2-2-2s-2 .895-2 2v2c0-1.105.895-2 2-2s2 .895 2 2z"/><path d="m18 58c-1.105 0-2-.895-2-2v2c0 1.105.895 2 2 2s2-.895 2-2v-2c0 1.105-.895 2-2 2z"/><path d="m16 50c0-1.105-.895-2-2-2s-2 .895-2 2v1c0 1.105-.895 2-2 2s-2-.896-2-2v2c0 1.105.895 2 2 2s2-.896 2-2v-1c0-1.105.895-2 2-2s2 .895 2 2z"/><path d="m34 51c-1.105 0-2-.895-2-2v2c0 1.105.895 2 2 2s2-.895 2-2v-2c0 1.105-.895 2-2 2z"/><path d="m26 59c-1.105 0-2-.895-2-2v2c0 1.105.895 2 2 2s2-.895 2-2v-2c0 1.105-.895 2-2 2z"/><path d="m32 43c0-1.105-.895-2-2-2s-2 .895-2 2v2c0-1.105.895-2 2-2s2 .895 2 2z"/></g><path d="m30.525 35h-20.5c-1.71 0-3.086-1.431-2.996-3.161.085-1.623 1.542-2.839 3.166-2.839h2.83c1.215 0 2.176-1.083 1.973-2.336-.16-.983-1.084-1.664-2.08-1.664h-8.634c-.816 2.182-1.284 4.533-1.284 7 0 3.647.992 7.056 2.698 10h24.292c2.209 0 4-1.791 4-4-.243-1.696-1.702-3-3.465-3z" fill="#84c757"/><path d="m4.306 28c2.74-7.205 9.541-12.53 17.57-12.969 9.44-.517 17.55 5.518 20.205 13.969.439 1.398.728 2.862.85 4.373.032-.456.069-.909.069-1.373 0-2.091-.324-4.106-.919-6-2.655-8.451-10.766-14.486-20.205-13.969-8.029.439-14.831 5.764-17.57 12.969-.78 2.052-1.249 4.249-1.301 6.539-.016.697.009 1.385.063 2.065.142-1.952.565-3.834 1.238-5.604z" fill="#ffd050" opacity=".4"/><path d="m62.547 19.719-1.08-1.081c-.646-.646-.772-1.62-.388-2.449 1.476-3.185 1.329-7.273-1.548-11.226-.136-.187-.308-.359-.495-.495-3.953-2.877-8.041-3.024-11.226-1.548-.829.384-1.803.258-2.449-.388l-1.088-1.088c-.613-.614-1.565-.841-2.337-.444-1.294.665-1.475 2.288-.542 3.221l1.141 1.141c.646.646.771 1.619.386 2.447-.112.242-.215.488-.307.74-.316.855-1.093 1.451-2.004 1.451h-2.538c-.867 0-1.699.512-1.966 1.337-.447 1.385.575 2.663 1.894 2.663h2.61c.911 0 1.687.596 2.003 1.45.093.252.195.498.307.74.384.828.259 1.802-.386 2.447l-1.788 1.788c-.664.664-.856 1.716-.357 2.513.401.641 1.056.961 1.712.961.512 0 1.023-.195 1.414-.586l1.848-1.848c.646-.646 1.619-.771 2.448-.386.242.112.488.215.74.308.853.315 1.449 1.092 1.449 2.003v1.538c0 .867.512 1.699 1.337 1.966 1.385.447 2.663-.575 2.663-1.894v-1.61c0-.911.596-1.687 1.45-2.003.252-.093.498-.196.74-.308.829-.384 1.802-.259 2.448.386l1.141 1.141c.391.391.902.586 1.414.586.656 0 1.311-.321 1.712-.961.498-.796.306-1.848-.358-2.512z" fill="#ffd050"/><circle cx="52" cy="12" fill="#ff8450" r="7"/><circle cx="52" cy="12" fill="#c24827" r="5"/><path d="m13 53v-1c0-.551.448-1 1-1s1 .449 1 1v6c0 1.654 1.346 3 3 3s3-1.346 3-3v-8c0-.551.448-1 1-1s1 .449 1 1v9c0 1.654 1.346 3 3 3s3-1.346 3-3v-14c0-.551.448-1 1-1s1 .449 1 1v6c0 1.654 1.346 3 3 3s3-1.346 3-3v-2.707l1.07-1.668c3.825-3.939 5.93-9.129 5.93-14.625 0-5.828-2.331-11.244-6.564-15.252-4.23-4.005-9.777-6.035-15.614-5.716-10.868.595-19.572 9.593-19.817 20.485-.116 5.174 1.655 10.16 4.995 14.085v7.398c0 1.654 1.346 3 3 3s3-1.346 3-3zm28.895-23h-10.37c-.827 0-1.5-.673-1.5-1.5s.673-1.5 1.5-1.5h9.793c.265.978.472 1.976.577 3zm-19.964-16.971c5.28-.299 10.303 1.547 14.13 5.171.27.256.511.532.764.8h-10.8c-2.757 0-5-2.243-5-5 0-.299.035-.594.087-.886.274-.027.542-.07.819-.085zm-10.931 38.971v1c0 .551-.448 1-1 1s-1-.449-1-1v-7.771c0-.244-.089-.479-.25-.662-3.168-3.589-4.854-8.208-4.745-13.006.043-1.936.392-3.802.983-5.561h8.037c.552 0 1 .449 1 1s-.448 1-1 1h-3c-2.206 0-4 1.794-4 4s1.794 4 4 4h20.5c1.236 0 2.3.921 2.475 2.142l1.98-.284c-.315-2.199-2.23-3.858-4.455-3.858h-20.5c-1.103 0-2-.897-2-2s.897-2 2-2h3c1.654 0 3-1.346 3-3s-1.346-3-3-3h-7.225c2.495-5.32 7.381-9.321 13.269-10.571-.016.19-.043.379-.043.571 0 3.86 3.141 7 7 7h12.466c.891 1.246 1.609 2.59 2.167 4h-9.133c-1.93 0-3.5 1.57-3.5 3.5s1.57 3.5 3.5 3.5h10.474c0 5.004-1.929 9.727-5.431 13.3-.048.049-.091.103-.128.16l-1.283 2c-.103.161-.158.349-.158.54v3c0 .551-.448 1-1 1s-1-.449-1-1v-6c0-1.654-1.346-3-3-3s-3 1.346-3 3v14c0 .551-.448 1-1 1s-1-.449-1-1v-9c0-1.654-1.346-3-3-3s-3 1.346-3 3v8c0 .551-.448 1-1 1s-1-.449-1-1v-6c0-1.654-1.346-3-3-3s-3 1.346-3 3z"/><path d="m22 24h2v2h-2z"/><path d="m9 38h2v2h-2z"/><path d="m52 6c-3.309 0-6 2.691-6 6s2.691 6 6 6 6-2.691 6-6-2.691-6-6-6zm0 10c-2.206 0-4-1.794-4-4s1.794-4 4-4 4 1.794 4 4-1.794 4-4 4z"/><path d="m38 11h6v2h-6z"/><path d="m51 20h2v5h-2z"/><path d="m51 2h2v2h-2z"/><path d="m60 11h2v2h-2z"/><path d="m41.222 18.778h6v2h-6z" transform="matrix(.707 -.707 .707 .707 -1.032 37.065)"/><path d="m58.425 16.925h2v5h-2z" transform="matrix(.707 -.707 .707 .707 3.668 47.705)"/><path d="m43.575 2.076h2v5h-2z" transform="matrix(.707 -.707 .707 .707 9.82 32.86)"/><path d="m57.172 4.172h3.314v2h-3.314z" transform="matrix(.707 -.707 .707 .707 13.574 43.113)"/><path d="m17 42h2v2h-2z"/><path d="m33 40h2v2h-2z"/></svg>