<svg id="flat" height="512" viewBox="0 0 512 512" width="512" xmlns="http://www.w3.org/2000/svg"><path d="m368 288a40 40 0 0 1 -40-40 40 40 0 0 1 40-40h13.38909a56.00585 56.00585 0 0 1 50.61089-32h.00012a55.99994 55.99994 0 0 1 55.9999 55.99994v.00012a55.99994 55.99994 0 0 1 -55.99994 55.99994z" fill="#08d175"/><path d="m496 360h-3.56426a138.6602 138.6602 0 0 1 -80.59459-25.82775h-.00005a76.0857 76.0857 0 0 0 -44.22389-14.17225 76.08578 76.08578 0 0 0 -29.97161 6.1519l-41.6456 17.8481h-72l-16.47774-4.11943a45.06528 45.06528 0 0 1 -25.12226-16.68057 48 48 0 0 0 -38.4-19.2h-55.02945a40.97052 40.97052 0 0 0 -28.97055 12 40.97052 40.97052 0 0 1 -28.97054 12h-15.02946v96h480z" fill="#02c26a"/><path d="m107.99992 256a83.99991 83.99991 0 0 1 -83.99992-83.99992v-.00016a83.99991 83.99991 0 0 1 83.99992-83.99992h4.00015a72.001 72.001 0 0 1 64.51578 40h31.48421a63.99994 63.99994 0 0 1 63.99994 63.99994v.00012a63.99994 63.99994 0 0 1 -63.99994 63.99994z" fill="#08d175"/><path d="m168 424v-38a26 26 0 0 1 26-26h22l16-24h32v8l-16 16v14.11147a28.94425 28.94425 0 0 1 -16 25.88853v24h-8l-16-24h-16l-8 24z" fill="#ffc431"/><path d="m336 384-16 40h-16v-48a28.94425 28.94425 0 0 1 -16-25.88852v-30.11148l-16-16v-8h32l16 32h32a32 32 0 0 1 32 32v64h-16l-16-40z" fill="#ffc431"/><path d="m250 336h-16a33.70046 33.70046 0 0 1 18.73389-30.31055l1.6875-.84472 7.15722 14.31054-1.689.84473a17.79018 17.79018 0 0 0 -9.88961 16z" fill="#ffa100"/><path d="m296 296h-16a17.79146 17.79146 0 0 0 -9.88818-16l-1.69043-.84473 7.15722-14.31054 1.689.84472a33.70174 33.70174 0 0 1 18.73239 30.31055z" fill="#ffa100"/><path d="m160 424-16-24v-160l56-32-8-24-48 24v-40h-32v232l-16 24z" fill="#db8638"/><path d="m183.55981 160a7.97991 7.97991 0 0 1 -7.94307-7.09664 62.93476 62.93476 0 0 0 -3.46144-14.82461 7.98107 7.98107 0 0 1 3.9584-9.879l.00075-.00037a7.98449 7.98449 0 0 1 11.05358 4.34 78.70294 78.70294 0 0 1 4.36 18.66289 7.98673 7.98673 0 0 1 -7.96822 8.79773z" fill="#02c26a"/><path d="m440 424-8-16v-192h-24v32l-24-8-8 24 32 8v136l-8 16z" fill="#db8638"/><path d="m376.57217 232h-.00008a8.02618 8.02618 0 0 1 -7.91575-9.20959 63.39492 63.39492 0 0 1 6.09088-19.4298 8.02531 8.02531 0 0 1 11.76427-3.03 8.03671 8.03671 0 0 1 2.52958 10.22457 47.5253 47.5253 0 0 0 -4.54369 14.49884 8.03515 8.03515 0 0 1 -7.92521 6.94598z" fill="#02c26a"/><g fill="#3cde8d"><path d="m32 372.686h16v22.627h-16z" transform="matrix(.707 -.707 .707 .707 -259.813 140.755)"/><path d="m48 356.686h16v22.627h-16z" transform="matrix(.707 -.707 .707 .707 -243.813 147.383)"/><path d="m75.056 336h17.889v16h-17.889z" transform="matrix(.447 -.894 .894 .447 -261.245 265.272)"/><path d="m264 395.056h16v17.889h-16z" transform="matrix(.447 -.894 .894 .447 -210.991 466.61)"/><path d="m264 371.056h16v17.889h-16z" transform="matrix(.447 -.894 .894 .447 -189.524 453.343)"/><path d="m451.056 384h17.889v16h-17.889z" transform="matrix(.447 -.894 .894 .447 -96.347 628.098)"/><path d="m475.056 384h17.889v16h-17.889z" transform="matrix(.447 -.894 .894 .447 -83.081 649.564)"/></g><path d="m320 144a8.00008 8.00008 0 0 1 -8-8 14.17987 14.17987 0 0 0 -9.7085-13.46973l-.064-.02148a14.12955 14.12955 0 0 0 -10.874.75879l-7.77588 3.88769-7.15528-14.31054 7.77588-3.8877a30.00167 30.00167 0 0 1 23.05518-1.63769l.06347.0205a30.24341 30.24341 0 0 1 12.68067 8.17578 30.1642 30.1642 0 0 1 12.65137-8.165l.13232-.043a29.97249 29.97249 0 0 1 23.02051 1.64941l7.77588 3.8877-7.15528 14.31054-7.77588-3.88769a14.10874 14.10874 0 0 0 -10.83935-.77051l-.13281.044a14.17 14.17 0 0 0 -9.6743 13.45893 8.00008 8.00008 0 0 1 -8 8z" fill="#d1e4ff"/><path d="m392 168a8.00008 8.00008 0 0 1 -8-8 14.17987 14.17987 0 0 0 -9.7085-13.46973l-.064-.02148a14.13407 14.13407 0 0 0 -10.874.75879l-7.77588 3.88769-7.15528-14.31054 7.77588-3.8877a29.997 29.997 0 0 1 23.05518-1.63769l.06347.0205a30.24341 30.24341 0 0 1 12.68067 8.17578 30.1642 30.1642 0 0 1 12.65137-8.165l.13232-.043a29.97233 29.97233 0 0 1 23.02051 1.64941l7.77588 3.8877-7.15528 14.31054-7.77588-3.88769a14.1042 14.1042 0 0 0 -10.83935-.77051l-.13281.04395a14.17 14.17 0 0 0 -9.6743 13.45898 8.00008 8.00008 0 0 1 -8 8z" fill="#d1e4ff"/></svg>