<svg id="flat" height="512" viewBox="0 0 512 512" width="512" xmlns="http://www.w3.org/2000/svg"><path d="m232 216v8l-16 16h-8l-40-40 24-24z" fill="#8796c4"/><path d="m200 184v48l-32-32 24-24z" fill="#6d7eb3"/><path d="m152 192v56l8 8h16l8-8v-56z" fill="#8796c4"/><path d="m120 224 8 8h24l48-48v-24l-8-8z" fill="#a7b3d9"/><path d="m64 136h80l6.625 6.71-54.494 57.421-32.131-32.131z" fill="#56679c"/><path d="m41.308 247.25 102.692-111.25 48 16-150.692 162.284z" fill="#6d7eb3"/><path d="m24 272h48v168h-48z" fill="#6d7eb3"/><path d="m464 104v27.4707l-24 14.39942v-81.87012h-16v113.87036l-24-14.39966v-35.4707h-16v40a8.00091 8.00091 0 0 0 3.88428 6.86035l36.11572 21.66895v43.4707h16v-75.47l36.11621-21.66968a8.00153 8.00153 0 0 0 3.88379-6.86032v-32z" fill="#f7d179"/><path d="m464 200h16v64h-16z" fill="#f7d179"/><circle cx="56" cy="272" fill="#a7b3d9" r="32"/><circle cx="56" cy="272" fill="#8796c4" r="8"/><path d="m24 440h256v40h-256z" fill="#6d7eb3"/><path d="m72 368h144v24l-128 48h-16z" fill="#56679c"/><path d="m112 336h152v32h-152z" fill="#a7b3d9"/><path d="m24 136h40v32h-40z" fill="#8796c4"/><g fill="#5771e5"><path d="m432 320 56-32v-32l-88-45.714-24 13.714v64z"/><path d="m264 224v64l56 32 56-32v-64l-56-32z"/><path d="m376 416 56-32v-64l-56-32-56 32v64z"/></g><circle cx="392" cy="112" fill="#f7c04a" r="16"/><path d="m392 136a24 24 0 1 1 24-24 24.02718 24.02718 0 0 1 -24 24zm0-32a8 8 0 1 0 8 8 8.00917 8.00917 0 0 0 -8-8z" fill="#fcedc0"/><circle cx="472" cy="88" fill="#f7c04a" r="16"/><path d="m472 112a24 24 0 1 1 24-24 24.02718 24.02718 0 0 1 -24 24zm0-32a8 8 0 1 0 8 8 8.00917 8.00917 0 0 0 -8-8z" fill="#fcedc0"/><circle cx="472" cy="184" fill="#f7c04a" r="16"/><path d="m472 208a24 24 0 1 1 24-24 24.02718 24.02718 0 0 1 -24 24zm0-32a8 8 0 1 0 8 8 8.00917 8.00917 0 0 0 -8-8z" fill="#fcedc0"/><circle cx="432" cy="48" fill="#f7c04a" r="16"/><path d="m432 72a24 24 0 1 1 24-24 24.02718 24.02718 0 0 1 -24 24zm0-32a8 8 0 1 0 8 8 8.00917 8.00917 0 0 0 -8-8z" fill="#fcedc0"/><path d="m384 283.35693v-51.35693a8 8 0 0 0 -8-8 8 8 0 0 0 -8 8v51.35694l-45.02336 25.7277a8 8 0 0 0 -2.97686 10.915l.00034.00059a8 8 0 0 0 10.91513 2.97685l45.08475-25.76321 45.08475 25.76319a8 8 0 0 0 10.91513-2.97685l.00034-.00059a8 8 0 0 0 -2.97686-10.915z" fill="#4356e6"/><path d="m24 424h48v16h-48z" fill="#56679c"/></svg>