<svg id="Layer_1" enable-background="new 0 0 512.867 512.867" height="512" viewBox="0 0 512.867 512.867" width="512" xmlns="http://www.w3.org/2000/svg"><g><g><path d="m178.109 279.527c-7.901-.872-13.724-7.846-13.724-15.794v-67.549c0-7.949 5.823-14.923 13.724-15.794 9.341-1.031 17.246 6.255 17.246 15.388v68.362c0 9.131-7.905 16.417-17.246 15.387z" fill="#ff7038"/></g><g><path d="m254.796 279.527c-7.901-.872-13.724-7.846-13.724-15.794v-67.533c0-7.949 5.823-14.923 13.724-15.794 9.341-1.031 17.246 6.255 17.246 15.388v68.347c0 9.13-7.905 16.416-17.246 15.386z" fill="#ff7038"/></g><g><path d="m331.528 279.527c-7.901-.872-13.724-7.846-13.724-15.794v-67.548c0-7.949 5.823-14.923 13.724-15.794 9.341-1.031 17.246 6.255 17.246 15.388v68.361c.001 9.131-7.905 16.417-17.246 15.387z" fill="#b95e1a"/></g><path d="m256.594 180.311v99.313c8.535-.02 15.448-6.944 15.448-15.483v-68.347c0-8.539-6.913-15.462-15.448-15.483z" fill="#b95e1a"/><g><path d="m94.669 279.527c-7.901-.872-13.724-7.846-13.724-15.794v-52.002c0-7.949 5.823-14.923 13.724-15.794 9.341-1.031 17.246 6.255 17.246 15.388v52.815c0 9.131-7.906 16.417-17.246 15.387z" fill="#9bda05"/></g><g><path d="m416.715 279.527c-7.901-.872-13.724-7.846-13.724-15.794v-24.95c0-7.949 5.823-14.923 13.724-15.794 9.341-1.031 17.246 6.255 17.246 15.388v25.764c0 9.13-7.905 16.416-17.246 15.386z" fill="#00a763"/></g><path d="m22.641 264.141c-8.297 0-14.902 6.987-14.403 15.269 7.852 130.251 115.971 233.457 248.195 233.457s240.344-103.207 248.195-233.457c.499-8.282-6.106-15.269-14.403-15.269z" fill="#98f9ff"/><path d="m256.594 264.143v248.724c132.151-.084 240.186-103.258 248.035-233.456.499-8.282-6.106-15.269-14.403-15.269h-233.632z" fill="#7dd5f4"/><path d="m179.87 211.835c-22.552 0-40.833-18.282-40.833-40.833v-72.838c0-22.551 18.282-40.833 40.833-40.833 22.551 0 40.833 18.282 40.833 40.833v72.837c0 22.552-18.281 40.834-40.833 40.834z" fill="#bee75e"/><path d="m333.29 211.835c-22.552 0-40.833-18.282-40.833-40.833v-72.838c0-22.551 18.282-40.833 40.833-40.833 22.551 0 40.833 18.282 40.833 40.833v72.837c0 22.552-18.282 40.834-40.833 40.834z" fill="#9bda05"/><path d="m256.557 211.835c-30.92 0-55.985-25.065-55.985-55.985v-99.865c0-30.92 25.066-55.985 55.985-55.985 30.92 0 55.985 25.065 55.985 55.985v99.865c0 30.919-25.065 55.985-55.985 55.985z" fill="#9bda05"/><path d="m259.708 0h-3.113v211.835h3.113c29.18 0 52.834-23.655 52.834-52.834v-106.167c0-29.179-23.655-52.834-52.834-52.834z" fill="#00a763"/><g><g><g><path d="m490.232 264.143h-119.507c-.002.049-2.829 90.216 105.75 115.941 16.043-30.403 25.981-64.526 28.157-100.745.497-8.254-6.132-15.196-14.4-15.196z" fill="#00cb75"/></g></g></g><g><path d="m219.339 451.117c37.477 0 67.857-30.381 67.857-67.857 0-37.476-30.381-67.857-67.857-67.857h-6.851c-7.827 0-13.855-6.871-12.864-14.635.216-1.694.346-3.461.387-5.342 0 0 1.211-31.281-34.417-31.285h-142.958c-8.272 0-14.898 6.948-14.402 15.205 4.084 68.022 35.525 128.663 83.457 171.097l1.345.675h126.303z" fill="#bee75e"/></g><path d="m256.594 326.571v113.414c18.429-12.132 30.602-32.993 30.602-56.707 0-23.714-12.173-44.575-30.602-56.707z" fill="#00cb75"/></g></svg>