<svg height="496pt" viewBox="0 0 495 496" width="496pt" xmlns="http://www.w3.org/2000/svg"><path d="m384.484375 48c0-22.089844-21.488281-40-48-40-26.507813 0-48 17.910156-48 40s21.492187 40 48 40c26.511719 0 48-17.910156 48-40zm0 0" fill="#ef7385"/><path d="m464.484375 448c0-22.089844-21.488281-40-48-40-26.507813 0-48 17.910156-48 40s21.492187 40 48 40c26.511719 0 48-17.910156 48-40zm0 0" fill="#ef7385"/><path d="m192.484375 328c44.160156 0 80 35.839844 80 80s-35.839844 80-80 80-80-35.839844-80-80c0-23.601562 10.160156-44.71875 26.398437-59.359375v-.082031c14.160157-3.679688 27.121094-10.238282 38.160157-19.117188 5.042969-.960937 10.160156-1.441406 15.441406-1.441406zm0 0" fill="#5cd6b3"/><path d="m240.484375 408c0 26.507812-21.488281 48-48 48-26.507813 0-48-21.492188-48-48s21.492187-48 48-48c26.511719 0 48 21.492188 48 48zm0 0" fill="#ffeaa7"/><path d="m264.484375 104c0 40.320312-24.800781 74.800781-60 89.039062-4.480469-3.359374-8.558594-7.277343-12.160156-11.597656-4.320313-5.203125-9.121094-9.921875-14.320313-14.160156 30.800782-4.5625 54.480469-31.121094 54.480469-63.28125 0-35.359375-28.640625-64-64-64s-64 28.640625-64 64c0 15.199219 5.28125 29.199219 14.160156 40.160156-6.960937-.398437-14.160156-.082031-21.441406.960938-4.796875.640625-9.4375 1.679687-14 3.039062-6.878906-13.199218-10.71875-28.238281-10.71875-44.160156 0-53.039062 42.960937-96 96-96s96 42.960938 96 96zm0 0" fill="#5cd6b3"/><path d="m232.484375 104c0 32.160156-23.679687 58.71875-54.480469 63.28125-16.398437-13.359375-36.960937-21.761719-59.359375-23.121094-8.878906-10.960937-14.160156-24.960937-14.160156-40.160156 0-35.359375 28.640625-64 64-64s64 28.640625 64 64zm0 0" fill="#ffeaa7"/><path d="m177.042969 329.441406c-11.039063 8.878906-24 15.4375-38.160157 19.117188-8.398437 2.242187-17.277343 3.441406-26.398437 3.441406-61.359375 0-110.320313-53.121094-103.359375-115.839844 4.558594-41.601562 34.640625-76.480468 74.078125-88 4.5625-1.359375 9.203125-2.398437 14-3.039062 7.28125-1.042969 14.480469-1.359375 21.441406-.960938 22.398438 1.359375 42.960938 9.761719 59.359375 23.121094 5.199219 4.238281 10 8.957031 14.320313 14.160156 3.601562 4.320313 7.679687 8.238282 12.160156 11.597656 4 3.121094 8.398437 5.761719 12.960937 7.921876 9.597657 4.558593 20.160157 7.039062 31.039063 7.039062 21.761719 0 42.238281-9.921875 56.160156-26.558594 22-26.480468 56.960938-41.761718 95.121094-36.320312 46.160156 6.558594 82.957031 44.640625 88.078125 91.039062 6.960938 62.71875-42 115.839844-103.359375 115.839844-32.078125 0-60.71875-14.480469-79.761719-37.359375-6.957031-8.402344-15.597656-15.039063-25.199218-19.601563-9.597657-4.558593-20.160157-7.039062-31.039063-7.039062-21.761719 0-42.238281 9.921875-56.238281 26.640625-4.5625 5.4375-9.601563 10.398437-15.203125 14.800781zm0 0" fill="#ef7385"/><path d="m456.484375 248c0 39.765625-32.234375 72-72 72s-72-32.234375-72-72 32.234375-72 72-72 72 32.234375 72 72zm0 0" fill="#ffeaa7"/><path d="m184.484375 248c0 39.765625-32.234375 72-72 72s-72-32.234375-72-72 32.234375-72 72-72 72 32.234375 72 72zm0 0" fill="#ffeaa7"/><path d="m467.957031 322.679688c21.207031-23.6875 31.351563-55.558594 27.824219-87.433594-5.511719-49.78125-45.417969-91.023438-94.871094-98.070313-39.027344-5.527343-77.335937 9.054688-102.425781 39.105469-12.574219 15.070312-30.808594 23.71875-50 23.71875-9.601563 0-18.960937-2.160156-27.488281-6.207031 31.6875-18.457031 51.488281-52.273438 51.488281-89.792969 0-57.34375-46.65625-104-104-104s-104 46.65625-104 104c0 13.558594 2.800781 26.992188 7.914063 39.464844-38.042969 14.75-66.609376 50.253906-71.210938 91.773437-3.527344 31.875 6.617188 63.753907 27.824219 87.441407 21.242187 23.71875 51.65625 37.320312 83.472656 37.320312 2.230469 0 4.425781-.230469 6.632813-.367188-9.382813 14.253907-14.632813 31.03125-14.632813 48.367188 0 48.519531 39.480469 88 88 88s88-39.480469 88-88c0-46.671875-36.542969-84.863281-82.511719-87.71875.144532-.167969.304688-.3125.449219-.480469 12.636719-15.128906 30.886719-23.800781 50.0625-23.800781s37.425781 8.671875 50.0625 23.800781c21.355469 25.542969 52.679687 40.199219 85.9375 40.199219 31.816406 0 62.230469-13.601562 83.472656-37.320312zm-387.472656-218.679688c0-48.519531 39.480469-88 88-88s88 39.480469 88 88c0 34.457031-19.75 65.199219-50.679687 79.664062-2.585938-2.273437-5.070313-4.6875-7.320313-7.382812-1.449219-1.738281-2.945313-3.402344-4.480469-5.035156 27.304688-10.445313 46.480469-37.078125 46.480469-67.246094 0-39.695312-32.304687-72-72-72s-72 32.304688-72 72c0 11.273438 2.734375 22.351562 7.742187 32.328125-2.710937.191406-5.4375.457031-8.15625.839844-2.808593.398437-5.570312.945312-8.304687 1.558593-4.738281-10.949218-7.28125-22.574218-7.28125-34.726562zm42.65625 32.574219c-6.878906-9.535157-10.65625-20.679688-10.65625-32.574219 0-30.878906 25.121094-56 56-56s56 25.121094 56 56c0 26.414062-18.878906 49.351562-44.414063 54.742188-16.539062-12.550782-36.167968-20.199219-56.929687-22.167969zm141.34375 271.425781c0 39.703125-32.304687 72-72 72s-72-32.296875-72-72c0-19.871094 8.3125-38.878906 22.785156-52.464844 13.359375-3.824218 25.941407-9.96875 37.03125-18.421875 4.015625-.6875 8.097657-1.113281 12.183594-1.113281 39.695313 0 72 32.296875 72 72zm46.335937-98.472656c-15.679687-18.757813-38.40625-29.527344-62.335937-29.527344s-46.65625 10.769531-62.335937 29.527344c-18.3125 21.914062-45.160157 34.472656-73.664063 34.472656-27.265625 0-53.34375-11.65625-71.542969-31.992188-18.449218-20.601562-26.921875-47.238281-23.839844-75 4.71875-42.640624 38.878907-77.960937 81.222657-83.992187 33.496093-4.808594 66.375 7.746094 87.871093 33.511719 15.632813 18.730468 38.328126 29.472656 62.289063 29.472656 23.953125 0 46.65625-10.742188 62.28125-29.472656 21.503906-25.757813 54.367187-38.3125 87.878906-33.511719 42.34375 6.03125 76.503907 41.351563 81.222657 83.992187 3.082031 27.761719-5.390626 54.398438-23.839844 75-18.199219 20.335938-44.277344 31.992188-71.542969 31.992188-28.503906 0-55.351563-12.558594-73.664063-34.472656zm0 0"/><path d="m464.484375 248c0-44.113281-35.886719-80-80-80-43.664063 0-79.207031 35.175781-79.9375 78.664062-3.148437-1.136718-5.6875-2.878906-8.605469-5.070312-5.703125-4.273438-12.808594-9.601562-26.136718-9.601562-13.335938 0-20.433594 5.328124-26.144532 9.601562-4.953125 3.710938-8.535156 6.398438-16.535156 6.398438s-11.570312-2.679688-16.519531-6.398438c-4.6875-3.523438-10.386719-7.699219-19.65625-9.089844-7.234375-36.710937-39.648438-64.503906-78.464844-64.503906-44.113281 0-80 35.886719-80 80s35.886719 80 80 80c43.664063 0 79.207031-35.175781 79.9375-78.664062 3.144531 1.136718 5.671875 2.878906 8.589844 5.0625 5.695312 4.28125 12.800781 9.601562 26.128906 9.601562 13.335937 0 20.433594-5.320312 26.136719-9.601562 4.949218-3.71875 8.535156-6.398438 16.535156-6.398438s11.585938 2.679688 16.535156 6.398438c4.695313 3.523437 10.394532 7.707031 19.671875 9.089843 7.234375 36.71875 39.648438 64.511719 78.464844 64.511719 44.113281 0 80-35.886719 80-80zm-352 64c-35.289063 0-64-28.710938-64-64s28.710937-64 64-64 64 28.710938 64 64-28.710937 64-64 64zm208-64c0-35.289062 28.710937-64 64-64s64 28.710938 64 64-28.710937 64-64 64-64-28.710938-64-64zm0 0"/><path d="m136.484375 408c0 30.871094 25.121094 56 56 56s56-25.128906 56-56-25.121094-56-56-56-56 25.128906-56 56zm96 0c0 22.054688-17.945313 40-40 40s-40-17.945312-40-40 17.945313-40 40-40 40 17.945312 40 40zm0 0"/><path d="m416.484375 400c-30.878906 0-56 21.527344-56 48s25.121094 48 56 48 56-21.527344 56-48-25.121094-48-56-48zm0 80c-22.054687 0-40-14.351562-40-32s17.945313-32 40-32 40 14.351562 40 32-17.945313 32-40 32zm0 0"/><path d="m408.484375 432h16v16h-16zm0 0"/><path d="m336.484375 96c30.878906 0 56-21.527344 56-48s-25.121094-48-56-48-56 21.527344-56 48 25.121094 48 56 48zm0-80c22.054687 0 40 14.351562 40 32s-17.945313 32-40 32-40-14.351562-40-32 17.945313-32 40-32zm0 0"/><path d="m328.484375 32h16v16h-16zm0 0"/><path d="m368.484375 200c0 17.191406-6.601563 25.449219-14.246094 35-8.320312 10.398438-17.753906 22.191406-17.753906 45h16c0-17.191406 6.601563-25.449219 14.25-35 8.316406-10.398438 17.75-22.191406 17.75-45zm0 0"/><path d="m406.734375 261c8.316406-10.398438 17.75-22.191406 17.75-45h-16c0 17.191406-6.601563 25.449219-14.246094 35-8.320312 10.40625-17.753906 22.191406-17.753906 45h16c0-17.191406 6.601563-25.449219 14.25-35zm0 0"/><path d="m120.484375 200h-16c0 22.808594 9.433594 34.601562 17.753906 45 7.644531 9.550781 14.246094 17.808594 14.246094 35h16c0-22.808594-9.433594-34.601562-17.75-45-7.648437-9.550781-14.25-17.808594-14.25-35zm0 0"/><path d="m80.484375 216h-16c0 22.808594 9.433594 34.601562 17.753906 45 7.644531 9.550781 14.246094 17.808594 14.246094 35h16c0-22.808594-9.433594-34.59375-17.75-45-7.648437-9.550781-14.25-17.808594-14.25-35zm0 0"/><path d="m192.484375 104h16c0-22.054688-17.945313-40-40-40v16c13.230469 0 24 10.769531 24 24zm0 0"/></svg>