<svg id="Capa_1" enable-background="new 0 0 511.94 511.94" height="512" viewBox="0 0 511.94 511.94" width="512" xmlns="http://www.w3.org/2000/svg"><g><g><g clip-rule="evenodd" fill-rule="evenodd"><path d="m240.502 279.721c0 35.534-25.18 66.864-60.864 73.67 41.593 41.521 100.849 51.209 100.982 69.089.203-27.552 140.818-35.62 140.818-170.759 0-81.913-80.024-143.458-140.819-237.869-36.568 56.789-80.086 101.687-108.966 146.279 27.216 3.669 45.186 31.348 36.787 58.09 20.151 14.096 32.062 36.969 32.062 61.5z" fill="#00cdab"/><path d="m240.502 279.721c0 35.534-25.185 66.859-60.869 73.665 34.296 37.106 101.661 51.298 100.987 69.094.035-4.765 4.273-8.947 11.253-13.304-16.768-10.473-49.387-21.961-77.701-44.969 29.18-16.847 48.83-48.369 48.83-84.485 0-26.86-11.033-52.253-30.139-70.501 1.614-24.662-10.75-47.923-30.655-61.025 25.37-36.242 59.081-73.364 89.661-117.521-3.806-5.495-7.564-11.097-11.25-16.822-33.413 51.888-75.915 95.255-108.966 146.279 27.216 3.669 45.186 31.348 36.787 58.09 20.151 14.095 32.062 36.968 32.062 61.499z" fill="#00aa7c"/><path d="m165.502 320.971c-12.426 0-22.5-10.074-22.5-22.5s10.074-22.5 22.5-22.5v-33.75h-39.33c6.35 14.662-4.349 31.434-20.657 31.434-5.383 0-10.324-1.89-14.196-5.043-.538 3.625-.817 7.335-.817 11.109 0 41.422 33.578 75 75 75z" fill="#f96491"/><path d="m113.373 272.263c-7.428 2.757-15.897 1.362-22.053-3.651-.538 3.625-.817 7.335-.817 11.109 0 41.422 33.578 75 75 75-39.635-5.394-55.043-53.181-52.13-82.458z" fill="#f93a79"/><circle cx="165.502" cy="298.471" fill="#e5ecf5" r="22.5"/><path d="m204.832 242.221c-6.35 14.662 4.349 31.434 20.657 31.434 5.381 0 10.32-1.889 14.192-5.039-1.376-9.233-4.515-18.321-9.215-26.394h-25.634z" fill="#e5ecf5"/><path d="m225.489 273.655c-16.308 0-27.007-16.771-20.657-31.434h-39.33v33.75c12.426 0 22.5 10.074 22.5 22.5s-10.074 22.5-22.5 22.5v33.75c41.448 0 75-33.657 75-75 0-3.749-.278-7.46-.821-11.106-3.872 3.151-8.812 5.04-14.192 5.04z" fill="#f96491"/><path d="m230.467 242.22c-13.399-23.162-38.067-37.498-64.966-37.498-26.865 0-51.544 14.297-64.965 37.498z" fill="#e5ecf5"/><path d="m165.502 204.722c15.97 0 30.775 4.992 42.938 13.5 9.106-28.994-12.758-58.5-42.938-58.5-30.58 0-51.955 29.79-42.938 58.5 12.163-8.509 26.967-13.5 42.938-13.5z" fill="#ffc06e"/><path d="m100.538 242.221h22.531c11.132-19.238 30.58-33.19 53.66-36.659-30.476-4.596-60.703 9.873-76.191 36.659z" fill="#b0c5e0"/><path d="m122.564 218.221c6.225-4.354 13.141-7.787 20.552-10.101-1.641-21.523 12.588-41.598 33.603-46.986-33.604-8.644-64.734 23.406-54.155 57.087z" fill="#ff8853"/><path d="m126.172 242.221c6.35 14.662-4.349 31.434-20.657 31.434-5.381 0-10.32-1.889-14.192-5.039 1.376-9.233 4.515-18.321 9.215-26.394h25.634z" fill="#e5ecf5"/></g><g><path d="m338.836 153.604-9.305-11.766 11.766-9.304 9.305 11.766zm-18.609-23.532-9.304-11.766 11.766-9.304 9.304 11.766z" fill="#fff"/></g></g><g><path d="m347.643 91.638c-20.365-25.506-41.424-51.882-60.718-81.845l-6.306-9.793-6.306 9.792c-19.293 29.961-40.348 56.335-60.71 81.841-16.718 20.942-32.563 40.792-45.772 60.655-.774-.033-1.548-.067-2.329-.067-11.29 0-21.913 3.51-30.705 9.898l-10.5-13.497-11.84 9.21 11.536 14.829c-.251.326-.513.639-.757.972-8.96 12.206-12.174 27.128-9.159 41.648-18.921 15.13-31.074 38.386-31.074 64.441 0 18.997 6.616 37.542 18.631 52.22l11.607-9.501c-9.727-11.883-15.12-26.87-15.228-42.247 2.438.631 4.959.962 7.502.962 10.12 0 19.481-5.053 25.039-13.518 3.555-5.412 5.217-11.681 4.925-17.916h22.523v19.699c-12.925 3.339-22.5 15.098-22.5 29.051s9.575 25.712 22.5 29.051v19.264c-12.866-1.446-25.156-6.566-35.221-14.804l-9.5 11.607c14.68 12.015 33.226 18.632 52.221 18.632 3.95 0 7.83-.297 11.634-.836 22.023 20.912 48.326 33.85 67.755 43.385 9.139 4.485 17.03 8.358 22.355 11.965 5.806 3.932 5.873 5.787 5.873 5.805v21.9h15v-21.9c0-.018.067-1.872 5.871-5.801 5.324-3.605 13.216-7.476 22.354-11.958 42.111-20.657 112.594-55.231 112.594-153.059 0-58.265-37.673-105.45-81.295-160.085zm-212.316 90.871c7.132-9.715 18.13-15.288 30.175-15.288 12.044 0 23.042 5.572 30.173 15.288 5.174 7.049 7.664 15.358 7.306 23.754-11.255-5.766-23.988-9.042-37.479-9.042s-26.224 3.276-37.479 9.042c-.359-8.395 2.131-16.705 7.304-23.754zm75.228 67.212h15.39c2.385 4.786 4.214 9.893 5.411 15.238-1.833.781-3.81 1.196-5.868 1.196-5.127 0-9.684-2.461-12.501-6.751-1.918-2.923-2.745-6.336-2.432-9.683zm-95.31-15c12.368-13.798 30.313-22.5 50.257-22.5s37.889 8.701 50.257 22.5zm2.771 24.682c-2.817 4.291-7.374 6.751-12.501 6.751-2.057 0-4.034-.414-5.867-1.195 1.198-5.345 3.026-10.452 5.412-15.238h15.389c.313 3.347-.513 6.76-2.433 9.682zm77.509-9.682c-.292 6.235 1.369 12.503 4.923 17.916 5.559 8.464 14.919 13.518 25.04 13.518 2.543 0 5.064-.331 7.502-.961-.238 34.47-26.44 62.874-59.988 66.601v-19.273c12.925-3.339 22.5-15.098 22.5-29.051s-9.575-25.712-22.5-29.051v-19.699zm-45.023 48.75c0-8.271 6.729-15 15-15s15 6.729 15 15-6.729 15-15 15-15-6.729-15-15zm100.997 92.834c-17.318-8.499-38.225-18.784-56.877-34.407 19.432-7.356 35.372-21.847 44.628-40.263l33.869 24.544v61.527c-5.936-3.701-13.326-7.331-21.62-11.401zm58.239.009c-8.293 4.068-15.682 7.696-21.618 11.396v-136.36l74.829-50.271-8.365-12.451-66.464 44.651v-136.927h-15v58.44l-27.431-26.258-10.373 10.836 37.804 36.187v132.098l-28.25-20.473c2.025-7.146 3.133-14.674 3.133-22.46 0-26.055-12.154-49.311-31.075-64.441 3.014-14.52-.2-29.441-9.159-41.647-.244-.333-.506-.646-.757-.971l11.536-14.829-11.84-9.211-10.501 13.498c-3.824-2.778-7.987-5.021-12.41-6.655 12.155-17.67 26.481-35.622 41.53-54.473 18.417-23.07 37.394-46.84 55.293-73.493 17.901 26.655 36.881 50.427 55.302 73.498 41.862 52.432 78.017 97.714 78.017 150.725-.001 88.477-62.707 119.236-104.201 139.591z"/><path d="m273.119 489.44h15v22.5h-15z"/><path d="m273.119 459.44h15v15h-15z"/></g></g></svg>