<svg height="496pt" viewBox="0 -1 496 496" width="496pt" xmlns="http://www.w3.org/2000/svg"><path d="m72 445.769531v16h-64v-32h64zm0 0" fill="#e6e9ed"/><path d="m301.601562 365.769531c-5.363281 18.078125-19.601562 32.320313-37.601562 37.679688v82.320312h-32v-82.320312c-18-5.359375-32.238281-19.601563-37.601562-37.679688-1.4375-4.722656-2.320313-9.679687-2.398438-14.882812 14.398438 14.160156 34.160156 22.882812 56 22.882812s41.601562-8.722656 56-22.882812c-.078125 5.203125-.960938 10.160156-2.398438 14.882812zm0 0" fill="#a0d468"/><path d="m448 117.769531c-5.359375 31.917969-8 64.238281-8 96.636719v20.960938c0 13.761718-2.160156 27.359374-6.398438 40.320312-4.160156 12.960938-10.402343 25.28125-18.5625 36.402344-24.558593 33.679687-63.757812 53.679687-105.4375 53.679687h-8c1.4375-4.722656 2.320313-9.679687 2.398438-14.882812l.558594-.558594c9.042968-9.039063 15.921875-20.238281 19.839844-32.800781l3.601562.242187h4.71875c11.203125 0 22.082031-2.480469 31.921875-7.121093 9.917969-4.558594 18.71875-11.359376 25.917969-19.921876 11.28125-13.519531 17.441406-30.558593 17.441406-48.238281 0-29.679687-3.679688-59.28125-10.878906-88.160156l-1.921875-7.601563c14.800781-14.078124 32.960937-24.078124 52.800781-28.957031zm0 0" fill="#ef7385"/><path d="m151.199219 360.808594c-27.917969-7.761719-52.800781-24.800782-70.238281-48.71875-8.160157-11.121094-14.402344-23.441406-18.5625-36.402344-4.238282-12.960938-6.398438-26.558594-6.398438-40.320312v-20.960938c0-32.398438-2.640625-64.71875-8-96.636719 19.839844 4.878907 38 14.878907 52.800781 28.957031l-1.921875 7.601563c-7.199218 28.878906-10.878906 58.480469-10.878906 88.160156 0 17.679688 6.160156 34.71875 17.441406 48.238281 7.199219 8.5625 16 15.363282 25.917969 19.921876 9.839844 4.640624 20.71875 7.121093 31.921875 7.121093h4.71875l4.878906 3.519531c4.082032 11.277344 10.722656 21.359376 19.121094 29.597657.078125 5.203125.960938 10.160156 2.398438 14.882812h-8c-12 0-23.839844-1.679687-35.199219-4.960937zm0 0" fill="#ef7385"/><path d="m286.160156 67.207031c5.519532 7.761719 10.558594 15.839844 15.039063 24.160157-7.199219 5.28125-14 11.199218-20.398438 17.601562l-16.800781 16.800781-3.039062 2.160157-12.960938-18.160157-12.960938 18.160157-3.039062-2.160157-16.800781-16.800781c-6.398438-6.402344-13.199219-12.320312-20.398438-17.601562 4.480469-8.398438 9.519531-16.398438 15.039063-24.160157l38.160156-53.4375zm0 0" fill="#da4453"/><path d="m184 210.566406c-1.921875 4.800782-3.679688 9.679688-5.28125 14.640625-7.039062 22-10.71875 45.199219-10.71875 68.5625 0 9.679688 1.679688 18.957031 4.878906 27.519531l-4.878906-3.519531h-4.71875c-11.203125 0-22.082031-2.480469-31.921875-7.121093-9.917969-4.558594-18.71875-11.359376-25.917969-19.921876-11.28125-13.519531-17.441406-30.558593-17.441406-48.238281 0-29.679687 3.679688-59.28125 10.878906-88.160156l1.921875-7.601563.238281-1.039062c1.921876-7.917969 2.960938-16.078125 2.960938-24.238281 0-18.082031-4.960938-35.921875-14.238281-51.441407l-9.761719-16.238281h2c17.679688 0 35.121094 2.476563 51.921875 7.277344 16.796875 4.882813 32.957031 12 47.917969 21.359375 4.480468 2.800781 8.800781 5.761719 12.960937 8.960938 7.199219 5.28125 14 11.199218 20.398438 17.601562l16.800781 16.800781 3.039062 2.160157-25.199218 35.277343c-10.558594 14.800781-19.199219 30.722657-25.839844 47.359375zm0 0" fill="#ef7385"/><path d="m395.199219 146.726562 1.921875 7.601563c7.199218 28.878906 10.878906 58.480469 10.878906 88.160156 0 17.679688-6.160156 34.71875-17.441406 48.238281-7.199219 8.5625-16 15.363282-25.917969 19.921876-9.839844 4.640624-20.71875 7.121093-31.921875 7.121093h-4.71875l-3.601562-.242187c2.320312-7.519532 3.601562-15.4375 3.601562-23.757813 0-28.640625-5.519531-56.882812-16-83.203125-6.640625-16.636718-15.28125-32.558594-25.839844-47.359375l-25.199218-35.277343 3.039062-2.160157 16.800781-16.800781c6.398438-6.402344 13.199219-12.320312 20.398438-17.601562 4.160156-3.199219 8.480469-6.160157 12.960937-8.960938 14.960938-9.359375 31.121094-16.476562 47.917969-21.359375 16.800781-4.800781 34.242187-7.277344 51.921875-7.277344h2l-9.761719 16.238281c-9.277343 15.519532-14.238281 33.359376-14.238281 51.441407 0 8.160156 1.039062 16.320312 2.960938 24.238281zm0 0" fill="#ef7385"/><path d="m312 210.566406c10.480469 26.320313 16 54.5625 16 83.203125 0 8.320313-1.28125 16.238281-3.601562 23.757813-3.917969 12.5625-10.796876 23.761718-19.839844 32.800781-.160156.160156-.398438.398437-.558594.558594-14.398438 14.160156-34.160156 22.882812-56 22.882812s-41.601562-8.722656-56-22.882812c-8.398438-8.238281-15.039062-18.320313-19.121094-29.597657-3.199218-8.5625-4.878906-17.839843-4.878906-27.519531 0-23.363281 3.679688-46.5625 10.71875-68.5625 1.601562-4.960937 3.359375-9.839843 5.28125-14.640625 6.640625-16.636718 15.28125-32.558594 25.839844-47.359375l25.199218-35.277343 12.960938-18.160157 12.960938 18.160157 25.199218 35.277343c10.558594 14.800781 19.199219 30.722657 25.839844 47.359375zm0 0" fill="#ef7385"/><g fill="#ffc729"><path d="m184 133.769531c0 8.835938-7.164062 16-16 16s-16-7.164062-16-16c0-8.839843 7.164062-16 16-16s16 7.160157 16 16zm0 0"/><path d="m344 133.769531c0 8.835938-7.164062 16-16 16s-16-7.164062-16-16c0-8.839843 7.164062-16 16-16s16 7.160157 16 16zm0 0"/><path d="m280 245.769531c0 8.835938-7.164062 16-16 16s-16-7.164062-16-16c0-8.839843 7.164062-16 16-16s16 7.160157 16 16zm0 0"/><path d="m280 277.769531c0 8.835938-7.164062 16-16 16s-16-7.164062-16-16c0-8.839843 7.164062-16 16-16s16 7.160157 16 16zm0 0"/><path d="m248 229.769531c0 8.835938-7.164062 16-16 16s-16-7.164062-16-16c0-8.839843 7.164062-16 16-16s16 7.160157 16 16zm0 0"/><path d="m248 261.769531c0 8.835938-7.164062 16-16 16s-16-7.164062-16-16c0-8.839843 7.164062-16 16-16s16 7.160157 16 16zm0 0"/><path d="m248 293.769531c0 8.835938-7.164062 16-16 16s-16-7.164062-16-16c0-8.839843 7.164062-16 16-16s16 7.160157 16 16zm0 0"/></g><path d="m255.070312 300.007812c2.769532 1.113282 5.769532 1.761719 8.929688 1.761719 13.230469 0 24-10.769531 24-24 0-6.167969-2.40625-11.746093-6.238281-16 3.839843-4.257812 6.238281-9.832031 6.238281-16 0-13.234375-10.769531-24-24-24-3.160156 0-6.160156.644531-8.929688 1.757813-2.757812-10.199219-12.007812-17.757813-23.070312-17.757813-13.230469 0-24 10.765625-24 24 0 6.167969 2.40625 11.742188 6.238281 16-3.839843 4.253907-6.238281 9.832031-6.238281 16s2.40625 11.742188 6.238281 16c-3.839843 4.253907-6.238281 9.832031-6.238281 16 0 13.230469 10.769531 24 24 24 11.0625 0 20.3125-7.5625 23.070312-17.761719zm-31.070312-38.238281c0-4.417969 3.585938-8 8-8s8 3.582031 8 8c0 4.414063-3.585938 8-8 8s-8-3.585937-8-8zm40 24c-4.414062 0-8-3.585937-8-8 0-4.417969 3.585938-8 8-8s8 3.582031 8 8c0 4.414063-3.585938 8-8 8zm0-48c4.414062 0 8 3.582031 8 8 0 4.414063-3.585938 8-8 8s-8-3.585937-8-8c0-4.417969 3.585938-8 8-8zm-32-16c4.414062 0 8 3.582031 8 8 0 4.414063-3.585938 8-8 8s-8-3.585937-8-8c0-4.417969 3.585938-8 8-8zm0 80c-4.414062 0-8-3.585937-8-8 0-4.417969 3.585938-8 8-8s8 3.582031 8 8c0 4.414063-3.585938 8-8 8zm0 0"/><path d="m421.488281 316.824219c8.617188-11.726563 15.253907-24.746094 19.71875-38.640625 4.503907-13.785156 6.792969-28.183594 6.792969-42.816406v-20.960938c0-32.0625 2.65625-64.132812 7.886719-95.308594l2.015625-12-11.824219 2.902344c-16.550781 4.070312-32.085937 11.585938-45.453125 21.6875-.378906-3.429688-.625-6.855469-.625-10.238281 0-16.625 4.527344-32.992188 13.105469-47.320313l17.039062-28.359375h-16.144531c-18.296875 0-36.503906 2.550781-54.152344 7.597657-17.769531 5.160156-34.566406 12.640624-49.9375 22.257812-2.175781 1.359375-4.230468 2.71875-6.230468 4.085938-3.441407-5.824219-7.054688-11.589844-11.015626-17.160157l-44.664062-62.550781-44.671875 62.566406c-4.105469 5.769532-7.664063 11.441406-11.023437 17.144532-2.007813-1.367188-4.046876-2.726563-6.214844-4.078126-15.371094-9.617187-32.167969-17.105468-49.96875-22.273437-17.617188-5.039063-35.824219-7.589844-54.121094-7.589844h-16.144531l17.03125 28.351563c8.585937 14.335937 13.113281 30.703125 13.113281 47.328125 0 3.382812-.246094 6.816406-.632812 10.261719-13.527344-10.214844-29-17.65625-45.445313-21.710938l-11.824219-2.902344 2.015625 12c5.230469 31.175782 7.886719 63.246094 7.886719 95.308594v20.960938c0 14.632812 2.289062 29.03125 6.785156 42.769531 4.480469 13.941406 11.117188 26.960937 19.71875 38.664062 16.433594 22.558594 39.550782 39.605469 65.671875 48.832031l-33.296875 72.136719h-26.878906v-16h-80v48h80v-16h37.121094l38.582031-83.59375c10.023437 2.34375 20.3125 3.59375 30.695313 3.59375h2.386718c6.480469 16.125 19.117188 28.855469 35.214844 35.351563v84.648437h48v-84.648437c16.113281-6.503906 28.753906-19.25 35.222656-35.351563h2.378906c44.054688 0 85.894532-21.296875 111.886719-56.945312zm-357.488281 136.945312h-48v-16h48zm133.601562-108.59375c-7.679687-7.527343-13.625-16.726562-17.226562-26.6875-2.902344-7.761719-4.375-16.082031-4.375-24.71875 0-22.441406 3.480469-44.691406 10.328125-66.105469 1.542969-4.792968 3.238281-9.496093 5.105469-14.136718 6.453125-16.175782 14.839844-31.542969 24.917968-45.679688l31.648438-44.3125 31.640625 44.320313c10.085937 14.136719 18.480469 29.503906 24.925781 45.671875 10.242188 25.730468 15.433594 52.730468 15.433594 80.242187 0 7.222657-1.097656 14.421875-3.230469 21.375-3.472656 11.101563-9.648437 21.3125-17.722656 29.390625l-.679687.671875c-13.496094 13.257813-31.375 20.5625-50.367188 20.5625-19 0-36.894531-7.3125-50.398438-20.59375zm234.398438-130.769531v20.960938c0 12.9375-2.015625 25.664062-6.015625 37.871093-3.953125 12.296875-9.808594 23.777344-17.410156 34.136719-22.652344 31.066406-58.878907 49.703125-97.167969 50.28125.144531-1.113281.210938-2.230469.289062-3.351562 7.816407-8.234376 13.945313-17.960938 18.105469-28.542969h2.917969c12.351562 0 24.242188-2.648438 35.265625-7.851563 10.992187-5.054687 20.648437-12.46875 28.71875-22.0625 12.449219-14.910156 19.296875-33.863281 19.296875-53.359375 0-30.199219-3.742188-60.511719-11.128906-90.113281l-.703125-2.816406c10.046875-8.789063 21.519531-15.78125 33.945312-20.390625-4.058593 28.015625-6.113281 56.632812-6.113281 85.238281zm-113.601562-125.214844c14.121093-8.832031 29.5625-15.710937 45.875-20.449218 12.199218-3.496094 24.710937-5.679688 37.328124-6.550782l-2.226562 3.710938c-10.054688 16.816406-15.375 36.027344-15.375 55.546875 0 7.445312.953125 15 2.519531 22.488281l-.175781.175781.257812.253907c.222657 1.039062.320313 2.097656.566407 3.136718l2.175781 8.769532c7.082031 28.3125 10.65625 57.320312 10.65625 86.214843 0 15.757813-5.527344 31.070313-15.558594 43.097657-6.511718 7.75-14.304687 13.742187-23.210937 17.828124-8.398438 3.960938-17.398438 6.019532-26.734375 6.257813.960937-5.257813 1.503906-10.566406 1.503906-15.902344 0-29.007812-5.398438-57.472656-16-84.640625v-52.839844c2.511719.902344 5.183594 1.480469 8 1.480469 13.230469 0 24-10.769531 24-24 0-13.234375-10.769531-24-24-24s-24 10.765625-24 24v42.488281c-3.542969-6.058593-7.265625-12-11.335938-17.707031l-20.886718-29.253906 14.679687-14.679687c6.277344-6.28125 12.832031-11.929688 19.632813-16.921876 3.789062-2.910156 7.8125-5.703124 12.308594-8.503906zm1.601562 44.578125c0-4.417969 3.585938-8 8-8s8 3.582031 8 8c0 4.414063-3.585938 8-8 8s-8-3.585937-8-8zm-72-106.234375 31.640625 44.3125c4.046875 5.695313 7.726563 11.609375 11.183594 17.578125-5.34375 4.269531-10.625 8.832031-15.6875 13.894531l-12.792969 12.792969-14.34375-20.113281-14.351562 20.097656-12.785157-12.785156c-5.09375-5.097656-10.382812-9.664062-15.695312-13.90625 3.367187-5.839844 6.984375-11.636719 11.183593-17.550781zm-153.609375 34.65625c12.625.871094 25.128906 3.066406 37.304687 6.535156 16.34375 4.753907 31.792969 11.632813 45.90625 20.464844 4.496094 2.808594 8.511719 5.59375 12.46875 8.632813 6.640626 4.871093 13.195313 10.519531 19.480469 16.808593l14.671875 14.671876-20.894531 29.253906c-4.070313 5.707031-7.792969 11.648437-11.328125 17.699218v-42.488281c0-13.234375-10.769531-24-24-24s-24 10.765625-24 24c0 13.230469 10.769531 24 24 24 2.816406 0 5.488281-.578125 8-1.472656v52.886719c-1.742188 4.449218-3.414062 8.984375-4.894531 13.59375-7.371094 23.007812-11.105469 46.894531-11.105469 70.992187 0 5.414063.488281 10.726563 1.433594 15.894531-9.3125-.25-18.289063-2.304687-26.730469-6.28125-8.832031-4.0625-16.625-10.054687-23.128906-17.78125-10.046875-12.042968-15.574219-27.355468-15.574219-43.113281 0-28.894531 3.574219-57.902343 10.640625-86.199219l2.167969-8.714843c.253906-1.0625.351562-2.132813.582031-3.199219l.265625-.261719-.175781-.175781c1.566406-7.523438 2.519531-15.066406 2.519531-22.488281 0-19.519531-5.320312-38.730469-15.382812-55.554688zm81.609375 71.578125c0 4.414063-3.585938 8-8 8s-8-3.585937-8-8c0-4.417969 3.585938-8 8-8s8 3.582031 8 8zm-23.265625 204.636719-5.8125 12.601562c-23.707031-8.046874-44.675781-23.304687-59.515625-43.65625-7.582031-10.335937-13.4375-21.816406-17.40625-34.160156-3.984375-12.160156-6-24.886718-6-37.824218v-20.960938c0-28.605469-2.054688-57.214844-6.121094-85.238281 12.296875 4.574219 23.714844 11.519531 33.945313 20.398437l-.710938 2.832032c-7.371093 29.570312-11.113281 59.882812-11.113281 90.089843 0 19.503907 6.847656 38.457031 19.3125 53.390625 8.054688 9.570313 17.710938 16.984375 28.632812 22.007813 11.09375 5.234375 22.984376 7.882812 35.335938 7.882812h2.832031c4.0625 10.488281 10.300781 20.230469 18.175781 28.511719.078126 1.144531.152344 2.277344.304688 3.421875-7.417969-.109375-14.792969-.894531-22.035156-2.375l4.714844-10.199219zm108.984375 57.378906-5.71875 1.695313v80.289062h-16v-80.289062l-5.71875-1.695313c-12.929688-3.847656-23.679688-13.296875-29.480469-25.402344 13.039063 7.378907 27.800781 11.386719 43.199219 11.386719s30.167969-4.007812 43.207031-11.394531c-5.78125 12.089844-16.542969 21.554688-29.488281 25.410156zm0 0"/><path d="m0 357.769531h88v16h-88zm0 0"/><path d="m0 389.769531h88v16h-88zm0 0"/><path d="m368 381.769531h128v16h-128zm0 0"/><path d="m368 413.769531h128v16h-128zm0 0"/><path d="m368 445.769531h16v16h-16zm0 0"/><path d="m400 445.769531h16v16h-16zm0 0"/><path d="m432 445.769531h16v16h-16zm0 0"/></svg>