<svg height="512" viewBox="0 0 60 60" width="512" xmlns="http://www.w3.org/2000/svg"><g id="Page-1" fill="none" fill-rule="evenodd"><g id="023---Baby" fill-rule="nonzero"><circle id="Oval" cx="30" cy="30" fill="#ffeb3a" r="29"/><path id="Shape" d="m30 1c-.5033333 0-1.0033333.01266667-1.5.038 15.4192225.79012792 27.5158989 13.5225465 27.5158989 28.962s-12.0966764 28.1718721-27.5158989 28.962c.4973333.0253333.9973333.038 1.5.038 16.0162576-.0000002 28.9999996-12.9837424 28.9999996-29s-12.983742-28.99999976-28.9999996-29z" fill="#fdd834"/><path id="Shape" d="m54.97 28.69v.02c-.1047635 1.796489-.4305529 3.5732167-.97 5.29-1.24 2.73-4.47 4.73-7 6-1.15.57-1.31 1.81-1.62 3.52v.01c-.2295892 1.5516031-.6949617 3.0590053-1.38 4.47-1.1202863 1.7563667-2.4279481 3.3859144-3.9 4.86-3.1780899 1.4175819-6.6200939 2.1468778-10.1 2.14-7.6632526.0024983-14.9019765-3.5191427-19.63-9.55.415056-2.0151076 1.3374935-3.8909598 2.68-5.45 1.631423-1.5683066 3.3945733-2.9935476 5.27-4.26-2.4058161-.3958883-4.8337582-.6430241-7.27-.74-4.24 0-5.96-2.77-6.04-5.39 0-.26.01-.53.02-.79.18-2.05 1.33-3.82 3.02-3.82 4 0 3 4 4 4h11.95c1.3274384-.0419379 2.6224654.4147107 3.63 1.28.3560707-.5072477.8746887-.8776892 1.47-1.05 1.7074475-.3916503 3.4956116-.2233525 5.1.48-.4206687-2.168424-.1622555-4.4138255.74-6.43 1.6629095-3.8070307 5.4254732-6.2651762 9.5798333-6.2586647 4.1543602.0065115 7.9091996 2.4764398 9.5601667 6.2886647.0039513.0176285.0107037.0345095.02.05.4845415 1.7393955.7762957 3.5268093.87 5.33z" fill="#ffe0b2"/><path id="Shape" d="m54.1 23.36c-.0092963-.0154905-.0160487-.0323715-.02-.05-1.0293159-2.3612527-2.8906801-4.2617661-5.23-5.34-1.8243459-.8512334-3.8587402-1.1471769-5.85-.851.987378.1446238 1.9486568.4312559 2.854.851 2.3393199 1.0782339 4.2006841 2.9787473 5.23 5.34.0039513.0176285.0107037.0345095.02.05.4845415 1.7393955.7762957 3.5268093.87 5.33v.02c-.106062 1.7966569-.4331955 3.5733883-.974 5.29-1.24 2.73-4.47 4.73-7 6-1.15.57-1.31 1.81-1.62 3.52v.01c-.2295892 1.5516031-.6949617 3.0590053-1.38 4.47-1.1202863 1.7563667-2.4279481 3.3859144-3.9 4.86-2.7220196 1.2143723-5.6421997 1.9235783-8.618 2.093.502.0313333 1.008.047 1.518.047 3.4799061.0068778 6.9219101-.7224181 10.1-2.14 1.4720519-1.4740856 2.7797137-3.1036333 3.9-4.86.6850383-1.4109947 1.1504108-2.9183969 1.38-4.47v-.01c.31-1.71.47-2.95 1.62-3.52 2.53-1.27 5.76-3.27 7-6 .5394471-1.7167833.8652365-3.493511.97-5.29v-.02c-.0937043-1.8031907-.3854585-3.5906045-.87-5.33z" fill="#dfc49c"/><path id="Shape" d="m18.32 35.74c-1.8754267 1.2664524-3.638577 2.6916934-5.27 4.26-1.3425065 1.5590402-2.264944 3.4348924-2.68 5.45-3.48568158-4.3945375-5.37869354-9.8409127-5.37-15.45 0-.13 0-.26.01-.39.08 2.62 1.8 5.39 6.04 5.39 2.4362418.0969759 4.8641839.3441117 7.27.74z" fill="#ef314c"/><path id="Shape" d="m54.08 23.31c-1.6509671-3.8122249-5.4058065-6.2821532-9.5601667-6.2886647-4.1543601-.0065115-7.9169238 2.451634-9.5798333 6.2586647-.9022555 2.0161745-1.1606687 4.261576-.74 6.43-1.6043884-.7033525-3.3925525-.8716503-5.1-.48-.5953113.1723108-1.1139293.5427523-1.47 1.05-1.0075346-.8652893-2.3025616-1.3219379-3.63-1.28h-11.95c-1 0 0-4-4-4-1.69 0-2.84 1.77-3.02 3.82.57684464-12.2638931 9.9755493-22.29289829 22.176262-23.66345745s23.5902934 6.32320745 26.873738 18.15345745z" fill="#ef314c"/><path id="Shape" d="m30 5c-.545 0-1.083.024-1.619.058 8.6190416.47860778 16.3807048 5.3717563 20.529 12.942 2.3112889 1.0825174 4.1491694 2.969811 5.17 5.309-3.0096302-10.81446-12.8545673-18.29996474-24.08-18.309z" fill="#bb193b"/><path id="Shape" d="m55 30c-.0050998 9.8972096-5.847062 18.8601127-14.9 22.86 1.4720519-1.4740856 2.7797137-3.1036333 3.9-4.86.6850383-1.4109947 1.1504108-2.9183969 1.38-4.47v-.01c.31-1.71.47-2.95 1.62-3.52 2.53-1.27 5.76-3.27 7-6 .5394471-1.7167833.8652365-3.493511.97-5.29.02.43.03.86.03 1.29z" fill="#ef314c"/><path id="Shape" d="m54.97 28.71c-.1047635 1.796489-.4305529 3.5732167-.97 5.29-.7559646 1.4780916-1.8625569 2.7484581-3.223 3.7-1.3709132 4.2071097-3.8333229 7.9752591-7.136 10.92-1.0652519 1.5055958-2.2493704 2.9234616-3.541 4.24 9.052938-3.9998873 14.8949002-12.9627904 14.9-22.86 0-.43-.01-.86-.03-1.29z" fill="#bb193b"/><g fill="#000"><path id="Shape" d="m30 0c-16.5685425 0-30 13.4314575-30 30s13.4314575 30 30 30 30-13.4314575 30-30c-.018737-16.5607751-13.4392249-29.98126296-30-30zm0 58c-15.463973 0-28-12.536027-28-28s12.536027-28 28-28 28 12.536027 28 28c-.0176345 15.4566626-12.5433374 27.9823655-28 28z"/><path id="Shape" d="m30 4c-13.9669379.01728054-25.43032814 11.0556758-25.975 25.012-.006.126-.027.245-.027.373 0 .056.012.107.013.163 0 .151-.011.3-.011.452.02641636 14.3484472 11.6515528 25.9735836 26 26 14.3525501-.016532 25.983468-11.6474499 26-26 0-.4453333-.0113333-.8876667-.034-1.327.01-.122.017-.232.022-.313.012-.221.012-.431.012-.652-.0016939-1.5801525-.3188952-3.1440604-.933-4.6-3.1153374-11.2766486-13.3679456-19.09197698-25.067-19.108zm-3.41 2.246c-1.7202053 1.8217016-2.6510978 4.2492106-2.59 6.754-.0976965 2.4582008 1.0251115 4.8059923 3 6.273 1.16 1.038 2 1.788 2 3.727 0 2.457-2.672 4.2-4.343 5.052-.218-.019-.43-.052-.657-.052h-11.5c-.025-.093-.05-.193-.072-.28-.303-1.207-.928-3.72-4.378-3.72-.4737975.0066425-.94026509.1179664-1.366.326 2.3338406-9.5183386 10.2076893-16.6699103 19.906-18.08zm-20.132 28.367c1.3336871.9604218 2.94963978 1.4485155 4.592 1.387 1.5680026.0427132 3.1324173.1725804 4.686.389-1.1994895.8906484-2.3355653 1.8636639-3.4 2.912-1.0219785 1.1506857-1.8148423 2.4859281-2.336 3.934-1.74366032-2.6091265-2.94794035-5.5406066-3.542-8.622zm38.068 14.475c.14-.223.268-.439.369-.641.7634804-1.5894366 1.2775105-3.2870178 1.524-5.033.284-1.6.446-2.228 1.028-2.519 2.0015076-.9459306 3.841684-2.2009491 5.453-3.719-1.4958881 4.7393375-4.4208496 8.9000899-8.374 11.912zm8.656-25.288c.4268275 1.5911249.687884 3.2221419.779 4.867-.0960389 1.6695838-.3887287 3.3220058-.872 4.923-.878 1.933-3.077 3.79-6.536 5.519-.4004321.1989774-.7513211.4849502-1.027.837-.5098648-.7949733-1.2292883-1.4337687-2.079-1.846l-8-4c-.4942949-.2468713-1.0951287-.0462949-1.342.448s-.0462949 1.0951287.448 1.342l8 4c.9.447 1.907 1.258 1.827 3.546-.215537 1.4270445-.6453854 2.8133478-1.275 4.112-1.0305723 1.619927-2.2361507 3.1216183-3.595 4.478-9.8229534 4.252075-21.2748979 1.4647342-28.045-6.826.4062391-1.6584694 1.1937752-3.1993011 2.3-4.5 1.5860152-1.5297865 3.3051415-2.915261 5.137-4.14 1.473-1.018 2.605-1.7 2.617-1.706.3132279-.1806127.5045637-.516242.5004101-.8777878-.0041537-.3615459-.2031497-.6926908-.5204443-.8660598-.3172946-.1733689-.7034632-.1619565-1.0099658.0298476-.044.026-1.036.624-2.395 1.551-2.3318891-.3723873-4.6841991-.6031435-7.044-.691-1.45837457.1007825-2.88878188-.4358482-3.921-1.471-.7141156-.8282313-1.11039538-1.8834414-1.118-2.977 0-.224.007-.447.017-.669.149-1.627.995-2.883 2.022-2.883 1.759 0 2.094.833 2.437 2.206.168.67.449 1.794 1.563 1.794h11.95c.814929-.0177713 1.6199834.1809905 2.333.576-.0823056.209494-.1491512.4247368-.2.644-.41 1.8.148 4.034 1.575 6.532-.313.866-.644 1.611-.73 1.783-.878 1.665-3.578 3.565-6.435 4.516-.3394023.1130746-.5926984.3986287-.6644741.749097s.0488734.7126063.3165.95c.2676266.2373938.6415718.3139776.9809741.200903 3.4-1.134 6.443-3.338 7.578-5.5.058-.115.16-.339.286-.632 1.6361263 2.2177845 3.4878257 4.2681196 5.528 6.121.406327.3638274 1.029249.3349596 1.4001854-.064888.3709364-.3998477.3530585-1.0231819-.0401854-1.401112-6.553-6.079-8.35-10.6-7.848-12.807.1196384-.7054997.6325875-1.2802358 1.32-1.479 3.172-.98 7.7 2.117 7.742 2.148.4534258.3153546 1.0766454.2034258 1.392-.25s.2034258-1.0766454-.25-1.392c-1.0004798-.6663975-2.0635003-1.2337437-3.174-1.694-.2514002-1.8076419.0073287-3.6495703.747-5.318 1.0287171-2.3482411 2.9628448-4.1810281 5.363-5.082 2.3414904-.884821 4.9413216-.7849108 7.208.277 2.1370875.99923 3.8300012 2.7523251 4.754 4.923zm-3.914-6.737c-2.7518215-1.2884141-5.9077226-1.4092401-8.75-.335-2.9032188 1.0873959-5.2432865 3.3026696-6.488 6.142-.7610839 1.7074955-1.1062014 3.5711982-1.007 5.438-1.37781-.3905769-2.8355994-.4012883-4.219-.031-.472207.1444285-.9131552.376096-1.3.683-.078-.049-.156-.1-.236-.145 2.41-1.643 3.732-3.657 3.732-5.815.0204635-2.0699808-.9739336-4.018805-2.662-5.217-1.553758-1.0829711-2.4378915-2.891701-2.338-4.783-.0838474-2.9511894 1.5557232-5.68185512 4.2-6.995 8.4300294.075695 16.2027627 4.5670884 20.478 11.833-.450927-.2927833-.922117-.5531074-1.41-.779z"/><path id="Shape" d="m48.122 30.293c.2525868.2527654.3511379.6210837.25853.966213s-.3623054.6146361-.7075.707c-.3451947.0923638-.7134432-.0064476-.96603-.259213-.3923789-.3789722-1.0160848-.3735524-1.4018186.0121814s-.3911536 1.0094397-.0121814 1.4018186c.7556699.768259 1.8653345 1.0721992 2.9070186.7962405 1.041684-.2759588 1.8553323-1.0894153 2.1315366-2.1310343s-.0274743-2.1513552-.7955552-2.9072062c-.2510745-.2599566-.6228779-.3642126-.9725073-.2726972-.3496295.0915155-.6226744.3645604-.7141899.7141899-.0915154.3496294.0127406.7214328.2726972.9725073z"/></g></g></g></svg>