<svg viewBox="0 -8 480 480" xmlns="http://www.w3.org/2000/svg"><path d="m296 208h-112v16h48v56h16v-56h48zm0 0" fill="#d9ba3d"/><g fill="#fceba6"><path d="m109.792969 68.425781-24 48c-1.238281 2.476563-1.105469 5.421875.347656 7.777344 1.457031 2.359375 4.03125 3.796875 6.804687 3.796875h11.054688c4.417969 0 8 3.582031 8 8v16h8v80c0 4.417969 3.582031 8 8 8h48c4.417969 0 8-3.582031 8-8v-80h8v-16c0-4.417969 3.582031-8 8-8h11.054688c2.773437 0 5.347656-1.4375 6.804687-3.796875 1.453125-2.355469 1.585937-5.300781.347656-7.777344l-24-48c-1.351562-2.710937-4.121093-4.425781-7.152343-4.425781h-70.109376c-3.03125 0-5.800781 1.714844-7.152343 4.425781zm0 0"/><path d="m184 32c0 17.671875-14.328125 32-32 32s-32-14.328125-32-32 14.328125-32 32-32 32 14.328125 32 32zm0 0"/><path d="m394.207031 116.425781-24-48c-1.351562-2.710937-4.121093-4.425781-7.152343-4.425781h-70.109376c-3.03125 0-5.800781 1.714844-7.152343 4.425781l-24 48c-1.238281 2.476563-1.105469 5.421875.347656 7.777344 1.457031 2.359375 4.03125 3.796875 6.804687 3.796875h7.957032c2.570312 0 4.984375 1.238281 6.488281 3.324219 1.5 2.085937 1.910156 4.765625 1.097656 7.203125l-8.976562 26.945312c-.8125 2.4375-.402344 5.117188 1.097656 7.203125 1.503906 2.085938 3.917969 3.324219 6.488281 3.324219h4.902344c4.417969 0 8 3.582031 8 8v48c0 4.417969 3.582031 8 8 8h48c4.417969 0 8-3.582031 8-8v-48c0-4.417969 3.582031-8 8-8h4.902344c2.570312 0 4.984375-1.238281 6.488281-3.324219 1.5-2.085937 1.910156-4.765625 1.097656-7.203125l-8.976562-26.945312c-.8125-2.4375-.402344-5.117188 1.097656-7.203125 1.503906-2.085938 3.917969-3.324219 6.488281-3.324219h7.957032c2.773437 0 5.347656-1.4375 6.804687-3.796875 1.453125-2.355469 1.585937-5.300781.347656-7.777344zm0 0"/><path d="m360 32c0 17.671875-14.328125 32-32 32s-32-14.328125-32-32 14.328125-32 32-32 32 14.328125 32 32zm0 0"/><path d="m219.054688 336h-54.109376c-3.03125 0-5.800781 1.714844-7.152343 4.425781l-16 32c-1.238281 2.476563-1.105469 5.421875.347656 7.777344 1.457031 2.359375 4.03125 3.796875 6.804687 3.796875h3.054688c4.417969 0 8 3.582031 8 8v56c0 4.417969 3.582031 8 8 8h48c4.417969 0 8-3.582031 8-8v-56c0-4.417969 3.582031-8 8-8h3.054688c2.773437 0 5.347656-1.4375 6.804687-3.796875 1.453125-2.355469 1.585937-5.300781.347656-7.777344l-16-32c-1.351562-2.710937-4.121093-4.425781-7.152343-4.425781zm0 0"/><path d="m216 312c0 13.253906-10.746094 24-24 24s-24-10.746094-24-24 10.746094-24 24-24 24 10.746094 24 24zm0 0"/></g><path d="m80 72c0 22.089844-17.910156 40-40 40s-40-17.910156-40-40 17.910156-40 40-40 40 17.910156 40 40zm0 0" fill="#d6f4ff"/><path d="m80 168c0 22.089844-17.910156 40-40 40s-40-17.910156-40-40 17.910156-40 40-40 40 17.910156 40 40zm0 0" fill="#d6f4ff"/><path d="m480 72c0 22.089844-17.910156 40-40 40s-40-17.910156-40-40 17.910156-40 40-40 40 17.910156 40 40zm0 0" fill="#d6f4ff"/><path d="m480 168c0 22.089844-17.910156 40-40 40s-40-17.910156-40-40 17.910156-40 40-40 40 17.910156 40 40zm0 0" fill="#d6f4ff"/><path d="m336 424c0 22.089844-17.910156 40-40 40s-40-17.910156-40-40 17.910156-40 40-40 40 17.910156 40 40zm0 0" fill="#d6f4ff"/><path d="m336 328c0 22.089844-17.910156 40-40 40s-40-17.910156-40-40 17.910156-40 40-40 40 17.910156 40 40zm0 0" fill="#d6f4ff"/><path d="m32 96h16v-16h16v-16h-16v-16h-16v16h-16v16h16zm0 0" fill="#4a99b5"/><path d="m32 192h16v-16h16v-16h-16v-16h-16v16h-16v16h16zm0 0" fill="#4a99b5"/><path d="m416 64h48v16h-48zm0 0" fill="#4a99b5"/><path d="m416 160h48v16h-48zm0 0" fill="#4a99b5"/><path d="m272 416h48v16h-48zm0 0" fill="#4a99b5"/><path d="m288 352h16v-16h16v-16h-16v-16h-16v16h-16v16h16zm0 0" fill="#4a99b5"/></svg>