<svg id="Capa_1" enable-background="new 0 0 497 497" height="512" viewBox="0 0 497 497" width="512" xmlns="http://www.w3.org/2000/svg"><g><g><g><path d="m310.513 317.306c-1.919 0-3.839-.732-5.303-2.196l-124.025-124.025c-2.929-2.93-2.929-7.678 0-10.607 2.929-2.928 7.678-2.928 10.606 0l124.025 124.024c2.929 2.93 2.929 7.678 0 10.607-1.464 1.464-3.383 2.197-5.303 2.197z" fill="#f5de46"/></g><g><path d="m265.583 343.087c-1.919 0-3.839-.732-5.303-2.196l-104.876-104.875c-2.929-2.93-2.929-7.678 0-10.607 2.929-2.928 7.678-2.928 10.606 0l104.875 104.875c2.929 2.93 2.929 7.678 0 10.607-1.463 1.463-3.383 2.196-5.302 2.196z" fill="#f5de46"/></g><g><path d="m485.444 154.623c-1.927 0-3.853-.737-5.318-2.212l-135.89-136.656c-2.92-2.937-2.907-7.686.03-10.606 2.938-2.921 7.687-2.907 10.607.03l135.89 136.656c2.92 2.937 2.907 7.686-.03 10.606-1.463 1.455-3.377 2.182-5.289 2.182z" fill="#f5de46"/></g><g><path d="m431.896 171.412c-1.919 0-3.839-.732-5.304-2.197l-99.505-99.522c-2.929-2.929-2.928-7.678.001-10.606s7.678-2.929 10.606.001l99.505 99.522c2.929 2.929 2.928 7.678-.001 10.606-1.463 1.464-3.383 2.196-5.302 2.196z" fill="#f5de46"/></g><g><path d="m140.925 489.958c-1.919 0-3.839-.732-5.303-2.196l-127.089-127.089c-2.929-2.93-2.929-7.678 0-10.607 2.929-2.928 7.678-2.928 10.606 0l127.089 127.089c2.929 2.93 2.929 7.678 0 10.607-1.464 1.464-3.383 2.196-5.303 2.196z" fill="#f5de46"/></g><g><path d="m166.827 444.906c-1.914 0-3.828-.728-5.292-2.185l-108.181-107.696c-2.936-2.923-2.946-7.671-.024-10.606 2.923-2.938 7.672-2.947 10.607-.024l108.181 107.696c2.936 2.923 2.946 7.671.024 10.606-1.466 1.473-3.391 2.209-5.315 2.209z" fill="#f5de46"/></g><g><path d="m339.358 275.44c-1.919 0-3.839-.732-5.303-2.196l-69.186-69.186c-2.929-2.93-2.929-7.678 0-10.607 2.929-2.928 7.678-2.928 10.606 0l69.186 69.186c2.929 2.93 2.929 7.678 0 10.607-1.464 1.464-3.384 2.196-5.303 2.196z" fill="#f5de46"/></g></g><path d="m183.69 379.81c-6.02-1.23-12.06-2.73-18.11-4.51-3.47-1.02-8.38-2.4-14.29-3.87-1.24-7.69-2.69-14.98-4.17-21.55 10.13 2.28 18.55 4.59 24.11 6.23 3.08.91 6.16 1.74 9.22 2.49 1.27 6.88 2.38 13.99 3.24 21.21z" fill="#68b76a"/><g fill="#f3d332"><path d="m42.07 372.99c-.65.52-1.26 1.08-1.83 1.65-3.08 3.08-6.62 5.53-10.47 7.27l-23.84-23.84c-2.93-2.93-2.93-7.68 0-10.61 2.93-2.92 7.68-2.92 10.61 0z"/><path d="m102.81 362.98c-5.65-.49-11.34-.78-16.95-.78-1.68 0-3.32.03-4.92.08l-28.78-28.87c-2.92-2.93-2.92-7.68.02-10.61 2.93-2.92 7.68-2.91 10.6.02z"/><path d="m362.81 105.42-42.82-42.81c-2.93-2.93-2.93-7.68-.01-10.61 2.93-2.93 7.68-2.93 10.61 0l31.38 31.37v.01c-.15 6.97.15 14.38.84 22.04z"/></g><path d="m221.006 159.982c4.87 4.839 3.515 13.012-2.638 16.06-9.384 4.649-17.829 10.65-25.104 17.925-21.134 21.134-31.515 52.147-29.228 87.34l.086 1.247c.717 10.997 2.81 22.453 6.23 34.06.738 2.502 1.484 5.112 2.222 7.814l-19.367 8.136-14.801-16.022c-2.602-10.632-4.251-21.17-4.918-31.429l-.079-1.255c-2.882-44.233 10.739-83.791 38.347-111.399 5.716-5.716 11.945-10.833 18.621-15.328 9.602-6.463 22.418-5.308 30.629 2.851z" fill="#b3e59f"/><path d="m381.13 31.37c-1.65 3.2-3.81 6.2-6.49 8.88-.96.96-1.86 2.02-2.71 3.16l-26.26-26.54c-2.92-2.95-2.89-7.7.05-10.61 2.95-2.91 7.7-2.89 10.61.05z" fill="#f3d332"/><path d="m158.014 492.404c-6.051 6.051-15.772 6.137-21.708.201s-5.85-15.657.201-21.708c26.403-26.403 18.776-84.673 10.61-121.013l18.288-9.746 15.048 18.464c8.466 45.846 9.707 101.656-22.439 133.802z" fill="#b3e59f"/><path d="m183.69 379.81c-6.02-1.23-12.06-2.73-18.11-4.51-3.47-1.02-8.38-2.4-14.29-3.87-1.24-7.69-2.69-14.98-4.17-21.55l22.782-3.376 10.548 12.096c1.27 6.88 2.38 13.99 3.24 21.21z" fill="#95d6a4"/><path d="m4.397 360.695c-5.939-5.939-5.85-15.657.198-21.705 43.072-43.072 128.626-26.219 175.79-12.339 11.612 3.418 23.07 5.513 34.058 6.227l1.256.082c35.184 2.289 66.203-8.09 87.338-29.223 21.134-21.131 31.515-52.147 29.23-87.331-.765-11.771-2.911-23.801-6.377-35.754-13.678-47.183-30.163-132.796 13.1-176.058 6.048-6.048 15.766-6.137 21.705-.198s5.85 15.657-.198 21.705c-34.02 34.02-12.513 119.975-5.111 145.509 4.078 14.063 6.606 28.279 7.513 42.25 2.872 44.225-10.75 83.782-38.357 111.386-27.608 27.605-67.169 41.224-111.396 38.346l-1.257-.082c-13.225-.861-26.907-3.35-40.665-7.398-25.508-7.507-111.362-29.377-145.123 4.384-6.047 6.05-15.765 6.138-21.704.199z" fill="#e06c57"/><path d="m361.72 201.9c-2.47-.4-4.95-.83-7.45-1.28-8.05-1.46-16.36-3.23-24.8-5.3-.97-4.89-2.17-9.78-3.58-14.67-.69-2.39-1.39-4.87-2.09-7.45h.01l18.244-3.186 15.796 10.936c1.69 6.98 2.98 13.98 3.87 20.95z" fill="#dd554e"/><path d="m268.057 152.95c1.817-11.046 11.965-18.717 23.092-17.49 9.3 1.026 19.441 2.378 24.905 3.693 3.119.738 6.23 1.57 9.334 2.466 5.527 1.598 13.879 3.857 23.923 6.072 36.383 8.036 94.932 15.471 121.586-11.184 6.051-6.051 15.772-6.137 21.708-.201s5.85 15.657-.201 21.708c-32.404 32.404-88.58 31.285-134.555 22.934-12.295-2.229-23.851-4.982-34.038-7.743-2.581-.703-5.069-1.398-7.456-2.093-11.958-3.47-23.995-5.613-35.759-6.38-1.011-.066-2.019-.121-3.024-.165-6.023-.269-10.494-5.668-9.515-11.617z" fill="#b3e59f"/><g><path d="m233.801 104.982c-3.448 0-6.552-2.393-7.319-5.899l-12.822-58.614c-.885-4.046 1.678-8.044 5.724-8.93 4.045-.884 8.044 1.678 8.929 5.725l12.822 58.614c.885 4.046-1.677 8.044-5.724 8.93-.54.118-1.079.174-1.61.174z" fill="#f5de46"/></g><g><path d="m207.708 126.045c-1.995 0-3.984-.79-5.459-2.356l-39.992-42.435c-2.841-3.014-2.7-7.761.314-10.602 3.015-2.843 7.762-2.701 10.602.314l39.992 42.435c2.841 3.014 2.7 7.761-.314 10.602-1.449 1.365-3.298 2.042-5.143 2.042z" fill="#f5de46"/></g><g><path d="m266.322 113.225c-.794 0-1.602-.127-2.396-.395-3.925-1.323-6.035-5.577-4.712-9.503l18.622-55.256c1.323-3.925 5.578-6.034 9.502-4.712 3.925 1.323 6.035 5.577 4.712 9.503l-18.622 55.256c-1.055 3.131-3.976 5.107-7.106 5.107z" fill="#f5de46"/></g><g><path d="m213.7 202.5c-2.2 1.75-4.3 3.62-6.29 5.61-1.55 1.55-3.04 3.18-4.44 4.87l-14.21-14.17c3.268-3.791 6.868-7.294 10.71-10.5z" fill="#f3d332"/></g><g><path d="m186.71 246.12c-1.44 5.86-2.37 12.03-2.76 18.44l-17.85-17.85c1.103-5.651 2.615-11.217 4.57-16.63z" fill="#f3d332"/></g></g></svg>