<svg id="evolution" enable-background="new 0 0 300 300" height="512" viewBox="0 0 300 300" width="512" xmlns="http://www.w3.org/2000/svg"><g><circle cx="152" cy="144.002" fill="#ffe5d2" r="86"/><g fill="#4c241d"><circle cx="134" cy="74.002" r="4"/><path d="m226.893 263.127c-1.023 0-2.047-.391-2.828-1.172-1.562-1.561-1.562-4.094 0-5.656l14.781-14.783c1.562-1.562 4.094-1.562 5.656 0 1.562 1.561 1.562 4.094 0 5.656l-14.781 14.783c-.782.781-1.805 1.172-2.828 1.172z"/><path d="m241.674 263.127c-1.023 0-2.047-.391-2.828-1.172l-14.781-14.783c-1.562-1.562-1.562-4.096 0-5.656 1.562-1.562 4.094-1.562 5.656 0l14.781 14.783c1.562 1.562 1.562 4.096 0 5.656-.781.781-1.805 1.172-2.828 1.172z"/><circle cx="110.83" cy="101.958" r="4.276"/><path d="m121.996 62.002c-.762 0-1.533-.217-2.215-.672-1.838-1.225-2.334-3.709-1.109-5.547l6.521-9.781-6.521-9.781c-1.225-1.838-.729-4.322 1.109-5.547 1.834-1.232 4.318-.729 5.547 1.109l8 12c.896 1.344.896 3.094 0 4.438l-8 12c-.771 1.156-2.039 1.781-3.332 1.781z"/></g><g><path d="m262 206.002h-120c0-24.301 19.699-44 44-44h32c24.301 0 44 19.699 44 44z" fill="#a9ba5a"/><path d="m262 210.002h-120c-2.209 0-4-1.791-4-4 0-26.467 21.533-48 48-48h32c26.467 0 48 21.533 48 48 0 2.209-1.791 4-4 4zm-115.801-8h111.602c-2.014-20.184-19.096-36-39.801-36h-32c-20.705 0-37.787 15.816-39.801 36z" fill="#4c241d"/></g><g><path d="m206 174.002h-8c-4.418 0-8-3.582-8-8v-16h24v16c0 4.418-3.582 8-8 8z" fill="#e7d1c4"/><path d="m206 178.002h-8c-6.617 0-12-5.383-12-12v-16c0-2.209 1.791-4 4-4h24c2.209 0 4 1.791 4 4v16c0 6.617-5.383 12-12 12zm-12-24v12c0 2.205 1.795 4 4 4h8c2.205 0 4-1.795 4-4v-12z" fill="#4c241d"/></g><g><path d="m250 106.002c0-5.217-3.35-9.612-8-11.265v-18.735c0-9.941-8.059-18-18-18h-62v36.735c-4.65 1.653-8 6.048-8 11.265s3.35 9.612 8 11.265v14.735c0 9.941 8.059 18 18 18h44c9.941 0 18-8.059 18-18v-14.735c4.65-1.653 8-6.048 8-11.265z" fill="#e7d1c4"/><path d="m224 154.002h-44c-12.131 0-22-9.869-22-22v-12.195c-4.879-2.82-8-8.062-8-13.805 0-5.74 3.121-10.982 8-13.805v-34.195c0-2.209 1.791-4 4-4h62c12.131 0 22 9.869 22 22v16.195c4.879 2.822 8 8.064 8 13.805 0 5.742-3.121 10.984-8 13.805v12.195c0 12.131-9.869 22-22 22zm-58-92v32.734c0 1.691-1.064 3.201-2.66 3.77-3.193 1.135-5.34 4.148-5.34 7.496 0 3.35 2.146 6.361 5.34 7.496 1.594.566 2.66 2.076 2.66 3.77v14.734c0 7.719 6.281 14 14 14h44c7.719 0 14-6.281 14-14v-14.734c0-1.693 1.066-3.203 2.66-3.77 3.193-1.135 5.34-4.146 5.34-7.496 0-3.348-2.146-6.361-5.34-7.496-1.596-.568-2.66-2.078-2.66-3.77v-18.734c0-7.719-6.281-14-14-14z" fill="#4c241d"/></g><g><path d="m209.862 77.002h-17.401c-23.451 0-42.462-15.67-42.462-35h68.135c13.18 0 23.865 8.807 23.865 19.671v15.329" fill="#6b4f5b"/><path d="m242 81.002c-2.209 0-4-1.791-4-4v-15.328c0-8.641-8.912-15.672-19.865-15.672h-63.816c2.441 15.211 18.617 27 38.143 27h17.4c2.209 0 4 1.791 4 4s-1.791 4-4 4h-17.4c-25.619 0-46.461-17.496-46.461-39 0-2.209 1.791-4 4-4h68.135c15.364 0 27.864 10.619 27.864 23.672v15.328c0 2.209-1.791 4-4 4z" fill="#4c241d"/></g><circle cx="182" cy="106.002" fill="#4c241d" r="4"/><circle cx="222" cy="106.002" fill="#4c241d" r="4"/><path d="m186 118.002c0 6.627 7.163 12 16 12s16-5.373 16-12z" fill="#4c241d"/><g><path d="m135.482 222.002h-78.965c-8.018 0-14.517-6.5-14.517-14.518v-38.664c0-28.066 22.752-50.818 50.818-50.818h6.364c28.066 0 50.818 22.752 50.818 50.818v38.664c0 8.018-6.5 14.518-14.518 14.518z" fill="#bf7e68"/><path d="m135.482 226.002h-78.964c-10.211 0-18.518-8.307-18.518-18.518v-38.664c0-30.227 24.592-54.818 54.818-54.818h6.363c30.227 0 54.818 24.592 54.818 54.818v38.664c.001 10.211-8.306 18.518-18.517 18.518zm-42.664-104c-25.816 0-46.818 21.002-46.818 46.818v38.664c0 5.799 4.719 10.518 10.518 10.518h78.965c5.799 0 10.518-4.719 10.518-10.518v-38.664c0-25.816-21.002-46.818-46.818-46.818z" fill="#4c241d"/></g><g><path d="m134 161.944c0-11.005-8.507-19.927-19-19.927-.501 0-37.499 0-38 0-10.493 0-19 8.921-19 19.927 0 11.005 8.507 19.926 19 19.926.018 0 .035-.003.053-.003-.744 2.203-1.17 4.565-1.17 7.035 0 11.652 9.007 21.099 20.118 21.099s20.118-9.446 20.118-21.099c0-2.471-.426-4.832-1.17-7.035.018 0 .035.003.053.003 10.491 0 18.998-8.921 18.998-19.926z" fill="#edebdc"/><path d="m96 214.002c-13.299 0-24.117-11.258-24.117-25.098 0-1.193.084-2.387.252-3.572-10.354-2.328-18.135-11.932-18.135-23.389 0-13.193 10.318-23.926 23-23.926h38c12.682 0 23 10.732 23 23.926 0 11.457-7.781 21.061-18.135 23.389.168 1.186.252 2.379.252 3.572 0 13.84-10.818 25.098-24.117 25.098zm-18.947-36.135c1.289 0 2.498.621 3.25 1.668.75 1.045.951 2.391.539 3.611-.637 1.887-.959 3.824-.959 5.758 0 9.428 7.23 17.098 16.117 17.098s16.117-7.67 16.117-17.098c0-1.934-.322-3.871-.959-5.758-.412-1.221-.211-2.566.539-3.611.781-1.088 1.973-1.723 3.41-1.664 8.223-.062 14.893-7.184 14.893-15.928 0-8.781-6.729-15.926-15-15.926h-38c-8.271 0-15 7.145-15 15.926 0 8.744 6.67 15.865 14.893 15.928.054-.002.109-.004.16-.004z" fill="#4c241d"/></g><circle cx="99.545" cy="181.82" fill="#4c241d" r="2.364"/><circle cx="92.455" cy="181.82" fill="#4c241d" r="2.364"/><g><path d="m152.475 253.986c-2.74 0-5.215-1.891-5.846-4.678-.732-3.23 1.295-6.445 4.527-7.176l34.137-7.729c1.055-.238 1.627-.932 1.875-1.324s.627-1.209.389-2.264l-2.209-9.752c-.238-1.057-.932-1.629-1.324-1.877s-1.207-.623-2.264-.389c-8.066 1.84-16.115-3.252-17.941-11.318l-1.324-5.852c-1.826-8.066 3.25-16.115 11.318-17.941 3.211-.746 6.441 1.293 7.176 4.527.732 3.23-1.295 6.443-4.527 7.176-1.613.365-2.629 1.977-2.264 3.59l1.324 5.852c.238 1.055.934 1.627 1.326 1.875.393.246 1.211.627 2.264.389 3.902-.889 7.926-.195 11.314 1.943s5.742 5.469 6.625 9.377l2.209 9.75c.885 3.908.195 7.928-1.943 11.316s-5.469 5.742-9.377 6.625l-34.135 7.729c-.446.102-.891.151-1.33.151z" fill="#bf7e68"/><path d="m152.475 257.986c-4.699 0-8.709-3.205-9.746-7.795-.592-2.604-.131-5.283 1.295-7.543s3.645-3.828 6.252-4.418l33.158-7.506-1.771-7.826c-4.613.799-9.314-.121-13.328-2.648-4.307-2.713-7.295-6.934-8.416-11.887l-1.324-5.852c-1.119-4.943-.244-10.031 2.467-14.328 2.709-4.297 6.924-7.279 11.869-8.396 2.564-.604 5.24-.148 7.506 1.271 2.277 1.426 3.859 3.652 4.453 6.271.592 2.605.131 5.285-1.295 7.543-1.246 1.977-3.098 3.424-5.285 4.15l.898 3.975c4.627-.811 9.336.125 13.354 2.658 4.293 2.709 7.273 6.928 8.393 11.879l2.207 9.746c1.121 4.953.248 10.045-2.461 14.336-2.709 4.293-6.928 7.273-11.879 8.393l-34.133 7.727c-.724.166-1.47.25-2.214.25zm29.961-43.26c1.316 0 2.598.367 3.725 1.08 1.58.998 2.678 2.553 3.09 4.377l2.207 9.75c.414 1.826.092 3.703-.908 5.283-.998 1.58-2.551 2.678-4.375 3.09l-34.135 7.727c-.703.16-1.086.623-1.25.885-.166.262-.418.805-.26 1.506.236 1.051 1.318 1.75 2.387 1.512l34.141-7.729c2.867-.648 5.309-2.373 6.877-4.859 1.568-2.484 2.074-5.432 1.426-8.299l-2.209-9.748c-.648-2.869-2.373-5.311-4.859-6.879-2.49-1.568-5.434-2.076-8.291-1.426-1.822.414-3.691.092-5.277-.9-1.594-1.006-2.691-2.561-3.104-4.383l-1.322-5.85c-.414-1.822-.092-3.697.906-5.279s2.553-2.682 4.375-3.094c.703-.16 1.086-.623 1.25-.885.166-.262.418-.805.26-1.506-.162-.709-.633-1.096-.898-1.262-.258-.164-.791-.408-1.471-.254-2.883.652-5.322 2.379-6.893 4.869-1.57 2.488-2.078 5.434-1.432 8.293l1.324 5.852c.65 2.867 2.381 5.311 4.877 6.883 2.486 1.566 5.426 2.072 8.275 1.418.521-.115 1.046-.172 1.564-.172zm-.989 7.221v.002z" fill="#4c241d"/></g><circle cx="80" cy="160.002" fill="#4c241d" r="6"/><circle cx="112" cy="160.002" fill="#4c241d" r="6"/><g><path d="m154 266.002h-116c0-24.301 19.699-44 44-44h28c24.301 0 44 19.699 44 44z" fill="#bf7e68"/><path d="m154 270.002h-116c-2.209 0-4-1.791-4-4 0-26.467 21.533-48 48-48h28c26.467 0 48 21.533 48 48 0 2.209-1.791 4-4 4zm-111.801-8h107.602c-2.014-20.184-19.096-36-39.801-36h-28c-20.705 0-37.787 15.816-39.801 36z" fill="#4c241d"/></g><g fill="#4c241d"><path d="m50 106.002c-2.209 0-4-1.791-4-4v-8c0-2.209 1.791-4 4-4s4 1.791 4 4v8c0 2.209-1.791 4-4 4z"/><path d="m50 83.978c-2.209 0-4-1.791-4-4v-14.023c0-2.209 1.791-4 4-4s4 1.791 4 4v14.023c0 2.209-1.791 4-4 4zm2.199-27.748c-.607 0-1.225-.139-1.805-.432-1.971-.998-2.758-3.406-1.76-5.377 2.803-5.529 7.916-8.363 15.201-8.42h.031c2.195 0 3.982 1.77 4 3.969.018 2.209-1.76 4.014-3.969 4.031-5.381.041-7.127 2.064-8.127 4.037-.704 1.391-2.11 2.192-3.571 2.192zm39.715-6.228h-14.023c-2.209 0-4-1.791-4-4s1.791-4 4-4h14.023c2.209 0 4 1.791 4 4s-1.791 4-4 4z"/><path d="m114 50.002h-8c-2.209 0-4-1.791-4-4s1.791-4 4-4h8c2.209 0 4 1.791 4 4s-1.791 4-4 4z"/></g><path d="m230 210.002c-2.209 0-4-1.791-4-4v-12c0-2.209 1.791-4 4-4s4 1.791 4 4v12c0 2.209-1.791 4-4 4z" fill="#4c241d"/><path d="m94 270.002c-2.209 0-4-1.791-4-4 0-6.617-5.383-12-12-12h-16c-2.209 0-4-1.791-4-4s1.791-4 4-4h16c11.027 0 20 8.973 20 20 0 2.209-1.791 4-4 4z" fill="#4c241d"/><path d="m98 270.002c-2.209 0-4-1.791-4-4 0-11.027 8.973-20 20-20h16c2.209 0 4 1.791 4 4s-1.791 4-4 4h-16c-6.617 0-12 5.383-12 12 0 2.209-1.791 4-4 4z" fill="#4c241d"/></g></svg>