<svg id="Layer_1" enable-background="new 0 0 512 512" height="512" viewBox="0 0 512 512" width="512" xmlns="http://www.w3.org/2000/svg"><g><circle cx="365.862" cy="325.629" fill="#b1e75a" r="32.232"/><path d="m365.862 293.397c-5.417 0-10.519 1.343-15 3.704 10.245 5.398 17.232 16.144 17.232 28.529s-6.988 23.131-17.232 28.529c4.481 2.361 9.583 3.704 15 3.704 17.802 0 32.232-14.431 32.232-32.232s-14.43-32.234-32.232-32.234z" fill="#9ed643"/><circle cx="429" cy="209" fill="#b1e75a" r="32.232"/><path d="m429 176.768c-5.417 0-10.519 1.343-15 3.704 10.245 5.398 17.232 16.144 17.232 28.529s-6.988 23.131-17.232 28.529c4.481 2.361 9.583 3.704 15 3.704 17.802 0 32.232-14.431 32.232-32.232s-14.43-32.234-32.232-32.234z" fill="#9ed643"/><path d="m189 474.5h-148v-175.548c0-8.837 7.163-16 16-16h110c12.15 0 22 9.85 22 22z" fill="#80deea"/><path d="m159 282.952v191.548h30v-169.548c0-12.15-9.85-22-22-22z" fill="#4dd0e1"/><path d="m79 192.067h60v81.548h-60z" fill="#ffc6a1"/><path d="m109 192.067h30v81.548h-30z" fill="#fdaa8e"/><path d="m131.149 282.952h-73.149v-30h54.054c10.546 0 19.096 8.549 19.096 19.096v10.904z" fill="#e4e4e4"/><path d="m131.149 282.952h33.206v-30h-14.11c-10.546 0-19.096 8.549-19.096 19.096z" fill="#e4e4e4"/><path d="m71.052 140.348 12.082-53.419c8.536-37.738 46.048-61.411 83.785-52.875l8.537 1.931c37.738 8.536 61.411 46.048 52.875 83.785l-12.082 53.419c-9.045 39.988-48.793 65.072-88.781 56.028l-.388-.088c-39.988-9.045-65.073-48.794-56.028-88.781z" fill="#ffc6a1"/><path d="m175.376 35.967-8.377-1.895c-3.55-.803-7.099-1.321-10.621-1.571 31.691 12.44 50.434 46.42 42.71 80.571l-12.12 53.583c-7.912 34.979-39.404 58.526-73.997 57.755 4.477 2.013 9.219 3.613 14.192 4.738l.219.049c40.035 9.055 79.813-15.983 88.847-55.924l12.12-53.583c8.526-37.693-15.191-75.178-52.973-83.723z" fill="#fdaa8e"/><path d="m74.732 122.81c-8.309-20.702-7.277-38.731-7.485-41.021-1.904-20.937 10.704-84.121 57.159-72.983 135.324 6.317 143.223 60.116 131.339 79.866-14.405 23.939-40.442 15.849-116.655-7.983-7.063-2.209-12.739 69.293-16.88 74.628-4.14 5.334-16.46 3.599-16.46 3.599s-.691-23.048-5.594-35.484c-4.236-10.745-22.409 6.889-25.424-.622z" fill="#d67b42"/><g fill="#be652b"><path d="m136.817 82.437c-8.193-2.501-24.855-6.541-30.71 3.018-2.382 3.889-4.324 13.737-7.582 35.585.659.559 1.215 1.333 1.631 2.39 4.903 12.436 5.594 35.484 5.594 35.484s12.32 1.735 16.46-3.599c3.687-4.748 8.59-61.948 14.607-72.878z"/><path d="m171.147 13.539c62.048 18.477 64.525 53.448 55.445 68.539-7.613 12.652-18.479 16.355-38.282 13.519 39.53 10.965 56.71 10.899 67.436-6.924 10.331-17.17 5.691-60.066-84.599-75.134z"/></g><path d="m41 474.5h148v30h-148z" fill="#4380a0"/><path d="m159 474.5h30v30h-30z" fill="#3b7191"/><g><path d="m100.669 138.489c-3.269 14.454-16.378 23.806-29.28 20.888s-17.353-18.07-14.083-32.524c3.269-14.454 13.021-22.737 25.923-19.819 12.901 2.918 20.709 17.001 17.44 31.455z" fill="#fdaa8e"/></g><path d="m154.832 420.264c0-11.046 8.954-20 20-20h30.827c11.046 0 20 8.954 20 20 0 11.046-8.954 20-20 20h-30.827c-11.046 0-20-8.954-20-20z" fill="#ffc6a1"/><path d="m247.029 183.02c10.769 2.461 17.496 13.214 15.022 24.012l-33.312 145.359c-2.321 10.128-12.388 16.465-22.49 14.156l-109.765-25.087c-9.915-2.266-16.948-11.495-15.884-21.638.684-6.526 4.299-11.85 9.282-14.988 4.338-2.732 9.713-3.808 15.094-2.578l86.862 19.853c1.518.347 3.031-.606 3.379-2.128l27.853-121.871c2.467-10.794 13.194-17.551 23.959-15.09z" fill="#ffc6a1"/><path d="m152.368 313.087-47.392-10.832c-5.381-1.23-10.756-.154-15.094 2.578-4.983 3.138-8.597 8.462-9.282 14.989-1.064 10.143 5.969 19.372 15.884 21.638l46.946 10.73z" fill="#f75632"/><g><path d="m407.862 318.122h-2.987c-1.034-5.388-3.152-10.395-6.13-14.776l2.119-2.119c2.929-2.929 2.929-7.678 0-10.607-2.93-2.929-7.678-2.929-10.607 0l-2.119 2.119c-4.381-2.978-9.388-5.096-14.776-6.13v-2.987c0-4.142-3.357-7.5-7.5-7.5s-7.5 3.358-7.5 7.5v2.987c-5.388 1.034-10.395 3.153-14.777 6.131l-2.12-2.12c-2.93-2.929-7.679-2.929-10.606.001-2.929 2.929-2.929 7.678.001 10.607l2.119 2.119c-2.978 4.382-5.096 9.388-6.13 14.776h-2.987c-4.143 0-7.5 3.358-7.5 7.5s3.357 7.5 7.5 7.5h2.987c1.034 5.388 3.152 10.395 6.13 14.777l-2.119 2.119c-2.93 2.929-2.93 7.678-.001 10.607 1.465 1.464 3.384 2.197 5.304 2.197 1.919 0 3.839-.732 5.303-2.196l2.12-2.12c4.381 2.978 9.388 5.097 14.776 6.13v2.987c0 4.142 3.357 7.5 7.5 7.5s7.5-3.358 7.5-7.5v-2.987c5.388-1.034 10.395-3.152 14.776-6.13l2.119 2.119c1.465 1.464 3.384 2.197 5.304 2.197 1.919 0 3.839-.732 5.303-2.196 2.93-2.929 2.93-7.678.001-10.607l-2.119-2.119c2.978-4.382 5.096-9.388 6.13-14.777h2.987c4.143 0 7.5-3.358 7.5-7.5s-3.358-7.502-7.501-7.502zm-42 32.234c-13.638 0-24.732-11.095-24.732-24.733s11.095-24.733 24.732-24.733 24.732 11.095 24.732 24.733c.001 13.638-11.094 24.733-24.732 24.733z"/><path d="m471 201.489h-2.987c-1.034-5.388-3.152-10.395-6.13-14.777l2.119-2.119c2.929-2.929 2.929-7.678 0-10.607-2.93-2.929-7.678-2.929-10.607 0l-2.119 2.119c-4.381-2.978-9.388-5.096-14.776-6.13v-2.987c0-4.142-3.357-7.5-7.5-7.5s-7.5 3.358-7.5 7.5v2.987c-5.388 1.034-10.395 3.152-14.776 6.13l-2.119-2.119c-2.93-2.929-7.678-2.929-10.607 0s-2.929 7.678 0 10.607l2.119 2.119c-2.978 4.382-5.096 9.388-6.13 14.777h-2.987c-4.143 0-7.5 3.358-7.5 7.5s3.357 7.5 7.5 7.5h2.987c1.034 5.388 3.152 10.395 6.13 14.777l-2.119 2.119c-2.929 2.929-2.929 7.678 0 10.607 1.465 1.464 3.385 2.197 5.304 2.197s3.839-.732 5.304-2.197l2.119-2.119c4.381 2.978 9.388 5.096 14.776 6.13v2.987c0 4.142 3.357 7.5 7.5 7.5s7.5-3.358 7.5-7.5v-2.987c5.388-1.034 10.395-3.152 14.776-6.13l2.119 2.119c1.465 1.464 3.385 2.197 5.304 2.197s3.839-.732 5.304-2.197c2.929-2.929 2.929-7.678 0-10.607l-2.119-2.119c2.978-4.382 5.096-9.388 6.13-14.777h2.985c4.143 0 7.5-3.358 7.5-7.5s-3.357-7.5-7.5-7.5zm-42 32.234c-13.638 0-24.732-11.095-24.732-24.733s11.095-24.733 24.732-24.733 24.732 11.095 24.732 24.733-11.094 24.733-24.732 24.733z"/><path d="m192.56 155.478c.557.126 1.113.186 1.661.186 3.427 0 6.521-2.364 7.309-5.847l1.493-6.602c.914-4.041-1.621-8.056-5.661-8.971-4.041-.915-8.056 1.621-8.97 5.661l-1.493 6.602c-.915 4.041 1.621 8.057 5.661 8.971z"/><path d="m311.585 172.174c.524 0 1.058-.055 1.592-.171l31.177-6.74c4.049-.875 6.621-4.867 5.746-8.916-.875-4.047-4.86-6.625-8.916-5.746l-31.177 6.74c-4.049.875-6.621 4.867-5.746 8.916.76 3.514 3.868 5.917 7.324 5.917z"/><path d="m324.309 260.539c2.662-3.172 2.249-7.904-.924-10.566l-24.433-20.507c-3.173-2.664-7.903-2.25-10.566.923-2.662 3.172-2.249 7.904.924 10.566l24.433 20.507c1.405 1.18 3.116 1.755 4.817 1.755 2.139 0 4.265-.911 5.749-2.678z"/><path d="m344.017 202.403-28.673-7.098c-4.018-.997-8.086 1.458-9.082 5.478-.995 4.021 1.457 8.088 5.479 9.083l28.673 7.098c.604.15 1.211.222 1.808.222 3.367 0 6.429-2.284 7.274-5.7.994-4.021-1.458-8.088-5.479-9.083z"/><path d="m248.699 175.696c-7.165-1.637-14.536-.38-20.759 3.54-3.358 2.115-6.158 4.873-8.287 8.089 1.606-3.996 2.931-8.161 3.911-12.494l12.082-53.421c.857-3.791 1.424-7.641 1.709-11.498 10.997-1.81 18.812-7.411 24.815-17.388 8.805-14.63 7.398-39.167-16.495-58.468-3.224-2.604-7.945-2.1-10.547 1.122-2.604 3.223-2.101 7.945 1.121 10.548 19.469 15.726 17.062 32.429 13.069 39.064-10.942 18.183-31.423 12.67-107.991-11.275-2.401-.751-5.026-.401-7.198.96-5.908 3.704-8.21 14.043-13.606 50.28-1.41 9.471-3.308 22.207-4.505 26.074-.664.331-1.813.58-3.175.722-.617-8.206-2.124-21.682-5.658-30.743-.677-2.082-1.547-4.099-2.613-6.021-4.345-7.835-11.338-13.191-19.69-15.081-3.063-.694-6.038-.906-8.882-.676-1.118-7.246-1.182-12.895-1.211-15.648-.012-1.052-.019-1.688-.073-2.287-1.248-13.722 4.583-45.205 20.644-59.096 7.591-6.566 16.523-8.502 27.298-5.917.459.11.928.176 1.399.198 35.519 1.658 64.539 6.755 86.255 15.146 3.864 1.495 8.206-.429 9.699-4.293 1.493-3.863-.429-8.206-4.293-9.7-23.081-8.919-53.45-14.337-90.274-16.106-15.099-3.422-28.88-.205-39.896 9.325-21.129 18.276-27.207 55.683-25.777 71.732.012.258.013.647.018 1.156.037 3.535.123 11.275 1.968 21.209-5.575 4.515-9.746 11.508-11.766 20.437-1.992 8.81-1.53 17.674 1.303 24.961 2.273 5.848 5.962 10.402 10.695 13.358.947 11.421 4.268 22.258 9.512 31.96v49.98h-13.501c-4.143 0-7.5 3.358-7.5 7.5v23.42c-9.805 2.827-17 11.876-17 22.579v116.669c0 4.142 3.357 7.5 7.5 7.5s7.5-3.358 7.5-7.5v-116.67c0-4.687 3.813-8.5 8.5-8.5h110c7.995 0 14.5 6.505 14.5 14.5v7.102l-74.854-17.108c-7.164-1.638-14.536-.378-20.761 3.543-7.206 4.538-11.851 12.029-12.745 20.553-1.446 13.796 7.871 26.578 21.673 29.732l86.687 19.814v24.181h-6.669c-15.163 0-27.5 12.337-27.5 27.501s12.337 27.501 27.5 27.501h6.669v19.237h-133v-19.292c0-4.142-3.357-7.5-7.5-7.5s-7.5 3.358-7.5 7.5v56.793c0 4.142 3.357 7.5 7.5 7.5h148c4.143 0 7.5-3.358 7.5-7.5v-56.738h9.159c15.163 0 27.5-12.337 27.5-27.501s-12.337-27.501-27.5-27.501h-9.159v-20.752l8.077 1.846c1.958.447 3.914.662 5.843.662 11.977 0 22.838-8.277 25.629-20.455l12.643-55.171c.925-4.038-1.598-8.061-5.636-8.986-4.036-.926-8.061 1.598-8.985 5.635l-12.643 55.171c-1.394 6.082-7.451 9.903-13.509 8.52l-55.506-12.687 5.595-24.48 32.157 7.35c2.69.613 5.46.143 7.798-1.329 2.33-1.468 3.951-3.756 4.564-6.441l27.854-121.873c.748-3.272 2.72-6.057 5.553-7.841 2.825-1.781 6.172-2.353 9.423-1.609 3.251.743 6.018 2.712 7.79 5.546 1.776 2.84 2.343 6.207 1.593 9.48l-13.336 58.192c-.925 4.037 1.598 8.061 5.635 8.986 4.042.922 8.062-1.598 8.986-5.635l13.336-58.192c1.644-7.172.401-14.554-3.497-20.785-3.903-6.24-9.999-10.578-17.165-12.216zm-67.199 321.303h-133v-15.001h133zm36.659-76.739c0 6.893-5.607 12.5-12.5 12.5h-16.582c-.026 0-.051-.004-.077-.004s-.051.004-.077.004h-14.092c-6.893 0-12.5-5.608-12.5-12.5 0-6.893 5.607-12.5 12.5-12.5h30.828c6.893 0 12.5 5.608 12.5 12.5zm-90.023-260.358c2.587-3.334 3.75-9.615 7.224-32.939 1.713-11.5 4.389-29.464 6.721-37.497 35.81 11.191 59.911 18.566 77.676 20.567.855.096 1.675.16 2.503.23-.256 2.628-.657 5.25-1.243 7.839l-12.082 53.42c-8.118 35.892-43.918 58.489-79.812 50.369l-.389-.088c-26.756-6.052-46.88-27.882-51.169-54.446 7.701-.383 15.017-3.82 20.645-9.406.018.428.033.824.044 1.176.109 3.651 2.834 6.693 6.451 7.202.883.125 2.919.364 5.494.364 5.521.001 13.52-1.1 17.937-6.791zm28.719 115.54h-18.206v-3.402c0-6.394 5.202-11.596 11.596-11.596h6.61zm-75.282-161.106c4.127.934 7.637 3.676 9.88 7.723 2.4 4.328 3.075 9.571 1.9 14.762-2.351 10.397-11.455 17.23-20.311 15.228-3.577-.809-6.191-3.278-7.77-7.338-1.735-4.465-1.974-10.376-.652-16.216 1.047-4.631 4.375-14.551 13.629-14.551 1.033 0 2.14.124 3.324.392zm4.927 100.942c10.536 10.254 23.868 17.75 38.925 21.156l.389.088c1.897.429 3.793.78 5.687 1.071v15.599c-.119.119-.234.242-.351.363-4.838-4.997-11.608-8.112-19.096-8.112h-25.554zm25.554 45.166c6.394 0 11.596 5.202 11.596 11.596v3.402h-58.15v-14.998zm25.736 82.757-39.635-9.059c-6.412-1.465-10.753-7.288-10.097-13.544.411-3.919 2.532-7.354 5.82-9.425 2.829-1.783 6.177-2.356 9.426-1.613l40.08 9.161zm55.99-50.609c-4.03-8.703-12.174-15.121-21.925-16.743v-22.905c0-4.142-3.357-7.5-7.5-7.5h-14.11c-1.271 0-2.521.095-3.745.269v-7.224c29.258-.957 56.006-17.701 69.652-43.57-.143.498-.277 1.001-.393 1.51z"/></g></g></svg>