<svg height="512" viewBox="0 0 58 58" width="512" xmlns="http://www.w3.org/2000/svg"><g id="Page-1" fill="none" fill-rule="evenodd"><g id="029---Preparing-Vegetables" fill-rule="nonzero" transform="translate(-1)"><path id="Shape" d="m15 52c-2.209 0-4-4.477-4-10s1.791-10 4-10c2 0 6 2 9 2 2.209 0 4 4.029 4 9s-1.791 9-4 9z" fill="#f29c1f"/><path id="Shape" d="m21 49c-.3464401-.000185-.6681037-.1796678-.8501945-.4743943-.1820909-.2947265-.1986643-.6627032-.0438055-.9726057 1.794-3.588-.035-9.181-.053-9.237-.1128959-.3394023-.0361471-.7132523.201336-.9807242.237483-.2674719.599621-.3879304.95-.316.350379.0719305.6357681.3253219.748664.6647242.088.261 2.107 6.442-.053 10.763-.1702259.3406694-.5191744.5550788-.9.553z" fill="#e57e25"/><path id="Shape" d="m15.707 41.293c-1.8459491-1.6145663-4.069673-2.7369192-6.465-3.263-2.64822403-.6663513-5.45255203-.257207-7.8 1.138-.4491666.309565-.5673602.9219935-.26564763 1.376472.30171258.4544784.91199462.583297 1.37164763.289528 1.88187613-1.0726437 4.10372117-1.3819194 6.207-.864.76615304.1901673 1.5166678.4385559 2.245.743-3.68728914.287777-7.1411725 1.9172358-9.708 4.58-.25995658.2510745-.3642126.6228779-.27269716.9725073.09151544.3496295.3645604.6226744.71418984.7141899.34962943.0915154.72143285-.0127406.97250732-.2726972 2.27665297-2.3701496 5.35834098-3.8018253 8.638-4.013-3.4078112 2.0735355-5.99040286 5.265459-7.307 9.031l-.337 1.189 1.924.549.34-1.188c1.58989455-4.3514293 5.0298089-7.7722941 9.39-9.338.3190847-.1175026.5560708-.389814.6283962-.7220653s-.0300258-.6784306-.2713962-.9179347z" fill="#26b99a"/><path id="Rectangle-path" d="m24.222 14.435h6.083v4h-6.083z" fill="#7f8c8d" transform="matrix(.707 .707 -.707 .707 19.606 -14.465)"/><rect id="Rectangle-path" fill="#a56a43" height="6" rx="1" width="58" x="1" y="52"/><path id="Shape" d="m20.8474888 26.7519392h34.153c0 6.627417-5.372583 12-12 12h-20.153c-1.1045695 0-2-.8954305-2-2z" fill="#95a5a5" transform="matrix(.707 .707 -.707 .707 34.267 -17.223)"/><path id="Shape" d="m27.26 13.61-4.24 4.24c-1.1712702 1.1698135-3.0687298 1.1698135-4.24 0l-1.41-1.41-1.42-1.42-3.53-3.53-3.54-3.54c-1.16981351-1.17127019-1.16981351-3.06872981 0-4.24l2.83-2.83c1.1712702-1.16981351 3.0687298-1.16981351 4.24 0l11.31 11.31c.3899779.3930079.3899779 1.0269921 0 1.42z" fill="#e64c3c"/><path id="Shape" d="m19.49 14.31-2.12 2.13-1.42-1.42 2.12-2.12c.3930079-.3899779 1.0269921-.3899779 1.42 0 .3877236.3900375.3877236 1.0199625 0 1.41z" fill="#c03a2b"/><path id="Shape" d="m14.54 9.36-2.12 2.13-1.42-1.42 2.12-2.12c.3930079-.38997787 1.0269921-.38997787 1.42 0 .3877236.39003745.3877236 1.01996255 0 1.41z" fill="#c03a2b"/><rect id="Rectangle-path" fill="#f29c1f" height="4" rx="1" width="14" x="43" y="48"/><path id="Shape" d="m54.24 40.59c-4.6887376 4.6798514-12.2812624 4.6798514-16.97 0l-14.25-14.26c-.3744562-.3736892-.5848881-.8809811-.5848881-1.41s.2104319-1.0363108.5848881-1.41l1.42-1.42 15.66 15.67c3.1237697 3.1217228 8.1862303 3.1217228 11.31 0z" fill="#7f8c8d"/></g></g></svg>