<svg id="Capa_1" enable-background="new 0 0 504.489 504.489" height="512" viewBox="0 0 504.489 504.489" width="512" xmlns="http://www.w3.org/2000/svg"><g><g><path d="m289.38 462.086c-.92 0-1.854-.17-2.762-.529l-82.312-32.625c-2.858-1.134-4.736-3.897-4.736-6.973v-70.749c0-4.143 3.357-7.5 7.5-7.5s7.5 3.357 7.5 7.5v65.654l77.575 30.747c3.851 1.526 5.735 5.886 4.209 9.736-1.166 2.945-3.989 4.739-6.974 4.739z" fill="#fde588"/></g><path d="m288.787 489.489h-22.092v-130.909c0-4.143-3.357-7.5-7.5-7.5s-7.5 3.357-7.5 7.5v137.105c0 .666.095 1.307.258 1.921.315 3.853 3.535 6.882 7.469 6.882h29.365c4.143 0 7.5-3.357 7.5-7.5s-3.357-7.499-7.5-7.499z" fill="#fdd76f"/><g><path clip-rule="evenodd" d="m464.153 65.095c-7.837 2.707-9.637 5.831-13.996 15.401-2.013 4.42-5.455 11.654-1.679 22.893 13.804 15.732 9.75 38.974 11.083 39.768 20.153-19.076 23.356-37.671 18.31-54.054-2.663-8.702-7.68-16.808-13.718-24.008z" fill="#7e707d" fill-rule="evenodd"/></g><g><path clip-rule="evenodd" d="m421.155 32.215c-8.356 3.566-12.318 13.685-13.977 23.403-1.766 10.345-2.397 18.68 2.129 28.128 12.613-1.389 26.757 5.499 39.172 19.643 9.013-16.128 13.492-28.855 15.674-38.294-14.568-17.376-35.061-29.564-42.998-32.88z" fill="#fde588" fill-rule="evenodd"/></g><g><path clip-rule="evenodd" d="m74.986 215.806c-28.004 28.147-47.505 67.745-50.481 117.49 46.513-30.584 95.322-11.48 119.244-2.211 51.19 23.526 152.152 41.554 203.285 15.051 63.548-32.937 38.633-128.573 24.66-187.956-3.883-16.554-5.017-21.769-9.212-38.124-2.098-8.163-4.252-20.323-5.555-34.383 28.373 12.018 41.269 4.79 52.38-1.927 14.937-8.73 18.112-37.132 11.848-51.531-12.868-35.233-96.399-55.811-107.822 15.59-5.017 31.35 18.395 108.788 28.344 167.094 2.976 17.489 20.039 97.167-13.662 88.182-23.724-3.656-.567-67.546-38.01-101.334-13.379-11.792-28.486-20.522-44.501-26.389-5.667 3.429-183.811 43.849-170.518 40.448z" fill="#fe8d94" fill-rule="evenodd"/></g><g><path clip-rule="evenodd" d="m141.539 305.093c-22.902-8.872-68.48-26.729-113.094-1.559-1.984 9.467-3.316 19.388-3.94 29.762 46.513-30.584 95.322-11.48 119.244-2.211 17.233 7.937 40.107 15.221 64.823 20.408 16.44 3.43 33.673 5.952 50.623 7.086 33.276 2.239 65.362-.794 87.839-12.444 41.354-21.429 45.237-69.445 39.058-116.725 1.275 38.039-7.511 73.244-41.269 90.733-51.16 26.504-152.123 8.476-203.284-15.05z" fill="#ff6d75" fill-rule="evenodd"/></g><g><path d="m376.796 49.622c-4.143 0-7.5-3.344-7.5-7.486v-.028c0-4.143 3.357-7.5 7.5-7.5s7.5 3.357 7.5 7.5-3.357 7.514-7.5 7.514z" fill="#6a5c6b"/></g><g><path clip-rule="evenodd" d="m213.958 163.849c-67.459-6.661-111.903 31.406-160.089 31.321 6.037 9.892 13.549 17.064 21.768 22.223 25.538 16.043 57.822 12.415 74.347 9.155 0 16.412-17.999 27.353-24.064 33.079 20.55 16.213 76.218 4.167 90.815-11.111 4.025 22.251-13.293 43.255-27.211 42.036 71.938 41.355 122.873-47.053 82.879-96.487-5.952-7.341-13.067-13.521-21.173-18.339-10.741-6.406-23.27-10.488-37.272-11.877z" fill="#ffdecf" fill-rule="evenodd"/></g><g><path clip-rule="evenodd" d="m125.921 259.627c20.55 16.213 76.218 4.167 90.815-11.111 1.701-5.584 7.426-17.801-3.004-26.673-10.998 15.618-48.809 31.973-73.922 25.709-5.159 5.272-10.941 9.297-13.889 12.075z" fill="#ffcebe" fill-rule="evenodd"/></g><g><path clip-rule="evenodd" d="m158.29 207.586c-16.525 3.26-48.809 6.888-74.347-9.155-2.664-1.672-5.244-3.571-7.738-5.697-7.426 1.531-14.852 2.438-22.335 2.438 6.037 9.892 13.549 17.064 21.768 22.223 25.538 16.043 57.822 12.415 74.347 9.155 4.62-5.217 8.305-11.538 8.305-18.964z" fill="#ffcebe" fill-rule="evenodd"/></g><g><path clip-rule="evenodd" d="m189.526 290.552c71.938 41.355 122.873-47.053 82.879-96.487-3.883-4.762-8.22-9.042-13.01-12.784-2.579-2.013-5.3-3.883-8.163-5.556-7.795-4.677-16.553-8.078-26.133-10.148.255.17.539.312.794.454v.028c5.244 3.118 10.034 6.774 14.399 10.998 2.381 2.296 4.648 4.734 6.746 7.341 35.117 43.398.197 116.783-57.512 106.154z" fill="#ffcebe" fill-rule="evenodd"/></g></g></svg>