<svg id="Capa_1" enable-background="new 0 0 512 512" height="512" viewBox="0 0 512 512" width="512" xmlns="http://www.w3.org/2000/svg"><g><path d="m477.55 290.52c-2.49 16.09-6.69 31.6-12.4 46.37l29.81 17.21-34.52 59.8-29.86-17.25c-10.07 12.48-21.45 23.86-33.93 33.93l17.25 29.86-59.8 34.52-17.21-29.81c-14.77 5.71-30.28 9.91-46.37 12.4v34.45h-69.04v-34.45c-16.09-2.49-31.6-6.69-46.37-12.4l-17.21 29.81-59.8-34.52 17.25-29.86c-12.48-10.07-23.86-21.45-33.93-33.93l-29.86 17.25-34.52-59.8 29.81-17.21c-5.71-14.77-9.91-30.28-12.4-46.37h-34.45v-69.04h34.45c2.49-16.09 6.69-31.6 12.4-46.37l-29.81-17.21 34.52-59.8 29.86 17.25c10.07-12.48 21.45-23.86 33.93-33.93l-17.25-29.86 59.8-34.52 17.21 29.81c14.77-5.71 30.28-9.91 46.37-12.4v-34.45h69.04v34.45c16.09 2.49 31.6 6.69 46.37 12.4l17.21-29.81 59.8 34.52-17.25 29.86c12.48 10.07 23.86 21.45 33.93 33.93l29.86-17.25 34.52 59.8-29.81 17.21c5.71 14.77 9.91 30.28 12.4 46.37h34.45v69.04z" fill="#f0f7ff"/><path d="m477.55 290.52c-2.49 16.09-6.69 31.6-12.4 46.37l29.81 17.21-34.52 59.8-29.86-17.25c-10.07 12.48-21.45 23.86-33.93 33.93l17.25 29.86-59.8 34.52-17.21-29.81c-14.77 5.71-30.28 9.91-46.37 12.4v34.45h-34.52v-512h34.52v34.45c16.09 2.49 31.6 6.69 46.37 12.4l17.21-29.81 59.8 34.52-17.25 29.86c12.48 10.07 23.86 21.45 33.93 33.93l29.86-17.25 34.52 59.8-29.81 17.21c5.71 14.77 9.91 30.28 12.4 46.37h34.45v69.04z" fill="#d7e9fc"/><path d="m416 258.81c0 10.96-1.1 21.66-3.2 32l-156.8 81.45-64 33.24c-36.91-16.13-66.56-45.78-82.69-82.69 0 0 50.69-192 50.68-192h.01c26.74-20.1 59.98-32 96-32 52.35 0 98.82 25.14 128.01 64l28.79 64c2.1 10.34 3.2 21.04 3.2 32z" fill="#00b3ff"/><path d="m416 258.81c0 10.96-1.1 21.66-3.2 32l-156.8 81.45v-273.45c52.35 0 98.82 25.14 128.01 64l28.79 64c2.1 10.34 3.2 21.04 3.2 32z" fill="#3a80e8"/><path d="m256 226.81c0 17.68-14.33 32-32 32h-32c-17.059-.088-31.847 14.031-32 32 0 17.68-14.33 32-32 32h-18.69c-8.56-19.59-13.31-41.24-13.31-64 0-52.34 25.13-98.81 63.99-128 17.061-.095 31.859 14.029 32.01 32-.082 17.06 14.017 31.847 32 32 17.059-.088 31.847 14.031 32 32z" fill="#bde760"/><path d="m412.8 290.81c-14.82 73.03-79.39 128-156.8 128-22.75 0-44.4-4.75-64-13.31v-18.69c0-17.67 14.33-32 32-32h32c17.06.08 31.85-14.02 32-32 0-17.67 14.33-32 32-32z" fill="#bde760"/><g fill="#00d880"><path d="m412.8 290.81c-14.82 73.03-79.39 128-156.8 128v-64c17.06.08 31.85-14.02 32-32 0-17.67 14.33-32 32-32z"/><path d="m412.8 226.81h-61.88c-16.856.079-31.49-13.865-31.64-31.64 0-17.87 14.49-32.36 32.36-32.36h32.37c13.97 18.61 23.99 40.35 28.79 64z"/></g></g></svg>