<?xml version="1.0"?>
<svg xmlns="http://www.w3.org/2000/svg" xmlns:xlink="http://www.w3.org/1999/xlink" xmlns:svgjs="http://svgjs.com/svgjs" version="1.1" width="512" height="512" x="0" y="0" viewBox="0 0 512 512.001" style="enable-background:new 0 0 512 512" xml:space="preserve" class=""><circle r="256" cx="256" cy="256.0005" fill="#b52c2c" shape="circle"/><g transform="matrix(0.7,0,0,0.7,76.80000000000001,76.80000000000001)"><path xmlns="http://www.w3.org/2000/svg" d="m467.304688 0h-128.15625c-11.894532 0-23.183594 4.523438-31.78125 12.734375l-39.363282 37.574219c-5.992187 5.71875-6.214844 15.214844-.492187 21.207031 5.71875 5.992187 15.214843 6.214844 21.207031.492187l39.363281-37.574218c2.992188-2.859375 6.921875-4.433594 11.066407-4.433594h128.15625c8.101562 0 14.695312 6.582031 14.695312 14.675781v352.851563c0 8.089844-6.59375 14.671875-14.695312 14.671875h-63.457032c-8.285156 0-15 6.71875-15 15 0 8.285156 6.714844 15 15 15h63.457032c24.644531 0 44.695312-20.039063 44.695312-44.671875v-352.851563c0-24.636719-20.050781-44.675781-44.695312-44.675781zm0 0" fill="#36f1ff" data-original="#36f1ff" style="" class=""/><path xmlns="http://www.w3.org/2000/svg" d="m243.996094 50.308594-39.359375-37.574219c-8.601563-8.210937-19.890625-12.734375-31.785157-12.734375h-128.15625c-24.644531 0-44.695312 20.039062-44.695312 44.675781v352.851563c0 24.632812 20.050781 44.671875 44.695312 44.671875h63.457032c8.285156 0 15-6.714844 15-15 0-8.285157-6.714844-15-15-15h-63.457032c-8.101562 0-14.695312-6.582031-14.695312-14.671875v-352.851563c0-8.09375 6.59375-14.675781 14.695312-14.675781h128.15625c4.144532 0 8.074219 1.574219 11.066407 4.433594l39.363281 37.574218c5.992188 5.722657 15.488281 5.5 21.210938-.492187 5.71875-5.992187 5.496093-15.488281-.496094-21.207031zm0 0" fill="#c5feff" data-original="#c5feff" style="" class=""/><path xmlns="http://www.w3.org/2000/svg" d="m418.851562 380.261719v93.878906c0 20.878906-16.980468 37.859375-37.859374 37.859375h-249.980469c-20.882813 0-37.859375-16.980469-37.859375-37.859375v-93.878906c0-20.878907 16.976562-37.859375 37.859375-37.859375h249.980469c20.878906 0 37.859374 16.980468 37.859374 37.859375zm0 0" fill="#ffbb10" data-original="#ffbb10" style="" class=""/><path xmlns="http://www.w3.org/2000/svg" d="m418.851562 380.261719v93.878906c0 20.878906-16.980468 37.859375-37.859374 37.859375h-125.011719v-169.597656h125.011719c20.878906 0 37.859374 16.980468 37.859374 37.859375zm0 0" fill="#ff7c10" data-original="#ff7c10" style=""/><path xmlns="http://www.w3.org/2000/svg" d="m199.535156 412.199219h-9.394531v-9.371094c0-8.285156-6.714844-15-15-15-8.28125 0-15 6.714844-15 15v9.371094h-9.390625c-8.285156 0-15 6.71875-15 15 0 8.285156 6.714844 15 15 15h9.390625v9.375c0 8.285156 6.71875 15 15 15 8.285156 0 15-6.714844 15-15v-9.375h9.394531c8.28125 0 15-6.714844 15-15 0-8.285157-6.71875-15-15-15zm0 0" fill="#ffffff" data-original="#ffffff" style=""/><path xmlns="http://www.w3.org/2000/svg" d="m359.683594 412.199219h-48.78125c-8.285156 0-15 6.71875-15 15 0 8.285156 6.714844 15 15 15h48.78125c8.285156 0 15-6.714844 15-15 0-8.285157-6.714844-15-15-15zm0 0" fill="#c5feff" data-original="#c5feff" style="" class=""/><path xmlns="http://www.w3.org/2000/svg" d="m305.289062 123.144531c-.988281-.703125-2.148437-2.53125-2.148437-5.371093v-17.050782l-47.140625-20-47.179688 20-.03125 17.050782c0 1.828124-1.097656 4.628906-4.089843 6.898437-21.867188 16.410156-34.410157 41.402344-34.410157 68.582031 0 22.828125 8.851563 44.308594 24.921876 60.460938 16.128906 16.21875 37.710937 25.1875 60.738281 25.269531h.050781c23.351562 0 45.089844-9.070313 61.21875-25.550781 15.792969-16.140625 24.492188-37.511719 24.492188-60.179688 0-27.832031-13.621094-54.042968-36.421876-70.109375zm0 0" fill="#ffd60d" data-original="#ffd60d" style=""/><path xmlns="http://www.w3.org/2000/svg" d="m305.289062 123.144531c-.988281-.703125-2.148437-2.53125-2.148437-5.371093v-17.050782l-47.160156-20v198.257813h.019531c23.351562 0 45.089844-9.070313 61.21875-25.546875 15.792969-16.140625 24.492188-37.511719 24.492188-60.179688 0-27.832031-13.621094-54.042968-36.421876-70.109375zm0 0" fill="#ffbb10" data-original="#ffbb10" style="" class=""/><path xmlns="http://www.w3.org/2000/svg" d="m303.140625 77.953125v22.769531h-94.320313l.039063-22.800781c0-18.878906 15.382813-34.257813 34.28125-34.257813h25.71875c18.902344 0 34.28125 15.378907 34.28125 34.289063zm0 0" fill="#667cff" data-original="#667cff" style=""/><path xmlns="http://www.w3.org/2000/svg" d="m303.140625 77.953125v22.769531h-47.160156v-57.058594h12.878906c18.902344 0 34.28125 15.378907 34.28125 34.289063zm0 0" fill="#5a39ff" data-original="#5a39ff" style=""/></g></svg>
