<svg id="Layer_3" enable-background="new 0 0 64 64" height="512" viewBox="0 0 64 64" width="512" xmlns="http://www.w3.org/2000/svg"><g><g><path d="m8 54h2v3h-2z" fill="#8892a0"/></g><g><path d="m1 51h5v2h-5z" fill="#8892a0"/></g><g><path d="m12 53v-2h8l22.453-1.874c.312-.026.547-.282.547-.595 0-.32-.251-.582-.571-.596l-21.472-.895c-1.097-.045-1.957-.941-1.957-2.04s.86-1.995 1.957-2.041l22.002-.916-22.002-1.002c-1.097-.046-1.957-.942-1.957-2.041s.86-1.995 1.957-2.041l22.002-.916-22.002-1.002c-1.097-.046-1.957-.942-1.957-2.041s.86-1.995 1.957-2.041l22.002-.916-22.002-1.002c-1.097-.046-1.957-.942-1.957-2.041s.86-1.995 1.957-2.041l22.002-.916-22.002-1.002c-1.097-.046-1.957-.942-1.957-2.041s.86-1.995 1.957-2.041l22.002-.916-21.471-.98c-1.395-.058-2.488-1.197-2.488-2.594 0-1.339 1.045-2.476 2.38-2.587l22.537-1.878 8.083-.004v2h-8l-22.453 1.874c-.312.026-.547.282-.547.595 0 .32.251.582.571.596l21.472.895c1.097.045 1.957.941 1.957 2.04s-.86 1.995-1.957 2.041l-22.002.916 22.002 1.002c1.097.046 1.957.942 1.957 2.041s-.86 1.995-1.957 2.041l-22.002.916 22.002 1.002c1.097.046 1.957.942 1.957 2.041s-.86 1.995-1.957 2.041l-22.002.916 22.002 1.002c1.097.046 1.957.942 1.957 2.041s-.86 1.995-1.957 2.041l-22.002.916 22.002 1.002c1.097.046 1.957.942 1.957 2.041s-.86 1.995-1.957 2.041l-22.002.916 21.471.98c1.395.058 2.488 1.197 2.488 2.594 0 1.339-1.045 2.476-2.38 2.587l-22.537 1.878z" fill="#4d5d7a"/></g><g><path d="m54 6h2v3h-2z" fill="#8892a0"/></g><g><path d="m58 10h5v2h-5z" fill="#8892a0"/></g><g><path d="m14 49h2v6h-2z" fill="#8892a0"/></g><g><path d="m48 8h2v6h-2z" fill="#8892a0"/></g><g fill="#3d98f7"><path d="m6 50h6v4h-6z"/><path d="m52 9h6v4h-6z" transform="matrix(-1 0 0 -1 110 22)"/></g></g></svg>