<?xml version="1.0" encoding="iso-8859-1"?>
<!-- Generator: Adobe Illustrator 19.0.0, SVG Export Plug-In . SVG Version: 6.00 Build 0)  -->
<svg version="1.1" id="Capa_1" xmlns="http://www.w3.org/2000/svg" xmlns:xlink="http://www.w3.org/1999/xlink" x="0px" y="0px"
	 viewBox="0 0 512.001 512.001" style="enable-background:new 0 0 512.001 512.001;" xml:space="preserve">
<g>
	<path style="fill:#FE9923;" d="M512.001,194.702c0,8.399-6.601,15-15,15c-8.101,0-15-6.601-15-15
		c0-44.101-17.1-85.501-48.301-116.4C402.801,47.1,361.4,30,317.299,30c-8.399,0-15-6.899-15-15c0-8.399,6.601-15,15-15
		C369.2,0,418.399,20.101,455,57.001C491.9,93.602,512.001,142.8,512.001,194.702z"/>
	<path style="fill:#FE9923;" d="M452.001,194.702c0,8.399-6.601,15-15,15c-8.101,0-15-6.601-15-15c0-27.9-10.801-54.3-30.601-74.101
		C371.599,100.801,345.199,90,317.299,90c-8.399,0-15-6.899-15-15c0-8.399,6.601-15,15-15c36,0,69.901,13.801,95.4,39.302
		C438.2,124.801,452.001,158.701,452.001,194.702z"/>
	<path style="fill:#FE9923;" d="M392.001,194.702c0,8.399-6.601,15-15,15c-8.101,0-15-6.601-15-15
		c0-12.001-4.501-23.101-12.902-31.8C340.4,154.501,329.3,150,317.299,150c-8.399,0-15-6.899-15-15c0-8.399,6.601-15,15-15
		c19.801,0,38.701,7.8,52.8,21.901C384.201,156,392.001,174.901,392.001,194.702z"/>
</g>
<path style="fill:#FC5112;" d="M389.025,359.374l-2.999,42.601l-53.101,53.099c-76.5,75.901-199.499,75.901-275.999,0
	c-75.901-76.199-75.901-199.799,0-275.999l53.099-53.101l53.101,4.501l35.4,35.698l-3.6,45l-53.101,52.8
	c-29.099,29.101-29.099,77.1,0,106.201c28.5,28.2,77.701,28.2,106.201,0l52.8-53.101l45-0.901L389.025,359.374z"/>
<path style="fill:#FE8821;" d="M370.1,141.901c14.101,14.099,21.901,33,21.901,52.801c0,8.399-6.601,15-15,15
	c-8.101,0-15-6.601-15-15c0-12.001-4.501-23.101-12.902-31.8L370.1,141.901z"/>
<path style="fill:#E34300;" d="M345.827,316.174l43.198,43.2l-2.999,42.601l-53.101,53.099c-76.5,75.901-199.499,75.901-275.999,0
	l84.899-84.899c28.5,28.2,77.701,28.2,106.201,0l52.8-53.101L345.827,316.174z"/>
<g>
	<path style="fill:#FE8821;" d="M412.699,99.302c25.501,25.499,39.302,59.399,39.302,95.4c0,8.399-6.601,15-15,15
		c-8.101,0-15-6.601-15-15c0-27.9-10.801-54.3-30.601-74.101L412.699,99.302z"/>
	<path style="fill:#FE8821;" d="M512.001,194.702c0,8.399-6.601,15-15,15c-8.101,0-15-6.601-15-15
		c0-44.101-17.1-85.501-48.301-116.4l21.301-21.301C491.9,93.602,512.001,142.8,512.001,194.702z"/>
</g>
<path style="fill:#D9D9D9;" d="M248.027,158.075c5.7-6,5.7-15.3,0-21.301l-63.6-63.6c-6.519-6.515-16.337-5.511-21.301,0
	c-38.56,38.56-28.312,28.361-53.101,52.8l84.901,85.199C221.888,184.214,209.475,196.626,248.027,158.075z"/>
<path style="fill:#C8C6CD;" d="M438.826,327.574l-63.6-63.6c-6-5.7-15.3-5.7-21.301,0c-38.58,38.58-26.138,26.138-53.099,53.101
	l85.199,84.901c24.439-24.789,14.24-14.54,52.8-53.101C444.338,343.911,445.341,334.093,438.826,327.574z"/>
<g>
</g>
<g>
</g>
<g>
</g>
<g>
</g>
<g>
</g>
<g>
</g>
<g>
</g>
<g>
</g>
<g>
</g>
<g>
</g>
<g>
</g>
<g>
</g>
<g>
</g>
<g>
</g>
<g>
</g>
</svg>
