<?xml version="1.0" encoding="iso-8859-1"?>
<!-- Generator: Adobe Illustrator 19.0.0, SVG Export Plug-In . SVG Version: 6.00 Build 0)  -->
<svg version="1.1" id="Capa_1" xmlns="http://www.w3.org/2000/svg" xmlns:xlink="http://www.w3.org/1999/xlink" x="0px" y="0px"
	 viewBox="0 0 490.7 490.7" style="enable-background:new 0 0 490.7 490.7;" xml:space="preserve">
<g>
	<path style="fill:#CFD8DC;" d="M352,0c-36.6,0-71,24.6-96.9,69.3c-2.9,5.1-1.2,11.6,3.9,14.6c2.6,1.5,5.7,1.8,8.6,0.9
		c4.1,1.3,8.6,0.1,11.4-3.2c7-10.1,18.1-16.5,30.3-17.6c35.3,0,74.7,76.7,74.7,186.7s-39.4,186.6-74.7,186.6
		c-11.7-1-22.4-7-29.4-16.5c-2.2-3.2-4.3-6.6-6.4-10.2c-2.5-3.4-6.5-5.3-10.7-5.3c-5.9,0-10.7,4.8-10.7,10.7c0,2.1,0.6,4.1,1.8,5.9
		c2.7,4.2,5.7,8.1,9,11.9c18.2,32.8,51.7,54.2,89.1,56.9c77.8,0,138.7-107.8,138.7-245.3S429.7,0,352,0z"/>
	<path style="fill:#CFD8DC;" d="M138.6,0c36.6,0,71,24.6,96.9,69.3c2.9,5.1,1.2,11.6-3.9,14.6c-2.6,1.5-5.7,1.8-8.6,0.9
		c-4.1,1.3-8.6,0.1-11.4-3.2c-7-10.1-18.1-16.5-30.3-17.6c-35.3,0-74.7,76.7-74.7,186.7s39.4,186.6,74.7,186.6
		c11.7-1,22.4-7,29.4-16.5c2.2-3.2,4.3-6.6,6.4-10.2c2.5-3.4,6.5-5.3,10.7-5.3c5.9,0,10.7,4.8,10.7,10.7c0,2.1-0.6,4.1-1.8,5.9
		c-2.7,4.2-5.7,8.1-9,11.9c-18.2,32.8-51.7,54.2-89.1,56.9C60.9,490.6,0,382.9,0,245.3S60.9,0,138.6,0z"/>
</g>
<path style="fill:#D32F2F;" d="M320,74.6v170.7H170.6V74.6c0-5.9,4.8-10.7,10.7-10.7h128C315.2,64,320,68.7,320,74.6z"/>
<path style="fill:#2196F3;" d="M320,245.3V416c0,5.9-4.8,10.7-10.7,10.7h-128c-5.9,0-10.7-4.8-10.7-10.7V245.3H320z"/>
<g>
	<path style="fill:#FAFAFA;" d="M266.6,213.3c-4,0-7.7-2.3-9.5-5.9l-22.5-44.9v40.1c0,5.9-4.8,10.7-10.7,10.7s-10.7-4.8-10.7-10.7
		v-85.3c0-5.9,4.8-10.7,10.7-10.7c4,0,7.7,2.3,9.5,5.9l22.5,44.9v-40.1c0-5.9,4.8-10.7,10.7-10.7s10.7,4.8,10.7,10.7v85.3
		c0,4.9-3.4,9.3-8.2,10.4C268.3,213.2,267.5,213.3,266.6,213.3z"/>
	<path style="fill:#FAFAFA;" d="M245.3,384c-16.9,0-30.9-13-32-29.9c-0.4-5.9,4.1-11,10-11.3c5.9-0.4,11,4.1,11.3,10
		c0.2,5.9,5.1,10.5,11,10.3c5.9-0.2,10.5-5.1,10.3-11c0-4.8-2-8.2-12.1-10.7l-2.1-0.5c-23.6-6-28.5-20.4-28.5-31.6
		c-0.6-17.7,13.3-32.5,30.9-33.1c17.6-0.6,32.5,13.3,33.1,30.9c0.4,5.9-4.1,11-10,11.3l0,0c-5.8,0.4-10.8-3.9-11.3-9.7
		c0-0.1,0-0.2,0-0.3c-0.2-5.9-5.1-10.5-11-10.3s-10.5,5.1-10.3,11c0,4.8,2.1,8.2,12.2,10.7l2.1,0.5c23.5,5.8,28.4,20.3,28.4,31.4
		c0.1,17.7-14.2,32.1-31.9,32.1C245.4,384,245.4,384,245.3,384z"/>
</g>
<path d="M309.3,256h-128c-5.9,0-10.7-4.8-10.7-10.7c0-5.9,4.8-10.7,10.7-10.7h128c5.9,0,10.7,4.8,10.7,10.7S315.2,256,309.3,256z"/>
<path d="M309.3,458.6c-23.6-2-44.5-15.9-55.5-36.8c-3.3-4.9-1.9-11.5,3-14.8c1.7-1.2,3.8-1.8,5.9-1.8h35.9V85.3h-27.7
	c-5.9,0-10.7-4.8-10.7-10.7c0-2.5,0.9-5,2.6-6.9c11-14.8,28.1-24,46.5-25.1c53.8,0,96,91.4,96,208S363.1,458.6,309.3,458.6z
	 M285.6,426.6c6.3,6.4,14.8,10.2,23.7,10.7c35.3,0,74.7-76.7,74.7-186.7S344.6,64,309.3,64c5.9,0,10.7,4.8,10.7,10.7V416
	c0,5.9-4.8,10.7-10.7,10.7h-23.7V426.6z"/>
<path d="M352,490.6c-36.6,0-71-24.6-96.9-69.3c-2.9-5.1-1.2-11.6,3.9-14.6c1.6-0.9,3.5-1.4,5.3-1.4h34.3v-320h-34.3
	c-5.9,0-10.7-4.8-10.7-10.7c0-1.9,0.5-3.7,1.4-5.3C280.9,24.6,315.3,0,351.9,0c77.8,0,138.7,107.8,138.7,245.3
	S429.7,490.6,352,490.6z M283.9,426.6c14.5,24.4,39.8,40.3,68.1,42.7c63.6,0,117.3-102.6,117.3-224s-53.7-224-117.3-224
	c-28.3,2.4-53.6,18.3-68.1,42.7h25.4c5.9,0,10.7,4.8,10.7,10.7V416c0,5.9-4.8,10.7-10.7,10.7h-25.4V426.6z"/>
<path d="M181.3,458.6c-53.8,0-96-91.4-96-208s42.2-208,96-208c18.5,1,35.5,10.2,46.5,25.1c3.8,4.5,3.3,11.2-1.2,15
	c-1.9,1.7-4.4,2.6-6.9,2.6h-27.8v320h35.8c5.9,0,10.7,4.8,10.7,10.7c0,2.1-0.6,4.1-1.8,5.9C225.7,442.8,204.8,456.6,181.3,458.6z
	 M181.3,64c-35.3,0-74.7,76.7-74.7,186.7s39.4,186.6,74.7,186.6c9-0.5,17.4-4.3,23.7-10.7h-23.7c-5.9,0-10.7-4.8-10.7-10.7V74.6
	C170.6,68.7,175.4,64,181.3,64z"/>
<path d="M138.6,490.6C60.9,490.6,0,382.9,0,245.3S60.9,0,138.6,0c36.6,0,71,24.6,96.9,69.3c2.9,5.1,1.2,11.6-3.9,14.6
	c-1.6,0.9-3.5,1.4-5.3,1.4H192v320h34.3c5.9,0,10.7,4.8,10.7,10.7c0,1.9-0.5,3.7-1.4,5.3C209.6,466,175.2,490.6,138.6,490.6z
	 M138.6,21.3c-63.6,0-117.3,102.6-117.3,224s53.7,224,117.3,224c28.3-2.4,53.6-18.3,68.1-42.7h-25.4c-5.9,0-10.7-4.8-10.7-10.7V74.6
	c0-5.9,4.8-10.7,10.7-10.7h25.4C192.3,39.6,166.9,23.7,138.6,21.3z"/>
<path d="M309.3,426.6h-128c-5.9,0-10.7-4.8-10.7-10.7V74.6c0-5.9,4.8-10.7,10.7-10.7h128c5.9,0,10.7,4.8,10.7,10.7v341.3
	C320,421.9,315.2,426.6,309.3,426.6z M192,405.3h106.7v-320H192V405.3z"/>
<g>
</g>
<g>
</g>
<g>
</g>
<g>
</g>
<g>
</g>
<g>
</g>
<g>
</g>
<g>
</g>
<g>
</g>
<g>
</g>
<g>
</g>
<g>
</g>
<g>
</g>
<g>
</g>
<g>
</g>
</svg>
