<svg id="Capa_1" enable-background="new 0 0 512 512" height="512" viewBox="0 0 512 512" width="512" xmlns="http://www.w3.org/2000/svg"><g><path d="m463.764 248.88c-1.05 4.81 32.386 96.65 28.206 106.54-38.8 92-129.85 156.58-235.97 156.58-141.38 0-256-114.62-256-256 0-2.38.03-4.75.1-7.12.106-3.987 6.667-7.95 6.957-11.888.311-4.231-5.635-8.432-5.117-12.601 15.57-126.471 123.38-224.391 254.06-224.391 108.03 0 200.43 66.92 238.01 161.57 6.65 16.72-27.186 73.23-30.246 87.31z" fill="#365e7d"/><path d="m368.991 404.068h-282.407c-38.75 0-62.96-41.954-43.597-75.501l60.886-105.453 17.166-29.732 63.157-109.392c19.375-33.56 67.807-33.56 87.182 0l35.253 61.071 105.956 183.506c.319.54.614 1.092.908 1.632 17.683 33.265-6.379 73.869-44.504 73.869z" fill="#66b49d"/><path d="m261.76 258.66-70.4-60.95-20.1-17.41 135.37-35.24 187.38 16.51c6.648 16.724 11.581 34.313 14.583 52.55" fill="#dd5790"/><path d="m494.562 253.835c0 3.729 17.358 9.604 17.2 13.295-.635 14.844-2.533 29.36-5.593 43.44-1.05 4.81-9.489 7.576-10.799 12.276l-233.61-64.186-70.4-60.95 309.853 44.54c.24 4.55-6.651 6.976-6.651 11.585z" fill="#73cbfc"/><path d="m512 256c0 3.73-.08 7.44-.24 11.13l-244.8-31.18-45.7-52.23 287.33 30.4c1.52 9.22 2.55 18.6 3.05 28.13.24 4.55.36 9.14.36 13.75z" fill="#ffd064"/><path d="m506.17 310.57c-3.37 15.52-8.15 30.52-14.2 44.85l-78.474-25.221-115.916-40.529-31.18-27z" fill="#5e54ac"/><path d="m121.04 193.38 28.566 14.695-45.726 15.035h-.01l-103.77 25.77c.22-8.27.84-16.44 1.84-24.49z" fill="#f9f6f9"/><path d="m413.5 330.2-307.66-107.58-1.96.49 17.16-29.73 185.59-48.32 105.96 183.51c.32.54.61 1.09.91 1.63z" fill="#78d0b1"/></g></svg>