<svg id="revision" enable-background="new 0 0 300 300" height="512" viewBox="0 0 300 300" width="512" xmlns="http://www.w3.org/2000/svg" xmlns:xlink="http://www.w3.org/1999/xlink"><linearGradient id="SVGID_1_" gradientUnits="userSpaceOnUse" x1="59.674" x2="260.247" y1="232.011" y2="31.437"><stop offset="0" stop-color="#107eff"/><stop offset="1" stop-color="#8f16ff"/></linearGradient><g><path d="m244.918 24h-65.836c-10.524 0-19.082 8.56-19.082 19.082v8.918h-49.062c-10.446 0-18.941 8.273-18.941 18.443v185.926c0 10.824 9.047 19.631 20.168 19.631h87.668c11.121 0 20.168-8.807 20.168-19.631v-148.369h24.918c10.523 0 19.081-8.561 19.081-19.082v-45.836c0-10.522-8.558-19.082-19.082-19.082zm-90.709 239.178c-4.953 0-8.969-4.015-8.969-8.969 0-4.953 4.016-8.969 8.969-8.969s8.969 4.016 8.969 8.969c0 4.954-4.015 8.969-8.969 8.969zm57.791-27.178h-112.004v-140h61.4c2.821 7.018 9.669 12 17.686 12h3.871l-4.035 17.17c-.398 1.691.344 3.447 1.836 4.344.637.383 1.348.571 2.058.571.946 0 1.891-.336 2.637-.992l24.055-21.093h2.496zm44-147.082c0 6.111-4.973 11.082-11.082 11.082h-36.918c-.969 0-1.906.354-2.637.992l-15.801 13.856 2.332-9.934c.278-1.189 0-2.441-.758-3.398-.761-.958-1.913-1.516-3.136-1.516h-8.918c-6.109 0-11.082-4.971-11.082-11.082v-45.836c0-6.111 4.973-11.082 11.082-11.082h65.836c6.109 0 11.082 4.971 11.082 11.082zm-65.722-32.918c0 3.467-2.81 6.278-6.278 6.278-3.467 0-6.278-2.81-6.278-6.278s2.81-6.278 6.278-6.278c3.467 0 6.278 2.811 6.278 6.278zm57.722 0c0 2.209-1.789 4-4 4h-44c-2.211 0-4-1.791-4-4s1.789-4 4-4h44c2.211 0 4 1.791 4 4zm-57.722 24c0 3.467-2.81 6.278-6.278 6.278-3.467 0-6.278-2.81-6.278-6.278s2.81-6.278 6.278-6.278c3.467 0 6.278 2.811 6.278 6.278zm57.722 0c0 2.209-1.789 4-4 4h-44c-2.211 0-4-1.791-4-4s1.789-4 4-4h44c2.211 0 4 1.791 4 4zm-92 48c-26.467 0-48 21.533-48 48s21.533 48 48 48c26.469 0 48-21.533 48-48s-21.531-48-48-48zm0 88c-22.055 0-40-17.943-40-40s17.945-40 40-40 40 17.943 40 40-17.945 40-40 40zm26.356-40c0 14.533-11.824 26.356-26.356 26.356-14.531 0-26.356-11.822-26.356-26.356 0-2.209 1.791-4 4-4 2.211 0 4 1.791 4 4 0 10.121 8.234 18.356 18.356 18.356 10.121 0 18.356-8.234 18.356-18.356s-8.234-18.356-18.356-18.356c-4.136 0-8.046 1.376-11.226 3.845l7.034 1.243c2.176.385 3.629 2.461 3.242 4.637-.34 1.939-2.027 3.303-3.934 3.303-.23 0-.465-.02-.699-.061l-15.113-2.672c-2.145-.379-3.594-2.406-3.258-4.559l2.227-14.215c.344-2.18 2.383-3.676 4.57-3.332 2.184.342 3.676 2.387 3.336 4.57l-.55 3.506c4.218-2.753 9.171-4.266 14.37-4.266 14.532.001 26.357 11.824 26.357 26.357zm-115.998-6.617-4.528 4.51 4.512 4.529c1.559 1.564 1.555 4.098-.012 5.656-.779.778-1.801 1.166-2.822 1.166-1.026 0-2.053-.392-2.834-1.178l-4.511-4.527-4.528 4.512c-.779.777-1.801 1.166-2.822 1.166-1.025 0-2.053-.392-2.834-1.178-1.558-1.564-1.554-4.098.012-5.656l4.527-4.51-4.512-4.529c-1.559-1.564-1.555-4.098.012-5.656 1.562-1.557 4.098-1.557 5.656.012l4.51 4.527 4.528-4.512c1.562-1.556 4.098-1.556 5.656.012 1.56 1.564 1.556 4.097-.01 5.656zm-6.358-101.383c0-6.617-5.383-12-12-12s-12 5.383-12 12 5.383 12 12 12 12-5.383 12-12zm-16 0c0-2.205 1.795-4 4-4s4 1.795 4 4-1.795 4-4 4-4-1.795-4-4zm0 44c0-2.209 1.791-4 4-4s4 1.791 4 4-1.791 4-4 4-4-1.791-4-4zm200 64c0 2.209-1.791 4-4 4s-4-1.791-4-4 1.791-4 4-4 4 1.791 4 4z" fill="url(#SVGID_1_)"/></g></svg>