<svg height="512" viewBox="0 0 128 128" width="512" xmlns="http://www.w3.org/2000/svg"><g><path d="m55.184 58.375 6.1-28.248a4.79 4.79 0 0 0 2.58-2.514 3.145 3.145 0 0 0 -2.113-3.913l-6.328-1.884a3.147 3.147 0 0 0 -3.913 2.117 4.8 4.8 0 0 0 .79 3.517l-10.343 26.988a15.819 15.819 0 0 0 -12.625 11.1l-14.032 47.119 30.353 9.037 14.032-47.125a15.821 15.821 0 0 0 -4.501-16.194z" fill="#2fcad6"/><path d="m25.739 74.825h25.268v31.67h-25.268z" fill="#f4cb1c" transform="matrix(.285 -.958 .958 .285 -59.466 101.57)"/><path d="m72.816 58.375-6.1-28.248a4.79 4.79 0 0 1 -2.58-2.514 3.145 3.145 0 0 1 2.113-3.913l6.328-1.884a3.145 3.145 0 0 1 3.912 2.117 4.792 4.792 0 0 1 -.789 3.517l10.343 26.988a15.819 15.819 0 0 1 12.625 11.1l14.032 47.119-30.353 9.037-14.032-47.125a15.821 15.821 0 0 1 4.501-16.194z" fill="#2fcad6"/><path d="m73.792 78.026h31.67v25.268h-31.67z" fill="#f4cb1c" transform="matrix(.958 -.285 .285 .958 -22.142 29.341)"/><g fill="#022625"><path d="m34.312 116.491-4.312-1.285a1.75 1.75 0 1 0 -1 3.354l4.316 1.285a1.75 1.75 0 1 0 1-3.354z"/><path d="m43.627 58.8a11.163 11.163 0 0 0 -8.808 6.242 1.75 1.75 0 0 0 3.181 1.458 7.628 7.628 0 0 1 5.919-4.216 1.75 1.75 0 0 0 -.292-3.487z"/><path d="m114.374 112.158-14.028-47.125a17.449 17.449 0 0 0 -13.016-12.133l-4.424-11.544a1.75 1.75 0 0 0 -3.269 1.252l4.772 12.456a1.745 1.745 0 0 0 1.35 1.1 13.989 13.989 0 0 1 11.232 9.867l2.031 6.824-27 8.038-2.032-6.824a13.99 13.99 0 0 1 4.01-14.404 1.749 1.749 0 0 0 .529-1.659l-6.1-28.248a1.748 1.748 0 0 0 -1.051-1.252c-.349-.142-1.368-.735-1.563-1.393a1.4 1.4 0 0 1 .939-1.734l6.33-1.885a1.394 1.394 0 0 1 1.734.94 3.047 3.047 0 0 1 -.547 2.02 1.75 1.75 0 0 0 -.2 1.622l2.821 7.36a1.75 1.75 0 0 0 3.268-1.251l-2.525-6.591a5.863 5.863 0 0 0 .533-4.159 4.892 4.892 0 0 0 -6.087-3.295l-6.33 1.884a4.889 4.889 0 0 0 -1.751.948 4.887 4.887 0 0 0 -1.75-.949l-6.328-1.882a4.893 4.893 0 0 0 -6.089 3.294 5.868 5.868 0 0 0 .534 4.159l-9.697 25.306a17.449 17.449 0 0 0 -13.016 12.133l-14.029 47.125a1.752 1.752 0 0 0 1.178 2.177l5.888 1.753a1.751 1.751 0 0 0 1-3.356l-4.211-1.253 3.291-11.052 27 8.038-3.291 11.052-2.262-.674a1.75 1.75 0 0 0 -1 3.355l3.94 1.173a1.773 1.773 0 0 0 .5.072 1.75 1.75 0 0 0 1.676-1.251l4.289-14.406 7.208-24.213v-.006l2.529-8.5a17.444 17.444 0 0 0 -4.26-17.267l5.724-26.5a7.6 7.6 0 0 0 1.176-.858 7.6 7.6 0 0 0 1.176.861l5.724 26.497a17.444 17.444 0 0 0 -4.263 17.272l2.529 8.5v.006l7.208 24.213 4.288 14.406a1.751 1.751 0 0 0 1.678 1.251 1.771 1.771 0 0 0 .5-.072l30.354-9.036a1.75 1.75 0 0 0 1.18-2.182zm-92.6-15.086 6.21-20.863 27 8.038-6.211 20.862zm40.417-69.958c-.188.632-1.141 1.214-1.563 1.392a1.748 1.748 0 0 0 -1.051 1.252l-6.1 28.248a1.751 1.751 0 0 0 .523 1.659 13.99 13.99 0 0 1 4.007 14.4l-2.032 6.824-27-8.038 2.032-6.824a13.989 13.989 0 0 1 11.232-9.867 1.747 1.747 0 0 0 1.35-1.1l10.34-26.988a1.773 1.773 0 0 0 -.189-1.612 3.054 3.054 0 0 1 -.555-2.029 1.394 1.394 0 0 1 1.736-.94l6.328 1.883a1.4 1.4 0 0 1 .942 1.74zm37.83 49.1 6.21 20.863-27 8.037-6.21-20.862zm-16.5 43.308-3.29-11.052 27-8.038 3.29 11.052z"/><path d="m78.934 63.852a1.75 1.75 0 0 0 -2.152-2.761 11.106 11.106 0 0 0 -3.938 9.989 1.751 1.751 0 0 0 1.729 1.491 1.783 1.783 0 0 0 .261-.019 1.749 1.749 0 0 0 1.472-1.989 7.56 7.56 0 0 1 2.628-6.711z"/><path d="m64 18.026a1.75 1.75 0 0 0 1.75-1.75v-9.969a1.75 1.75 0 0 0 -3.5 0v9.969a1.75 1.75 0 0 0 1.75 1.75z"/><path d="m68.537 17.861a1.724 1.724 0 0 0 .74.165 1.75 1.75 0 0 0 1.586-1.008c.023-.049 2.329-4.878 7.227-6.37a1.749 1.749 0 1 0 -1.019-3.348c-6.373 1.939-9.259 7.978-9.379 8.234a1.749 1.749 0 0 0 .845 2.327z"/><path d="m49.91 10.648c4.841 1.475 7.194 6.3 7.229 6.374a1.749 1.749 0 0 0 1.584 1 1.724 1.724 0 0 0 .74-.165 1.749 1.749 0 0 0 .845-2.326c-.121-.252-3.008-6.291-9.379-8.231a1.749 1.749 0 1 0 -1.019 3.347z"/></g></g></svg>