<?xml version="1.0" encoding="utf-8"?>
<!-- Svg Vector Icons : http://www.onlinewebfonts.com/icon -->
<!DOCTYPE svg PUBLIC "-//W3C//DTD SVG 1.1//EN" "http://www.w3.org/Graphics/SVG/1.1/DTD/svg11.dtd">
<svg version="1.1" xmlns="http://www.w3.org/2000/svg" xmlns:xlink="http://www.w3.org/1999/xlink" x="0px" y="0px" viewBox="0 0 1000 1000" enable-background="new 0 0 1000 1000" xml:space="preserve">
<metadata> Svg Vector Icons : http://www.onlinewebfonts.com/icon </metadata>
<g><path d="M347.6,687.7h-82.9L103.9,442c-8.3-12.8-14.4-23-18.1-30.9h-1.2c1.5,13.1,2.2,33.3,2.2,60.6v216H10V307.9h88.3l155,238.8c10.3,15.9,16.6,25.9,18.9,30.2h1.2c-1.6-9.2-2.5-26.6-2.5-52.5V307.9h76.7L347.6,687.7L347.6,687.7z"/><path d="M759.6,687.7h-80.9V531H516.8v156.7h-80.9V307.9h80.9v153.3h161.8V307.9h80.9V687.7z"/><path d="M830.3,632.6c16.9,12.6,36.6,19,59.2,19c14.3,0,25.6-3.2,34-9.5c8.4-6.3,12.6-15.3,12.6-27c0-12-5-21.1-15-27.5c-10-6.3-23.9-9.5-41.9-9.5h-22.6v-40.7h20.8c34,0,51-11.4,51-34.3c0-21.6-13-32.4-39.1-32.4c-17,0-33.5,5.6-49.5,16.7v-43.6c17.4-9,38-13.6,61.6-13.6c24,0,43.4,5.5,58.4,16.6c14.9,11.1,22.4,26.4,22.4,46c0,33.1-16.8,53.9-50.3,62.4v0.8c17.7,2,31.8,8.4,42.3,19.4c10.6,11,15.9,24.3,15.9,40c0,24.1-8.8,42.9-26.4,56.4c-17.6,13.5-41.1,20.3-70.4,20.3c-26,0-47-4.3-62.9-12.9V632.6z"/></g>
</svg>