<svg id="_x33_0" enable-background="new 0 0 64 64" height="512" viewBox="0 0 64 64" width="512" xmlns="http://www.w3.org/2000/svg"><g><g><g><path d="m21 40h1c-2.21 0-4 1.79-4 4s1.79 4 4 4v4 4 2c0 2.21 1.79 4 4 4h-19c-2.76 0-5-2.24-5-5 0-2.53 1.88-4.63 4.33-4.95.03-.12.08-.24.13-.36.9-2.16 3.05-3.69 5.54-3.69 0-1.47-.79-2.76-1.98-3.45-.01-.18-.02-.36-.02-.55 0-3.31 2.69-6 6-6 .37 0 .73.03 1.07.1h.01c.91 1.16 2.33 1.9 3.92 1.9z" fill="#e6e9ed"/></g><g><path d="m32 33v3h-11c-.55 0-1 .45-1 1v2c0 .55.45 1 1 1-1.59 0-3.01-.74-3.92-1.9-.68-.85-1.08-1.93-1.08-3.1 0-2.76 2.24-5 5-5 .63 0 1.22.11 1.78.32.25-.39.56-.75.9-1.06.89-.78 2.05-1.26 3.32-1.26 2.76 0 5 2.24 5 5z" fill="#e6e9ed"/></g><g><path d="m38 22c2.21 0 4 1.79 4 4 0 1.34-.66 2.53-1.68 3.26-.89-.78-2.05-1.26-3.32-1.26-2.76 0-5 2.24-5 5 0-2.76-2.24-5-5-5-1.27 0-2.43.48-3.32 1.26-1.02-.73-1.68-1.92-1.68-3.26 0-2.21 1.79-4 4-4v1h4 4 4z" fill="#e6e9ed"/></g><g><path d="m43 36h-11v-3c0-2.76 2.24-5 5-5 1.27 0 2.43.48 3.32 1.26.34.31.65.67.9 1.06.56-.21 1.15-.32 1.78-.32 2.76 0 5 2.24 5 5 0 1.17-.4 2.25-1.08 3.1-.91 1.16-2.33 1.9-3.92 1.9.55 0 1-.45 1-1v-2c0-.55-.45-1-1-1z" fill="#e6e9ed"/></g><g><path d="m57.67 52.05c2.45.32 4.33 2.42 4.33 4.95 0 2.76-2.24 5-5 5h-19c2.21 0 4-1.79 4-4v-10c2.21 0 4-1.79 4-4s-1.79-4-4-4h1c1.59 0 3.01-.74 3.92-1.9h.01c.34-.07.7-.1 1.07-.1 3.31 0 6 2.69 6 6 0 .19-.01.37-.02.55-1.19.69-1.98 1.98-1.98 3.45 2.49 0 4.64 1.53 5.54 3.69.05.12.1.24.13.36z" fill="#e6e9ed"/></g><g><path d="m22 44v4c-2.21 0-4-1.79-4-4s1.79-4 4-4z" fill="#69d6f4"/></g><g><path d="m10.02 44.55c1.19.69 1.98 1.98 1.98 3.45-2.49 0-4.64 1.53-5.54 3.69-1.44-.6-2.46-2.03-2.46-3.69 0-2.21 1.79-4 4-4 .73 0 1.43.2 2.02.55z" fill="#69d6f4"/></g><g><circle cx="10" cy="24" fill="#69d6f4" r="6"/></g><g><circle cx="48" cy="24" fill="#69d6f4" r="2"/></g><g><circle cx="58" cy="33" fill="#69d6f4" r="4"/></g><g><path d="m52 48c0-1.47.79-2.76 1.98-3.45.59-.35 1.29-.55 2.02-.55 2.21 0 4 1.79 4 4 0 1.66-1.02 3.09-2.46 3.69-.9-2.16-3.05-3.69-5.54-3.69z" fill="#69d6f4"/></g><g><path d="m42 40c2.21 0 4 1.79 4 4s-1.79 4-4 4z" fill="#69d6f4"/></g><g><circle cx="16" cy="56" fill="#69d6f4" r="2"/></g><g><circle cx="48" cy="56" fill="#69d6f4" r="2"/></g><g><path d="m44 37v2c0 .55-.45 1-1 1h-1-20-1c-.55 0-1-.45-1-1v-2c0-.55.45-1 1-1h11 11c.55 0 1 .45 1 1z" fill="#aab2bd"/></g><g><path d="m22 56v-4-4-4-4h20v8 10c0 2.21-1.79 4-4 4h-12c-2.21 0-4-1.79-4-4z" fill="#ffeaa7"/></g><g><circle cx="34" cy="56" fill="#4fc1e9" r="2"/></g><g><circle cx="36" cy="46" fill="#4fc1e9" r="2"/></g><g><path d="m20 6h4v8h-18c-1.1 0-2.1-.45-2.83-1.17-.72-.73-1.17-1.73-1.17-2.83 0-2.21 1.79-4 4-4h2 4 4z" fill="#ffeaa7"/></g><g><path d="m28 14v1c0 .55-.45 1-1 1h-2c-.55 0-1-.45-1-1v-1-8-1c0-.55.45-1 1-1h2c.55 0 1 .45 1 1z" fill="#fcd770"/></g><g><path d="m40 14v1c0 .55-.45 1-1 1h-2c-.55 0-1-.45-1-1v-1-7c0-.55.45-1 1-1h2c.55 0 1 .45 1 1v1z" fill="#b4dd7f"/></g><g><path d="m48 14h-8v-6h4 4l8.17-5.45c.54-.36 1.18-.55 1.83-.55s1.29.19 1.83.55l1.28.86c.56.37.89.99.89 1.66v6.93c-2.33 0-2.33 2-4.66 2-2.34 0-2.34-2-4.67-2-2.34 0-2.34 2-4.67 2z" fill="#e6e9ed"/></g><g><path d="m62 12v4.93c0 .67-.33 1.29-.89 1.66l-1.28.86c-.54.36-1.18.55-1.83.55s-1.29-.19-1.83-.55l-8.17-5.45c2.33 0 2.33-2 4.67-2 2.33 0 2.33 2 4.67 2 2.33 0 2.33-2 4.66-2z" fill="#69d6f4"/></g></g><g><path d="m61.664 2.574-1.277-.852c-1.417-.945-3.356-.945-4.773 0l-7.917 5.278h-6.697c0-1.103-.897-2-2-2h-2c-1.103 0-2 .897-2 2v6.184c-1.161.414-2 1.514-2 2.816v7h2v-7c0-.15.038-.288.097-.416.252.817 1.005 1.416 1.903 1.416h2c1.103 0 2-.897 2-2h6.697l7.916 5.277c.709.473 1.534.723 2.387.723s1.678-.25 2.387-.723l1.277-.852c.836-.557 1.336-1.49 1.336-2.495v-11.86c0-1.005-.5-1.938-1.336-2.496zm-22.664 12.426h-2l-.001-8h.001 2zm2-2v-4h2v2h2v-2h2v2h2v-2.465l7.723-5.148c.759-.506 1.796-.506 2.555 0l1.277.852c.278.185.445.496.445.831v6.042c-.917.217-1.496.711-1.983 1.129-.533.457-.885.759-1.682.759s-1.15-.302-1.683-.759c-.645-.553-1.447-1.241-2.984-1.241s-2.34.688-2.985 1.241c-.533.457-.886.759-1.683.759zm19.555 4.762-1.277.852c-.759.506-1.796.506-2.555 0l-6.446-4.298c.265-.181.497-.375.709-.556.532-.458.885-.76 1.682-.76s1.149.302 1.683.759c.645.553 1.447 1.241 2.984 1.241 1.536 0 2.339-.688 2.983-1.241.244-.21.453-.381.681-.511v3.682c.001.335-.166.646-.444.832z"/><path d="m6 15h17c0 1.103.897 2 2 2h2c.898 0 1.651-.599 1.903-1.416.059.128.097.266.097.416v7h2v-7c0-1.302-.839-2.402-2-2.816v-8.184c0-1.103-.897-2-2-2h-2c-1.103 0-2 .897-2 2h-17c-2.757 0-5 2.243-5 5s2.243 5 5 5zm19-10h2v10h-2zm-19 2h1v4h2v-4h2v2h2v-2h2v4h2v-4h2v2h2v-2h2v6h-17c-1.654 0-3-1.346-3-3s1.346-3 3-3z"/><path d="m34 53c-1.654 0-3 1.346-3 3s1.346 3 3 3 3-1.346 3-3-1.346-3-3-3zm0 4c-.551 0-1-.449-1-1s.449-1 1-1 1 .449 1 1-.449 1-1 1z"/><path d="m36 43c-1.654 0-3 1.346-3 3s1.346 3 3 3 3-1.346 3-3-1.346-3-3-3zm0 4c-.551 0-1-.449-1-1s.449-1 1-1 1 .449 1 1-.449 1-1 1z"/><path d="m3 24c0 3.86 3.14 7 7 7s7-3.14 7-7-3.14-7-7-7-7 3.14-7 7zm12 0c0 2.757-2.243 5-5 5s-5-2.243-5-5 2.243-5 5-5 5 2.243 5 5z"/><path d="m10 23c.551 0 1 .449 1 1h2c0-1.654-1.346-3-3-3z"/><path d="m16 53c-1.654 0-3 1.346-3 3s1.346 3 3 3 3-1.346 3-3-1.346-3-3-3zm0 4c-.551 0-1-.449-1-1s.449-1 1-1 1 .449 1 1-.449 1-1 1z"/><path d="m59.49 51.566c.943-.922 1.51-2.191 1.51-3.566 0-2.757-2.243-5-5-5-.365 0-.719.044-1.062.119-.409-3.236-3.031-5.789-6.3-6.087.23-.636.362-1.318.362-2.032 0-3.309-2.691-6-6-6-.367 0-.731.033-1.087.098.69-.873 1.087-1.961 1.087-3.098 0-2.414-1.721-4.434-4-4.899v-2.101h-2v6h2v-1.816c1.161.414 2 1.514 2 2.816 0 .73-.269 1.429-.74 1.97-.94-.611-2.058-.97-3.26-.97-2.086 0-3.924 1.071-5 2.69-1.076-1.62-2.914-2.69-5-2.69-1.202 0-2.32.359-3.26.97-.471-.541-.74-1.24-.74-1.97 0-1.302.839-2.402 2-2.816v1.816h2v-6h-2v2.101c-2.279.465-4 2.484-4 4.899 0 1.137.397 2.225 1.087 3.098-.356-.065-.72-.098-1.087-.098-3.309 0-6 2.691-6 6 0 .714.132 1.396.362 2.032-3.269.297-5.891 2.85-6.3 6.087-.343-.075-.697-.119-1.062-.119-2.757 0-5 2.243-5 5 0 1.375.567 2.644 1.51 3.566-2.078.958-3.51 3.048-3.51 5.434 0 3.309 2.691 6 6 6h50c3.309 0 6-2.691 6-6 0-2.386-1.432-4.476-3.51-5.434zm-.49-3.566c0 .904-.402 1.737-1.07 2.297-1.044-1.665-2.765-2.859-4.778-3.194.384-1.214 1.508-2.103 2.848-2.103 1.654 0 3 1.346 3 3zm-22-19c2.206 0 4 1.794 4 4h2c0-.691-.123-1.352-.339-1.969.113-.01.224-.031.339-.031 2.206 0 4 1.794 4 4 0 1.474-.81 2.75-2 3.444v-1.444c0-1.103-.897-2-2-2h-10v-2c0-2.206 1.794-4 4-4zm-16 12.184v5.631c-1.161-.414-2-1.514-2-2.816s.839-2.401 2-2.815zm0-2.184v-2h22l.001 2h-.001zm22 2.184c1.161.414 2 1.514 2 2.816s-.839 2.402-2 2.816zm-22-10.184c.115 0 .226.021.339.031-.216.617-.339 1.278-.339 1.969h2c0-2.206 1.794-4 4-4s4 1.794 4 4v2h-10c-1.103 0-2 .897-2 2v1.444c-1.19-.694-2-1.97-2-3.444 0-2.206 1.794-4 4-4zm-13 14c1.328 0 2.444.873 2.837 2.105-2.008.338-3.725 1.53-4.767 3.193-.668-.561-1.07-1.394-1.07-2.298 0-1.654 1.346-3 3-3zm-5 12c0-1.469.81-2.775 2.024-3.47-.011.156-.024.311-.024.47 0 .392.033.784.097 1.166l1.973-.332c-.047-.273-.07-.553-.07-.834 0-2.757 2.243-5 5-5 .88 0 1.744.231 2.499.668l1.002-1.73c-.798-.462-1.682-.759-2.596-.878-.237-1.236-.936-2.3-1.904-3.033 0-.009-.001-.018-.001-.027 0-2.757 2.243-5 5-5 .198 0 .393.029.588.052.534.581 1.18 1.056 1.905 1.392-.92.907-1.493 2.165-1.493 3.556 0 2.414 1.721 4.434 4 4.899v9.101c0 1.13.391 2.162 1.026 3h-15.026c-2.206 0-4-1.794-4-4zm23 4c-1.654 0-3-1.346-3-3v-1h4v-2h-4v-2h6v-2h-6v-2h4v-2h-4v-2h6v-2h-6v-2h18v17c0 1.654-1.346 3-3 3zm31 0h-15.026c.635-.838 1.026-1.87 1.026-3v-9.101c2.279-.465 4-2.484 4-4.899 0-1.391-.573-2.649-1.493-3.556.725-.335 1.371-.81 1.905-1.392.195-.023.39-.052.588-.052 2.757 0 5 2.243 5 5 0 .009-.001.018-.001.027-.967.733-1.667 1.797-1.904 3.033-.914.119-1.798.416-2.596.878l1.002 1.73c.755-.437 1.619-.668 2.499-.668 2.757 0 5 2.243 5 5 0 .281-.023.561-.069.834l1.973.332c.063-.382.096-.774.096-1.166 0-.159-.013-.314-.024-.47 1.214.695 2.024 2.001 2.024 3.47 0 2.206-1.794 4-4 4z"/><path d="m48 53c-1.654 0-3 1.346-3 3s1.346 3 3 3 3-1.346 3-3-1.346-3-3-3zm0 4c-.551 0-1-.449-1-1s.449-1 1-1 1 .449 1 1-.449 1-1 1z"/><path d="m58 28c-2.757 0-5 2.243-5 5s2.243 5 5 5 5-2.243 5-5-2.243-5-5-5zm0 8c-1.654 0-3-1.346-3-3s1.346-3 3-3 3 1.346 3 3-1.346 3-3 3z"/><path d="m51 24c0-1.654-1.346-3-3-3s-3 1.346-3 3 1.346 3 3 3 3-1.346 3-3zm-4 0c0-.551.449-1 1-1s1 .449 1 1-.449 1-1 1-1-.449-1-1z"/></g></g></svg>