<?xml version="1.0" standalone="no"?>
<!DOCTYPE svg PUBLIC "-//W3C//DTD SVG 20010904//EN"
 "http://www.w3.org/TR/2001/REC-SVG-20010904/DTD/svg10.dtd">
<svg version="1.0" xmlns="http://www.w3.org/2000/svg"
 width="512.000000pt" height="512.000000pt" viewBox="0 0 512.000000 512.000000"
 preserveAspectRatio="xMidYMid meet">

<g transform="translate(0.000000,512.000000) scale(0.100000,-0.100000)"
fill="#000000" stroke="none">
<path d="M715 4704 c-38 -8 -112 -36 -164 -61 -167 -80 -298 -237 -357 -428
-18 -57 -19 -127 -19 -1640 l0 -1580 23 -75 c73 -233 252 -406 489 -472 l78
-22 1805 0 1805 0 78 22 c237 65 416 239 489 472 l23 75 0 1580 c0 1513 -1
1583 -19 1640 -59 191 -190 348 -357 428 -170 82 -26 77 -2026 76 -1525 -1
-1788 -3 -1848 -15z m105 -249 c-59 -79 -104 -169 -127 -261 -17 -65 -18 -169
-18 -1624 l0 -1555 23 -78 c28 -100 70 -181 127 -251 l45 -56 -37 1 c-62 1
-166 32 -227 69 -115 69 -204 204 -226 340 -14 91 -14 2981 1 3070 36 227 226
391 471 409 13 1 4 -17 -32 -64z m3563 50 c136 -29 260 -121 324 -241 66 -124
63 -36 63 -1685 0 -1031 -3 -1514 -11 -1555 -33 -181 -175 -332 -356 -379 -49
-13 -262 -15 -1583 -15 -1636 0 -1564 -2 -1674 50 -69 33 -167 128 -204 198
-66 123 -62 22 -62 1697 0 1663 -3 1575 58 1689 37 70 135 165 206 199 117 57
56 55 1676 56 1262 1 1506 -2 1563 -14z"/>
<path d="M1287 4359 c-93 -22 -183 -95 -227 -184 l-25 -50 0 -1550 0 -1550 28
-57 c35 -72 110 -140 183 -168 55 -20 60 -20 1592 -18 l1537 3 46 23 c74 36
125 87 161 160 l33 67 0 1540 0 1540 -28 57 c-40 82 -120 152 -204 178 -64 20
-86 20 -1562 19 -831 -1 -1513 -5 -1534 -10z m2783 -214 c16 -9 38 -30 47 -48
17 -30 18 -117 18 -1527 0 -1412 -1 -1497 -18 -1523 -9 -15 -29 -35 -44 -44
-26 -17 -107 -18 -1383 -21 -1339 -2 -1355 -2 -1388 18 -18 11 -41 34 -52 52
-20 33 -20 54 -20 1516 0 1632 -4 1532 62 1572 33 20 47 20 1391 20 1194 0
1362 -2 1387 -15z m324 -45 c15 -26 16 -157 16 -1527 0 -1466 0 -1499 -20
-1530 -18 -29 -57 -60 -66 -51 -2 2 1 20 6 40 13 46 9 3085 -4 3112 -9 19 -9
19 21 1 17 -10 38 -30 47 -45z"/>
<path d="M3865 3929 c-55 -42 -66 -55 -63 -76 4 -38 32 -52 57 -29 l21 19 2
-224 3 -224 27 -9 c20 -7 33 -5 52 8 l26 16 0 263 c0 272 -2 286 -42 300 -11
4 -40 -12 -83 -44z"/>
<path d="M3515 3956 c-65 -28 -111 -117 -85 -166 9 -17 19 -21 48 -18 34 3 38
7 50 46 11 32 20 44 40 49 39 10 65 5 85 -19 40 -47 16 -89 -105 -185 -118
-94 -131 -112 -136 -188 -6 -91 3 -95 190 -95 120 0 149 3 162 16 19 18 20 38
6 65 -10 17 -22 19 -131 19 -106 0 -120 2 -115 16 3 9 6 20 6 24 0 5 43 41 95
79 52 39 106 88 120 109 80 121 2 262 -145 261 -30 0 -69 -6 -85 -13z"/>
<path d="M1905 3810 c-128 -17 -243 -70 -317 -147 -101 -105 -134 -287 -77
-438 47 -125 124 -189 380 -313 200 -97 246 -132 274 -206 37 -95 -13 -196
-112 -230 -60 -21 -176 -20 -237 0 -26 9 -86 45 -133 80 -51 38 -96 64 -110
64 -43 0 -83 -32 -110 -88 -24 -48 -25 -57 -14 -93 43 -143 282 -249 535 -236
219 10 356 92 435 257 36 75 36 76 36 210 0 134 0 135 -36 210 -64 132 -140
193 -389 306 -77 35 -159 76 -180 90 -128 85 -101 237 49 281 90 26 207 14
311 -31 46 -20 93 -36 105 -36 31 0 75 37 91 76 55 133 -40 214 -286 244 -94
11 -127 11 -215 0z"/>
<path d="M2903 3245 c-149 -40 -250 -141 -289 -289 -19 -70 -19 -382 0 -452
19 -73 63 -149 109 -191 50 -45 146 -90 222 -104 89 -17 246 -6 324 23 75 27
147 86 156 128 9 43 -25 114 -65 135 -38 20 -63 16 -149 -20 -57 -24 -75 -27
-141 -23 -88 5 -133 27 -165 80 -18 29 -20 51 -20 198 0 193 9 219 85 258 60
30 175 31 240 1 72 -34 94 -38 127 -24 69 29 96 136 48 194 -31 36 -109 74
-183 90 -72 15 -236 13 -299 -4z"/>
<path d="M1536 1670 c-49 -15 -76 -48 -76 -95 0 -50 21 -75 90 -110 27 -14 55
-35 61 -47 10 -18 8 -24 -11 -40 -29 -23 -47 -23 -89 3 -40 24 -61 19 -61 -15
0 -35 40 -59 103 -63 67 -5 111 20 126 71 20 74 -12 121 -114 168 -37 16 -45
52 -16 68 16 8 32 8 63 -1 37 -9 44 -9 55 7 11 15 11 21 -4 35 -22 21 -88 31
-127 19z"/>
<path d="M2587 1674 c-4 -4 -7 -40 -7 -81 l0 -73 -25 16 c-31 20 -68 12 -101
-21 -21 -21 -24 -34 -24 -90 0 -60 3 -69 29 -96 29 -28 77 -39 95 -21 4 4 27
7 49 7 l42 0 0 180 0 180 -25 3 c-14 2 -29 0 -33 -4z m-26 -194 c14 -8 19 -21
19 -56 0 -38 -4 -46 -25 -56 -35 -16 -55 4 -55 56 0 59 20 77 61 56z"/>
<path d="M2699 1644 c-9 -11 -10 -20 -2 -32 15 -24 44 -27 59 -7 28 38 -27 75
-57 39z"/>
<path d="M1775 1541 c-44 -18 -60 -50 -60 -118 0 -61 2 -66 34 -95 30 -27 39
-30 83 -26 55 6 82 25 72 52 -6 15 -14 17 -51 11 -56 -8 -73 5 -73 56 0 54 21
72 76 63 42 -6 44 -5 44 19 0 19 -7 28 -31 36 -37 13 -66 13 -94 2z"/>
<path d="M1970 1537 c-14 -7 -25 -21 -25 -32 0 -17 6 -20 43 -17 81 6 102 -43
21 -50 -59 -6 -82 -25 -82 -67 0 -61 60 -91 111 -55 20 14 24 14 38 0 12 -12
20 -13 35 -6 16 9 19 22 19 86 0 89 -16 127 -61 143 -41 14 -68 14 -99 -2z
m90 -141 c0 -21 -30 -48 -49 -44 -26 5 -25 37 1 47 34 14 48 13 48 -3z"/>
<path d="M2188 1539 c-15 -9 -18 -25 -18 -114 0 -90 2 -106 18 -114 11 -6 24
-6 35 0 13 8 17 24 17 79 0 49 4 73 16 84 18 19 20 19 45 6 16 -9 19 -22 19
-85 0 -79 11 -98 51 -88 17 5 19 16 19 85 0 93 -15 129 -61 148 -27 12 -36 11
-58 -2 -22 -12 -30 -13 -47 -2 -13 9 -24 10 -36 3z"/>
<path d="M2713 1543 c-10 -3 -13 -36 -13 -119 l0 -114 30 0 30 0 0 114 c0 100
-2 114 -17 118 -10 3 -24 3 -30 1z"/>
<path d="M2828 1543 c-15 -4 -18 -17 -18 -88 0 -75 3 -87 26 -114 47 -57 137
-50 175 13 27 44 27 171 0 185 -35 19 -50 -7 -53 -88 -2 -57 -7 -76 -20 -85
-13 -8 -23 -8 -35 0 -14 9 -19 28 -21 87 -3 80 -14 99 -54 90z"/>
<path d="M3086 1537 c-14 -10 -16 -27 -14 -117 l3 -105 30 0 30 0 3 75 c3 74
13 100 38 100 31 0 44 -31 44 -105 0 -57 3 -74 16 -79 21 -8 20 -8 38 10 12
11 16 35 16 89 0 65 2 74 20 80 36 12 49 -11 52 -92 2 -58 7 -78 20 -86 32
-21 48 8 48 90 0 87 -16 125 -60 143 -27 11 -37 11 -66 -3 -19 -9 -34 -21 -34
-26 0 -6 -11 1 -25 14 -27 28 -52 31 -80 11 -16 -12 -22 -12 -40 0 -17 11 -25
11 -39 1z"/>
</g>
</svg>
