<svg id="Layer_1" enable-background="new 0 0 512 512" height="512" viewBox="0 0 512 512" width="512" xmlns="http://www.w3.org/2000/svg"><g><path d="m7.5 470.5h497v34h-497z" fill="#a8d3d8"/><path d="m474.5 470.5h30v34h-30z" fill="#8ebac5"/><path d="m220.175 389.5h-172c-7.732 0-14-6.268-14-14v-354c0-7.732 6.268-14 14-14h172c7.732 0 14 6.268 14 14v354c0 7.732-6.268 14-14 14z" fill="#eaf9fa"/><path d="m220.175 7.5h-30c7.732 0 14 6.268 14 14v354c0 7.732-6.268 14-14 14h30c7.732 0 14-6.268 14-14v-354c0-7.732-6.268-14-14-14z" fill="#d4f2f6"/><path d="m175.733 429.5h-83.116c-6.319 0-11.442-5.123-11.442-11.442v-28.558h106v28.558c0 6.319-5.123 11.442-11.442 11.442z" fill="#a8d3d8"/><path d="m157.175 389.5v28.558c0 6.319-5.123 11.442-11.442 11.442h30c6.319 0 11.442-5.123 11.442-11.442v-28.558z" fill="#8ebac5"/><path d="m119.175 429.5h30v41h-30z" fill="#8ebac5"/><path d="m463.825 389.5h-172c-7.732 0-14-6.268-14-14v-354c0-7.732 6.268-14 14-14h172c7.732 0 14 6.268 14 14v354c0 7.732-6.268 14-14 14z" fill="#eaf9fa"/><path d="m463.825 7.5h-30c7.732 0 14 6.268 14 14v354c0 7.732-6.268 14-14 14h30c7.732 0 14-6.268 14-14v-354c0-7.732-6.268-14-14-14z" fill="#d4f2f6"/><path d="m419.383 429.5h-83.115c-6.319 0-11.442-5.123-11.442-11.442v-28.558h106v28.558c-.001 6.319-5.124 11.442-11.443 11.442z" fill="#a8d3d8"/><path d="m400.825 389.5v28.558c0 6.319-5.123 11.442-11.442 11.442h30c6.319 0 11.442-5.123 11.442-11.442v-28.558z" fill="#8ebac5"/><path d="m362.825 429.5h30v41h-30z" fill="#8ebac5"/><path d="m191.627 228.686c0 43.153-27.331 55.916-57.452 55.916s-57.452-12.763-57.452-55.916 54.365-100.355 57.452-100.355 57.452 57.202 57.452 100.355z" fill="#a6e7f0"/><path d="m134.175 128.331c-.977 0-7.096 5.738-15 14.943 17.063 19.872 42.452 55.92 42.452 85.412 0 35.814-18.83 50.684-42.452 54.71 4.84.825 9.877 1.206 15 1.206 30.122 0 57.452-12.763 57.452-55.916s-54.365-100.355-57.452-100.355z" fill="#6bd9e7"/><ellipse cx="377.825" cy="195.839" fill="#97da7b" rx="54.923" ry="81.692"/><path d="m377.825 114.147c-5.203 0-10.23 1.099-15 3.11 23.039 9.711 39.923 41.204 39.923 78.582s-16.885 68.871-39.923 78.582c4.77 2.011 9.797 3.11 15 3.11 30.333 0 54.923-36.575 54.923-81.692s-24.59-81.692-54.923-81.692z" fill="#80d261"/><g><path d="m89.432 278.654c11.016 8.923 26.069 13.447 44.743 13.447s33.727-4.524 44.743-13.447c13.411-10.863 20.21-27.675 20.21-49.968 0-24.717-15.745-52.09-28.953-70.701-8.413-11.854-16.261-20.819-20.191-25.108-11.036-12.046-13.142-12.046-15.809-12.046s-4.773 0-15.809 12.046c-3.93 4.289-11.778 13.254-20.191 25.108-13.208 18.611-28.952 45.984-28.952 70.701 0 22.293 6.799 39.105 20.209 49.968zm44.743-140.647c12.568 12.459 49.953 56.997 49.953 90.68 0 17.547-4.929 30.437-14.651 38.312-8.276 6.704-20.153 10.104-35.301 10.104s-27.025-3.399-35.301-10.104c-9.722-7.875-14.651-20.765-14.651-38.312-.001-33.683 37.383-78.221 49.951-90.68z"/><path d="m377.825 322.286c4.143 0 7.5-3.357 7.5-7.5v-30.399c14.35-2.391 27.483-11.609 37.561-26.599 11.196-16.653 17.362-38.654 17.362-61.949s-6.166-45.296-17.362-61.949c-11.812-17.568-27.813-27.243-45.061-27.243s-33.249 9.675-45.061 27.243c-11.196 16.653-17.362 38.654-17.362 61.949s6.166 45.296 17.362 61.949c10.078 14.99 23.211 24.208 37.561 26.599v30.399c0 4.143 3.358 7.5 7.5 7.5zm-32.612-72.866c-9.551-14.206-14.811-33.235-14.811-53.581s5.26-39.375 14.811-53.581c8.937-13.291 20.519-20.611 32.612-20.611s23.676 7.32 32.612 20.611c9.551 14.206 14.811 33.235 14.811 53.581s-5.26 39.375-14.811 53.581c-7.067 10.511-15.792 17.269-25.112 19.644v-28.891l23.619-18.058c3.29-2.516 3.918-7.223 1.402-10.514-2.516-3.289-7.22-3.921-10.514-1.402l-14.508 11.092v-23.208l23.618-18.056c3.291-2.516 3.919-7.223 1.403-10.513-2.514-3.291-7.221-3.922-10.513-1.403l-14.509 11.092v-17.031c0-4.143-3.357-7.5-7.5-7.5s-7.5 3.357-7.5 7.5v17.031l-14.51-11.092c-3.29-2.518-7.998-1.889-10.513 1.403-2.516 3.29-1.888 7.997 1.403 10.513l23.619 18.056v23.209l-14.51-11.093c-3.29-2.518-7.998-1.889-10.513 1.403-2.516 3.29-1.888 7.997 1.403 10.513l23.619 18.057v28.892c-9.317-2.375-18.041-9.133-25.108-19.644z"/><path d="m504.5 463h-104.175v-26h19.058c10.445 0 18.942-8.497 18.942-18.942v-21.058h25.5c11.855 0 21.5-9.645 21.5-21.5v-293.808c0-4.143-3.357-7.5-7.5-7.5s-7.5 3.357-7.5 7.5v293.808c0 3.584-2.916 6.5-6.5 6.5h-172c-3.584 0-6.5-2.916-6.5-6.5v-354c0-3.584 2.916-6.5 6.5-6.5h172c3.584 0 6.5 2.916 6.5 6.5v24.91c0 4.143 3.357 7.5 7.5 7.5s7.5-3.357 7.5-7.5v-24.91c0-11.855-9.645-21.5-21.5-21.5h-172c-11.855 0-21.5 9.645-21.5 21.5v354c0 11.855 9.645 21.5 21.5 21.5h25.5v21.058c0 10.445 8.497 18.942 18.942 18.942h19.058v26h-48.633c-4.143 0-7.5 3.357-7.5 7.5s3.357 7.5 7.5 7.5h190.308v19h-482v-19h255.846c4.143 0 7.5-3.357 7.5-7.5s-3.357-7.5-7.5-7.5h-114.171v-26h19.058c10.445 0 18.942-8.497 18.942-18.942v-21.058h25.5c11.855 0 21.5-9.645 21.5-21.5v-354c0-11.855-9.645-21.5-21.5-21.5h-104.098c-4.142 0-7.5 3.357-7.5 7.5s3.358 7.5 7.5 7.5h104.098c3.584 0 6.5 2.916 6.5 6.5v354c0 3.584-2.916 6.5-6.5 6.5h-172c-3.584 0-6.5-2.916-6.5-6.5v-354c0-3.584 2.916-6.5 6.5-6.5h33.056c4.142 0 7.5-3.357 7.5-7.5s-3.358-7.5-7.5-7.5h-33.056c-11.855 0-21.5 9.645-21.5 21.5v354c0 11.855 9.645 21.5 21.5 21.5h25.5v21.058c0 10.445 8.498 18.942 18.942 18.942h19.058v26h-104.175c-4.142 0-7.5 3.357-7.5 7.5v34c0 4.143 3.358 7.5 7.5 7.5h497c4.143 0 7.5-3.357 7.5-7.5v-34c0-4.143-3.357-7.5-7.5-7.5zm-172.175-44.942v-21.058h91v21.058c0 2.174-1.769 3.942-3.942 3.942h-83.115c-2.174 0-3.943-1.769-3.943-3.942zm38 44.942v-26h15v26zm-281.65-44.942v-21.058h91v21.058c0 2.174-1.769 3.942-3.942 3.942h-83.116c-2.174 0-3.942-1.769-3.942-3.942zm38 18.942h15v26h-15z"/></g></g></svg>