<?xml version="1.0" encoding="iso-8859-1"?>
<!-- Generator: Adobe Illustrator 19.0.0, SVG Export Plug-In . SVG Version: 6.00 Build 0)  -->
<svg version="1.1" id="Layer_1" xmlns="http://www.w3.org/2000/svg" xmlns:xlink="http://www.w3.org/1999/xlink" x="0px" y="0px"
	 viewBox="0 0 512.001 512.001" style="enable-background:new 0 0 512.001 512.001;" xml:space="preserve">
<path style="fill:#F4BD64;" d="M8.964,395.756V116.702c0-22.345,18.114-40.46,40.46-40.46H463.03c22.345,0,40.46,18.114,40.46,40.46
	v279.054c0,22.345-18.114,40.46-40.46,40.46H49.422C27.077,436.215,8.964,418.101,8.964,395.756z"/>
<path style="fill:#DDA758;" d="M36.924,395.756V116.702c0-22.345,18.114-40.46,40.46-40.46h-27.96
	c-22.345,0-40.46,18.115-40.46,40.46v279.054c0,22.345,18.114,40.46,40.46,40.46h27.96
	C55.038,436.215,36.924,418.101,36.924,395.756z"/>
<rect x="61.389" y="128.664" style="fill:#4EB79B;" width="389.674" height="255.126"/>
<rect x="428.655" y="128.664" style="fill:#40A084;" width="22.411" height="255.126"/>
<path d="M462.804,67.276H49.197C22.069,67.276,0,89.346,0,116.473v193.431c0,4.826,3.911,8.738,8.738,8.738s8.738-3.912,8.738-8.738
	V116.473c0-17.492,14.231-31.722,31.722-31.722h413.607c17.492,0,31.722,14.231,31.722,31.722v279.054
	c0,17.492-14.231,31.722-31.722,31.722H49.197c-17.492-0.001-31.722-14.232-31.722-31.722v-56.498c0-4.825-3.911-8.738-8.738-8.738
	S0,334.204,0,339.029v56.498c0,27.127,22.069,49.197,49.197,49.197h413.607c27.127,0,49.197-22.07,49.197-49.197V116.473
	C512,89.346,489.931,67.276,462.804,67.276z"/>
<path d="M340.467,128.439c0-4.825-3.911-8.738-8.738-8.738H61.163c-4.827,0-8.738,3.912-8.738,8.738v255.122
	c0,4.826,3.911,8.738,8.738,8.738h389.674c4.827,0,8.738-3.912,8.738-8.738V128.439c0-4.825-3.911-8.738-8.738-8.738h-87.652
	c-4.827,0-8.738,3.912-8.738,8.738c0,4.825,3.911,8.738,8.738,8.738h78.914v237.646H69.901V137.177h261.829
	C336.556,137.177,340.467,133.265,340.467,128.439z"/>
<path d="M94.067,257.497c-4.827,0-8.738,3.912-8.738,8.738c0,4.825,3.911,8.738,8.738,8.738h26.213c4.827,0,8.738-3.912,8.738-8.738
	c0-4.826-3.911-8.738-8.738-8.738h-3.415v-63.624l39.416,76.369c1.525,2.953,4.552,4.731,7.762,4.731
	c0.684,0,1.377-0.08,2.063-0.247c3.918-0.951,6.676-4.46,6.676-8.491v-99.604h3.999c4.827,0,8.738-3.912,8.738-8.738
	s-3.911-8.738-8.738-8.738h-26.213c-4.827,0-8.738,3.912-8.738,8.738s3.911,8.738,8.738,8.738h4.738v63.624l-39.414-76.369
	c-0.006-0.012-0.015-0.021-0.021-0.033c-1.459-2.79-4.376-4.697-7.744-4.697H95.392c-4.827,0-8.738,3.912-8.738,8.738
	s3.911,8.738,8.738,8.738h3.998v90.865H94.067z"/>
<path d="M392.893,190.515v23.3c0,4.825,3.911,8.738,8.738,8.738s8.738-3.912,8.738-8.738v-20.98l17.489-30.606
	c1.545-2.704,1.534-6.027-0.028-8.721c-1.565-2.693-4.442-4.351-7.557-4.351h-34.95c-4.827,0-8.738,3.912-8.738,8.738
	s3.911,8.738,8.738,8.738h19.894l-11.17,19.548C393.29,187.5,392.893,188.993,392.893,190.515z"/>
<path d="M94.067,319.249h95.531c4.827,0,8.738-3.912,8.738-8.738c0-4.825-3.911-8.738-8.738-8.738H94.067
	c-4.827,0-8.738,3.912-8.738,8.738C85.329,315.336,89.241,319.249,94.067,319.249z"/>
<path d="M244.353,336.724c-4.827,0-8.738,3.912-8.738,8.738s3.911,8.738,8.738,8.738h32.62c4.827,0,8.738-3.912,8.738-8.738
	s-3.911-8.738-8.738-8.738H244.353z"/>
<path d="M94.067,354.199h121.161c4.827,0,8.738-3.912,8.738-8.738s-3.911-8.738-8.738-8.738H94.067
	c-4.827,0-8.738,3.912-8.738,8.738S89.241,354.199,94.067,354.199z"/>
<g>
</g>
<g>
</g>
<g>
</g>
<g>
</g>
<g>
</g>
<g>
</g>
<g>
</g>
<g>
</g>
<g>
</g>
<g>
</g>
<g>
</g>
<g>
</g>
<g>
</g>
<g>
</g>
<g>
</g>
</svg>
