<?xml version="1.0" encoding="utf-8"?>
<!-- Generator: Adobe Illustrator 21.0.0, SVG Export Plug-In . SVG Version: 6.00 Build 0)  -->
<svg xmlns="http://www.w3.org/2000/svg" xmlns:xlink="http://www.w3.org/1999/xlink" version="1.1" id="Layer_1" x="0px" y="0px" viewBox="0 0 64 64" style="enable-background:new 0 0 64 64;" xml:space="preserve" width="512" height="512">
<style type="text/css">
	.st0{fill:#8CE2FF;}
	.st1{fill:#FFFFFF;}
</style>
<g>
	<path class="st0" d="M24,4h16c3.3,0,6,2.7,6,6v16c0,3.3-2.7,6-6,6l0,0H24c-3.3,0-6-2.7-6-6l0,0V10C18,6.7,20.7,4,24,4L24,4z"/>
	<path class="st1" d="M40.1,4h-16c-3.3,0-6,2.7-6,6v3h3c1.1,0,2-0.9,2-2s0.9-2,2-2h1c1.1,0,2,0.9,2,2v3.5c0,1.4,1.1,2.5,2.5,2.5   s2.5-1.1,2.5-2.5V11c0-1.1,0.9-2,2-2s2,0.9,2,2v5.5c0,1.4,1.1,2.5,2.5,2.5s2.5-1.1,2.5-2.5V11c0-1.1,0.9-2,2-2H46   C45.5,6.1,43,4,40.1,4z"/>
	<path class="st0" d="M38.7,32h15.6c3.7,0,6.7,3,6.7,6.7v15.6c0,3.7-3,6.7-6.7,6.7H38.7C35,61,32,58,32,54.3V38.7   C32,35,35,32,38.7,32z"/>
	<path class="st1" d="M54.3,32H38.7c-3.1,0-5.7,2-5.8,5v0l4.6,0c0.8,0,1.5,0.7,1.5,1.5v2c0,1.4,1.1,2.5,2.5,2.5s2.5-1.1,2.5-2.5v-2   c0-0.8,0.7-1.5,1.5-1.5h1c0.8,0,1.5,0.7,1.5,1.5V45c0,1.1,0.9,2,2,2s2-0.9,2-2v-6.5c0-0.8,0.7-1.5,1.5-1.5h1c0.8,0,1.5,0.7,1.5,1.5   s0.7,1.5,1.5,1.5H61v-1.3C61,35,58,32,54.3,32z"/>
	<path class="st0" d="M32,54.8c0,3.4-2.8,6.2-6.2,6.2c0,0,0,0,0,0H9.2C5.8,61,3,58.2,3,54.8c0,0,0,0,0,0V39.7c0-4.3,3.5-7.7,7.7-7.7   h0h15.1c3.4,0,6.2,2.8,6.2,6.2l0,0V54.8z"/>
	<path class="st1" d="M25.8,32H10.7c-4,0-7.3,3-7.7,7h2.5C6.3,39,7,39.7,7,40.5V45c0,1.1,0.9,2,2,2c1.1,0,2-0.9,2-2v-6.5   c0-1.4,1.1-2.5,2.5-2.5s2.5,1.1,2.5,2.5V49c0,1.7,1.3,3,3,3s3-1.3,3-3v-8.5c0-0.8,0.7-1.5,1.5-1.5h2c0.8,0,1.5,0.7,1.5,1.5   s0.7,1.5,1.5,1.5H32v-3.8C32,34.8,29.2,32,25.8,32C25.8,32,25.8,32,25.8,32z"/>
	<path class="st1" d="M43,26c0,1.1-0.9,2-2,2l0,0c-1.1,0-2-0.9-2-2v-2c0-1.1,0.9-2,2-2l0,0c1.1,0,2,0.9,2,2V26z"/>
	<path class="st1" d="M43,26c0,1.1-0.9,2-2,2l0,0c-1.1,0-2-0.9-2-2v-2c0-1.1,0.9-2,2-2l0,0c1.1,0,2,0.9,2,2V26z"/>
	<path d="M54.3,31h-9.4c1.3-1.3,2.1-3.1,2.1-5V10c0-3.9-3.1-7-7-7H24c-3.9,0-7,3.1-7,7v16c0,1.9,0.8,3.7,2.1,5h-8.4   C5.9,31,2,34.9,2,39.7v15.1c0,4,3.2,7.2,7.2,7.2h16.6c2.6,0,5.1-1.4,6.3-3.7c1.4,2.3,3.9,3.7,6.6,3.7h15.6c4.3,0,7.7-3.5,7.7-7.7   V38.7C62,34.5,58.5,31,54.3,31z M19,10c0-2.8,2.2-5,5-5h16c2,0,3.8,1.2,4.6,3H44c-1.7,0-3,1.3-3,3v5.5c0,0.8-0.7,1.5-1.5,1.5   S38,17.3,38,16.5V11c0-1.7-1.3-3-3-3s-3,1.3-3,3v3.5c0,0.8-0.7,1.5-1.5,1.5S29,15.3,29,14.5l0,0V11c0-1.7-1.3-3-3-3h-1   c-1.7,0-3,1.3-3,3c0,0.6-0.4,1-1,1h-2V10z M19,26V14h2c1.7,0,3-1.3,3-3c0-0.6,0.4-1,1-1h1c0.6,0,1,0.4,1,1v3.5   c0,1.9,1.6,3.5,3.5,3.5s3.5-1.6,3.5-3.5V11c0-0.6,0.4-1,1-1s1,0.4,1,1v5.5c0,1.9,1.6,3.5,3.5,3.5s3.5-1.6,3.5-3.5V11   c0-0.6,0.4-1,1-1h1v16c0,2.8-2.2,5-5,5H24C21.2,31,19,28.8,19,26z M31,54.3v0.5c0,2.9-2.3,5.2-5.2,5.2H9.2C6.3,60,4,57.7,4,54.8V40   h1.5C5.8,40,6,40.2,6,40.5V45c0,1.7,1.3,3,3,3s3-1.3,3-3v-6.5c0-0.8,0.7-1.5,1.5-1.5s1.5,0.7,1.5,1.5V49c0,2.2,1.8,4,4,4s4-1.8,4-4   v-8.5c0-0.3,0.2-0.5,0.5-0.5h2c0.3,0,0.5,0.2,0.5,0.5c0,1.4,1.1,2.5,2.5,2.5H31V54.3z M31,41h-2.5c-0.3,0-0.5-0.2-0.5-0.5   c0-1.4-1.1-2.5-2.5-2.5h-2c-1.4,0-2.5,1.1-2.5,2.5V49c0,1.1-0.9,2-2,2s-2-0.9-2-2V38.5c0-1.9-1.6-3.5-3.5-3.5S10,36.6,10,38.5V45   c0,0.6-0.4,1-1,1s-1-0.4-1-1v-4.5C8,39.1,6.9,38,5.5,38H4.2c0.8-2.9,3.4-5,6.5-5h15.1c2.9,0,5.2,2.3,5.2,5.2V41z M30.8,33h2.8   c-0.6,0.5-1,1.1-1.4,1.7C31.8,34.1,31.3,33.5,30.8,33z M60,54.3c0,3.2-2.6,5.7-5.7,5.7H38.7c-3.2,0-5.7-2.6-5.7-5.7L33.1,38l4.4,0   c0.3,0,0.5,0.2,0.5,0.5v2c0,1.9,1.6,3.5,3.5,3.5s3.5-1.6,3.5-3.5v-2c0-0.3,0.2-0.5,0.5-0.5h1c0.3,0,0.5,0.2,0.5,0.5V45   c0,1.7,1.3,3,3,3s3-1.3,3-3v-6.5c0-0.3,0.2-0.5,0.5-0.5h1c0.3,0,0.5,0.2,0.5,0.5c0,1.4,1.1,2.5,2.5,2.5H60V54.3z M60,39h-2.5   c-0.3,0-0.5-0.2-0.5-0.5c0-1.4-1.1-2.5-2.5-2.5h-1c-1.4,0-2.5,1.1-2.5,2.5V45c0,0.6-0.4,1-1,1s-1-0.4-1-1v-6.5   c0-1.4-1.1-2.5-2.5-2.5h-1c-1.4,0-2.5,1.1-2.5,2.5v2c0,0.8-0.7,1.5-1.5,1.5S40,41.3,40,40.5v-2c0-1.4-1.1-2.5-2.5-2.5l-3.8,0   c1-1.8,2.9-3,5-3h15.6c3.2,0,5.7,2.6,5.7,5.7V39z"/>
	<path d="M41,29c1.7,0,3-1.3,3-3v-2c0-1.7-1.3-3-3-3s-3,1.3-3,3v2C38,27.7,39.3,29,41,29z M42,26c0,0.6-0.4,1-1,1s-1-0.4-1-1v-2   c0-0.6,0.4-1,1-1s1,0.4,1,1V26z"/>
</g>
</svg>
