<?xml version="1.0" encoding="iso-8859-1"?>
<!-- Generator: Adobe Illustrator 19.0.0, SVG Export Plug-In . SVG Version: 6.00 Build 0)  -->
<svg version="1.1" id="Capa_1" xmlns="http://www.w3.org/2000/svg" xmlns:xlink="http://www.w3.org/1999/xlink" x="0px" y="0px"
	 viewBox="0 0 479.998 479.998" style="enable-background:new 0 0 479.998 479.998;" xml:space="preserve">
<circle style="fill:#24DB6A;" cx="239.999" cy="239.998" r="144"/>
<circle style="fill:#FCCC38;" cx="239.999" cy="239.998" r="80"/>
<circle style="fill:#F4393D;" cx="239.999" cy="239.998" r="24"/>
<path d="M158.741,273.83c4.436,10.662,10.935,20.343,19.125,28.484l11.297-11.328c-6.704-6.663-12.024-14.586-15.656-23.313
	L158.741,273.83z"/>
<path d="M212.523,306.572l-6.109,14.789c10.649,4.401,22.063,6.657,33.586,6.637h0.078l-0.078-16
	C230.572,312.018,221.234,310.174,212.523,306.572z"/>
<path d="M267.335,173.365l6.078-14.797c-10.6-4.358-21.953-6.59-33.414-6.57h-0.242l0.242,16
	C249.375,167.979,258.663,169.803,267.335,173.365z"/>
<path d="M173.397,212.596l-14.797-6.094c-4.381,10.623-6.624,22.005-6.602,33.496v0.164l16-0.164
	C167.979,230.598,169.814,221.286,173.397,212.596L173.397,212.596z"/>
<path d="M212.257,173.541l-6.172-14.766c-10.659,4.449-20.334,10.96-28.469,19.16l11.344,11.281
	C195.616,182.506,203.533,177.178,212.257,173.541L212.257,173.541z"/>
<path d="M306.546,267.537l14.781,6.125c4.426-10.67,6.694-22.112,6.672-33.664v-0.328l-16,0.328
	C312.017,249.448,310.164,258.807,306.546,267.537z"/>
<path d="M302.007,177.557l-11.281,11.352c6.72,6.65,12.059,14.562,15.711,23.281l14.75-6.188
	C316.73,195.349,310.212,185.682,302.007,177.557z"/>
<path d="M267.608,306.518l6.141,14.773c10.669-4.425,20.358-10.917,28.508-19.102l-11.313-11.305
	C284.27,297.581,276.34,302.893,267.608,306.518z"/>
<path d="M478.397,235.197l-24-32l-12.797,9.602L456,231.998h-64.406c-1.796-34.699-15.491-67.721-38.78-93.506l45.099-45.096
	l2.133,19.473l15.906-1.742l-3.953-36.047c-0.407-3.728-3.35-6.673-7.078-7.082l-36.047-3.953l-1.75,15.906l19.473,2.135
	l-45.096,45.093c-25.785-23.287-58.805-36.981-93.502-38.776V23.997l19.203,14.399l9.594-12.797l-32-24
	c-2.842-2.133-6.751-2.133-9.594,0l-32,24l9.594,12.797l19.203-14.399v64.406c-34.697,1.796-67.717,15.489-93.502,38.776
	L93.401,82.087l19.473-2.136l-1.75-15.906l-36.047,3.954c-3.728,0.409-6.671,3.354-7.078,7.082l-3.953,36.047l15.906,1.742
	l2.133-19.473l45.099,45.096c-23.289,25.785-36.984,58.806-38.78,93.506H23.999l14.399-19.199l-12.797-9.602l-24,32
	c-2.133,2.845-2.133,6.756,0,9.602l24,32l12.797-9.602l-14.399-19.199h64.406c1.796,34.699,15.491,67.721,38.78,93.506
	l-45.575,45.572l-3.392-23.761l-15.844,2.266l5.656,39.598c0.506,3.518,3.271,6.282,6.789,6.785l39.594,5.66l2.266-15.836
	L92.92,398.39l45.577-45.574c25.785,23.287,58.804,36.981,93.502,38.776v64.406L212.796,441.6l-9.594,12.797l32,24
	c2.841,2.136,6.752,2.136,9.594,0l32-24l-9.594-12.797l-19.203,14.399v-64.406c34.697-1.796,67.717-15.489,93.502-38.776
	l45.096,45.093l-19.473,2.135l1.75,15.906l36.047-3.954c3.728-0.409,6.671-3.354,7.078-7.082l3.953-36.047l-15.906-1.742
	l-2.133,19.473l-45.099-45.096c23.289-25.785,36.984-58.806,38.78-93.506H456l-14.399,19.199l12.797,9.602l24-32
	C480.53,241.954,480.53,238.042,478.397,235.197L478.397,235.197z M239.999,375.998c-75.111,0-136-60.889-136-136
	s60.889-136,136-136s136,60.889,136,136C375.915,315.074,315.075,375.914,239.999,375.998z"/>
<path d="M239.999,207.998c-17.673,0-32,14.327-32,32c0,17.673,14.327,32,32,32s32-14.327,32-32
	C271.98,222.333,257.664,208.017,239.999,207.998z M239.999,255.998c-8.837,0-16-7.163-16-16c0-8.837,7.163-16,16-16
	c8.837,0,16,7.163,16,16C255.989,248.83,248.831,255.988,239.999,255.998z"/>
<g>
</g>
<g>
</g>
<g>
</g>
<g>
</g>
<g>
</g>
<g>
</g>
<g>
</g>
<g>
</g>
<g>
</g>
<g>
</g>
<g>
</g>
<g>
</g>
<g>
</g>
<g>
</g>
<g>
</g>
</svg>
